<?xml version="1.0" encoding="UTF-8" standalone="no"?>
<!-- Created with Inkscape (http://www.inkscape.org/) -->

<svg
   xmlns:dc="http://purl.org/dc/elements/1.1/"
   xmlns:cc="http://creativecommons.org/ns#"
   xmlns:rdf="http://www.w3.org/1999/02/22-rdf-syntax-ns#"
   xmlns:svg="http://www.w3.org/2000/svg"
   xmlns="http://www.w3.org/2000/svg"
   xmlns:sodipodi="http://sodipodi.sourceforge.net/DTD/sodipodi-0.dtd"
   xmlns:inkscape="http://www.inkscape.org/namespaces/inkscape"
   version="1.1"
   id="svg210"
   width="35"
   height="36"
   viewBox="0 0 35 36"
   sodipodi:docname="gitlab.svg"
   inkscape:version="0.92.1 unknown">
  <metadata
     id="metadata216">
    <rdf:RDF>
      <cc:Work
         rdf:about="">
        <dc:format>image/svg+xml</dc:format>
        <dc:type
           rdf:resource="http://purl.org/dc/dcmitype/StillImage" />
        <dc:title></dc:title>
      </cc:Work>
    </rdf:RDF>
  </metadata>
  <defs
     id="defs214" />
  <sodipodi:namedview
     pagecolor="#ffffff"
     bordercolor="#666666"
     borderopacity="1"
     objecttolerance="10"
     gridtolerance="10"
     guidetolerance="10"
     inkscape:pageopacity="0"
     inkscape:pageshadow="2"
     inkscape:window-width="1024"
     inkscape:window-height="719"
     id="namedview212"
     showgrid="false"
     inkscape:zoom="4.6093749"
     inkscape:cx="40.677967"
     inkscape:cy="8.2440679"
     inkscape:window-x="0"
     inkscape:window-y="0"
     inkscape:window-maximized="1"
     inkscape:current-layer="svg210" />
  <g
     id="g250"
     transform="matrix(0.75817867,0,0,0.75817867,-1.9456238,1.3530935)"
     inkscape:transform-center-y="-5.4297103"
     inkscape:transform-center-x="0.54297095">
    <path
       style="fill:#dddddd;fill-opacity:1;stroke-width:0.032"
       d="M 14.398256,37.87011 C 6.9173688,32.526209 3.2169777,29.8646 3.2189537,29.829086 3.2205783,29.799889 3.9278961,27.896801 4.7907707,25.6 l 1.568863,-4.176 2.6797361,-8.042847 C 10.513225,8.9575867 11.730114,5.3503867 11.743569,5.3651527 c 0.01345,0.014766 1.217833,3.6088475 2.676399,7.9868473 l 2.651936,7.96 H 25.6 34.128097 l 2.651936,-7.96 c 1.458566,-4.3779998 2.662944,-7.9720812 2.6764,-7.9868473 0.01345,-0.014766 1.230227,3.592434 2.703942,8.0160003 l 2.679479,8.042847 1.583689,4.218783 c 0.871031,2.320331 1.571264,4.229855 1.556074,4.243388 -0.0695,0.06192 -22.319517,15.941334 -22.356852,15.955663 -0.02324,0.0089 -5.074269,-3.578358 -11.224509,-7.971724 z"
       id="path276"
       inkscape:connector-curvature="0" />
    <path
       style="fill:#d4d4d4;fill-opacity:1;stroke-width:0.032"
       d="M 14.448,37.901166 C 8.3232002,33.52578 3.2861533,29.927482 3.2545626,29.904942 3.201057,29.866767 3.305929,29.574017 4.7867092,25.627981 L 6.3762932,21.392 9.0548175,13.360012 11.733342,5.3280238 14.397338,13.320012 17.061333,21.312 H 25.6 34.138666 l 2.663997,-7.991988 2.663997,-7.9919882 2.678525,8.0319882 2.678521,8.031988 1.589562,4.23592 c 0.874259,2.329755 1.585325,4.239658 1.580147,4.244227 -0.04974,0.0439 -22.350709,15.961995 -22.375803,15.971511 -0.01849,0.007 -5.044812,-3.56711 -11.169612,-7.942492 z"
       id="path274"
       inkscape:connector-curvature="0" />
    <path
       style="fill:#cbcbcb;fill-opacity:1;stroke-width:0.032"
       d="M 14.432,37.885562 C 8.2984002,33.50281 3.2617933,29.906127 3.2395409,29.892932 c -0.030015,-0.0178 0.3654979,-1.105715 1.532168,-4.21446 L 6.3443364,21.488 9.0388191,13.408072 11.733302,5.3281431 14.402651,13.328072 17.072,21.328 h 8.528 8.528001 l 2.66935,-7.999928 2.669347,-7.9999289 2.694484,8.0799289 2.694483,8.079928 1.572627,4.190472 c 1.166669,3.108745 1.562183,4.196663 1.532167,4.21446 -0.02225,0.0132 -5.058858,3.609878 -11.192458,7.99263 -6.1336,4.382749 -11.1592,7.968637 -11.168,7.968637 -0.0088,0 -5.034401,-3.585888 -11.168001,-7.968637 z"
       id="path272"
       inkscape:connector-curvature="0" />
    <path
       style="fill:#c2c2c2;fill-opacity:1;stroke-width:0.032"
       d="M 14.432,37.885543 C 8.2984002,33.502794 3.2623431,29.906424 3.240762,29.893609 3.2123719,29.876751 3.6268634,28.738158 4.7400375,25.775155 L 6.2785508,21.68 9.005989,13.504068 11.733427,5.3281364 14.402666,13.336068 17.071904,21.344 H 25.6 34.128097 l 2.669238,-8.007932 2.669239,-8.0079316 2.727548,8.1759316 2.727552,8.175932 1.537767,4.094731 c 0.84577,2.252102 1.534794,4.096047 1.531162,4.097656 -0.0036,0.0016 -5.042225,3.59858 -11.196877,7.993271 -6.15465,4.394688 -11.19465,7.989933 -11.199999,7.989431 -0.0053,-5.03e-4 -5.028127,-3.5868 -11.161727,-7.969546 z"
       id="path270"
       inkscape:connector-curvature="0" />
    <path
       style="fill:#b9b9b9;fill-opacity:1;stroke-width:0.032"
       d="M 14.592,37.998206 C 8.5464002,33.67841 3.5113665,30.080286 3.4030369,30.002375 L 3.2060733,29.860718 4.7422001,25.77036 6.2783268,21.68 9.005877,13.504068 11.733427,5.3281364 14.402666,13.336068 17.071904,21.344 H 25.6 34.128097 l 2.669238,-8.007932 2.669239,-8.0079316 2.727548,8.1759316 2.727552,8.175932 1.534849,4.086947 c 1.387923,3.695729 1.529897,4.091184 1.483161,4.131203 C 47.865934,29.9613 25.605276,45.856375 25.593642,45.85419 25.588339,45.853194 20.6376,42.318001 14.592,37.998206 Z"
       id="path268"
       inkscape:connector-curvature="0" />
    <path
       style="fill:#b0b0b0;fill-opacity:1;stroke-width:0.032"
       d="M 14.4,37.85546 C 8.2664002,33.473761 3.2439959,29.870354 3.2391021,29.847888 c -0.00489,-0.02247 0.6876257,-1.89823 1.5389326,-4.168367 L 6.3258651,21.552 9.0224866,13.461154 C 10.505628,9.0111887 11.730116,5.3823886 11.74357,5.397154 11.75702,5.41192 12.961402,9.0060002 14.419968,13.384 l 2.651936,7.96 H 25.6 34.128097 l 2.651936,-7.96 c 1.458566,-4.3779998 2.662944,-7.9720805 2.6764,-7.986846 0.01345,-0.014765 1.237939,3.6140347 2.721081,8.064 l 2.696621,8.090846 1.546935,4.125127 c 0.850813,2.26882 1.546931,4.141894 1.546931,4.162388 0,0.03161 -21.904714,15.706735 -22.23618,15.912323 -0.0637,0.03951 -0.13022,0.0715 -0.147821,0.07109 C 25.5664,45.822513 20.5336,42.237156 14.4,37.85546 Z"
       id="path266"
       inkscape:connector-curvature="0" />
    <path
       style="fill:#a7a7a7;fill-opacity:1;stroke-width:0.032"
       d="M 25.46819,45.751838 C 25.155542,45.557905 3.2320301,29.871936 3.2322196,29.842308 3.2323405,29.823439 3.9436007,27.914401 4.8127979,25.6 c 1.0598998,-2.822181 1.5938077,-4.20477 1.6211968,-4.198194 0.031174,0.0075 0.032177,-6.31e-4 0.00424,-0.0343 -0.028496,-0.03434 0.552289,-1.810763 2.6222378,-8.020552 1.4623625,-4.3870457 2.6691475,-7.9644116 2.6817445,-7.9497015 0.0126,0.01471 1.213957,3.6087457 2.669689,7.9867455 l 2.646785,7.96 h 8.534836 8.534836 l 2.636435,-7.912 c 1.450039,-4.3515998 2.650474,-7.9479999 2.667636,-7.9919999 0.02634,-0.067531 0.446412,1.1644423 2.695088,7.9039999 1.940313,5.815357 2.654892,7.995356 2.630771,8.025806 -0.02388,0.03014 -0.02167,0.03907 0.0079,0.032 0.02764,-0.0066 0.556711,1.363632 1.620983,4.198194 0.86897,2.314401 1.580141,4.223439 1.580381,4.242308 3.84e-4,0.0296 -21.922056,15.714944 -22.235755,15.90953 -0.0637,0.03951 -0.12301,0.07184 -0.131811,0.07184 -0.0088,0 -0.06811,-0.03233 -0.13181,-0.07184 z m 0.03581,-0.03592 c 0,-0.0066 -0.0252,-0.03184 -0.056,-0.056 -0.05075,-0.0398 -0.05188,-0.03867 -0.01208,0.01208 0.0418,0.0533 0.06808,0.07026 0.06808,0.04392 z m 0.260082,-0.04392 c 0.0398,-0.05076 0.03867,-0.05188 -0.01208,-0.01208 -0.0533,0.0418 -0.07026,0.06808 -0.04392,0.06808 0.0066,0 0.03185,-0.0252 0.056,-0.056 z M 25.376,45.555918 c 0,-0.0066 -0.0252,-0.03184 -0.056,-0.056 -0.05075,-0.0398 -0.05188,-0.03867 -0.01208,0.01208 0.0418,0.0533 0.06808,0.07026 0.06808,0.04392 z m 0.516082,-0.04392 c 0.0398,-0.05075 0.03867,-0.05188 -0.01208,-0.01208 -0.0533,0.0418 -0.07026,0.06808 -0.04392,0.06808 0.0066,0 0.03185,-0.0252 0.056,-0.056 z M 25.152,45.267918 c 0,-0.0066 -0.0252,-0.03184 -0.056,-0.056 -0.05075,-0.0398 -0.05188,-0.03867 -0.01208,0.01208 0.0418,0.0533 0.06808,0.07026 0.06808,0.04392 z m 0.964082,-0.04392 c 0.0398,-0.05076 0.03867,-0.05188 -0.01208,-0.01208 -0.0308,0.02416 -0.056,0.04936 -0.056,0.056 0,0.02634 0.02628,0.0094 0.06808,-0.04392 z M 24.928,44.979918 c 0,-0.0066 -0.0252,-0.03184 -0.056,-0.056 -0.05075,-0.0398 -0.05188,-0.03867 -0.01208,0.01208 0.0418,0.0533 0.06808,0.07026 0.06808,0.04392 z m 1.412082,-0.04392 c 0.0398,-0.05075 0.03867,-0.05188 -0.01208,-0.01208 -0.0308,0.02416 -0.056,0.04936 -0.056,0.056 0,0.02634 0.02628,0.0094 0.06808,-0.04392 z M 24.8,44.819918 c 0,-0.0066 -0.0252,-0.03184 -0.056,-0.056 -0.05075,-0.0398 -0.05188,-0.03867 -0.01208,0.01208 0.0418,0.0533 0.06808,0.07026 0.06808,0.04392 z m 1.668082,-0.04392 c 0.0398,-0.05076 0.03867,-0.05188 -0.01208,-0.01208 -0.0533,0.0418 -0.07026,0.06808 -0.04392,0.06808 0.0066,0 0.03184,-0.0252 0.056,-0.056 z M 24.576,44.531918 c 0,-0.0066 -0.0252,-0.03184 -0.056,-0.056 -0.05075,-0.0398 -0.05188,-0.03867 -0.01208,0.01208 0.0418,0.0533 0.06808,0.07026 0.06808,0.04392 z m 2.116082,-0.04392 c 0.0398,-0.05075 0.03867,-0.05188 -0.01208,-0.01208 -0.0533,0.0418 -0.07026,0.06808 -0.04392,0.06808 0.0066,0 0.03185,-0.0252 0.056,-0.056 z M 24.448,44.371918 c 0,-0.0066 -0.0252,-0.03184 -0.056,-0.056 -0.05075,-0.0398 -0.05188,-0.03867 -0.01208,0.01208 0.0418,0.0533 0.06808,0.07026 0.06808,0.04392 z m -0.096,-0.128 c 0,-0.0066 -0.0252,-0.03184 -0.056,-0.056 -0.05075,-0.0398 -0.05188,-0.03867 -0.01208,0.01208 0.0418,0.0533 0.06808,0.07026 0.06808,0.04392 z m 2.564082,-0.04392 c 0.0398,-0.05076 0.03867,-0.05188 -0.01208,-0.01208 -0.0533,0.0418 -0.07026,0.06808 -0.04392,0.06808 0.0066,0 0.03185,-0.0252 0.056,-0.056 z M 24.224,44.083918 c 0,-0.0066 -0.0252,-0.03184 -0.056,-0.056 -0.05075,-0.0398 -0.05188,-0.03867 -0.01208,0.01208 0.0418,0.0533 0.06808,0.07026 0.06808,0.04392 z m 2.820082,-0.04392 c 0.0398,-0.05075 0.03867,-0.05188 -0.01208,-0.01208 -0.0533,0.0418 -0.07026,0.06808 -0.04392,0.06808 0.0066,0 0.03185,-0.0252 0.056,-0.056 z M 24,43.795918 c 0,-0.0066 -0.0252,-0.03184 -0.056,-0.056 -0.05075,-0.0398 -0.05188,-0.03867 -0.01208,0.01208 0.0418,0.0533 0.06808,0.07026 0.06808,0.04392 z m 3.268082,-0.04392 c 0.0398,-0.05076 0.03867,-0.05188 -0.01208,-0.01208 -0.0308,0.02416 -0.056,0.04936 -0.056,0.056 0,0.02634 0.02628,0.0094 0.06808,-0.04392 z M 23.872,43.635918 c 0,-0.0066 -0.0252,-0.03184 -0.056,-0.056 -0.05075,-0.0398 -0.05188,-0.03867 -0.01208,0.01208 0.0418,0.0533 0.06808,0.07026 0.06808,0.04392 z m -0.096,-0.128 c 0,-0.0066 -0.0252,-0.03184 -0.056,-0.056 -0.05075,-0.0398 -0.05188,-0.03867 -0.01208,0.01208 0.0418,0.0533 0.06808,0.07026 0.06808,0.04392 z m 3.716082,-0.04392 c 0.0398,-0.05076 0.03867,-0.05189 -0.01208,-0.01208 -0.0308,0.02416 -0.056,0.04936 -0.056,0.056 0,0.02634 0.02628,0.0094 0.06808,-0.04392 z M 23.648,43.347918 c 0,-0.0066 -0.0252,-0.03184 -0.056,-0.056 -0.05075,-0.0398 -0.05188,-0.03867 -0.01208,0.01208 0.0418,0.0533 0.06808,0.07026 0.06808,0.04392 z m 3.972082,-0.04392 c 0.0398,-0.05076 0.03867,-0.05188 -0.01208,-0.01208 -0.0533,0.0418 -0.07026,0.06808 -0.04392,0.06808 0.0066,0 0.03185,-0.0252 0.056,-0.056 z M 23.424,43.059918 c 0,-0.0066 -0.0252,-0.03184 -0.056,-0.056 -0.05075,-0.0398 -0.05188,-0.03867 -0.01208,0.01208 0.0418,0.0533 0.06808,0.07026 0.06808,0.04392 z m 4.420082,-0.04392 c 0.0398,-0.05076 0.03867,-0.05189 -0.01208,-0.01208 -0.0308,0.02416 -0.056,0.04936 -0.056,0.056 0,0.02634 0.02628,0.0094 0.06808,-0.04392 z M 23.296,42.899918 c 0,-0.0066 -0.0252,-0.03184 -0.056,-0.056 -0.05075,-0.0398 -0.05188,-0.03867 -0.01208,0.01208 0.0418,0.0533 0.06808,0.07026 0.06808,0.04392 z m 4.676082,-0.04392 c 0.0398,-0.05076 0.03867,-0.05188 -0.01208,-0.01208 -0.0533,0.0418 -0.07026,0.06808 -0.04392,0.06808 0.0066,0 0.03185,-0.0252 0.056,-0.056 z M 23.2,42.771918 c 0,-0.0066 -0.0252,-0.03184 -0.056,-0.056 -0.05075,-0.0398 -0.05188,-0.03867 -0.01208,0.01208 0.0418,0.0533 0.06808,0.07026 0.06808,0.04392 z m 4.868082,-0.04392 c 0.0398,-0.05076 0.03867,-0.05188 -0.01208,-0.01208 -0.0533,0.0418 -0.07026,0.06808 -0.04392,0.06808 0.0066,0 0.03185,-0.0252 0.056,-0.056 z M 23.072,42.611918 c 0,-0.0066 -0.0252,-0.03184 -0.056,-0.056 -0.05075,-0.0398 -0.05188,-0.03867 -0.01208,0.01208 0.0418,0.0533 0.06808,0.07026 0.06808,0.04392 z m 5.124082,-0.04392 c 0.0398,-0.05076 0.03867,-0.05189 -0.01208,-0.01208 -0.0533,0.0418 -0.07026,0.06808 -0.04392,0.06808 0.0066,0 0.03185,-0.0252 0.056,-0.056 z M 22.848,42.323918 c 0,-0.0066 -0.0252,-0.03184 -0.056,-0.056 -0.05075,-0.0398 -0.05189,-0.03867 -0.01208,0.01208 0.0418,0.0533 0.06808,0.07026 0.06808,0.04392 z m 5.572082,-0.04392 c 0.0398,-0.05075 0.03867,-0.05188 -0.01208,-0.01208 -0.0533,0.0418 -0.07026,0.06808 -0.04392,0.06808 0.0066,0 0.03185,-0.0252 0.056,-0.056 z M 22.72,42.163918 c 0,-0.0066 -0.0252,-0.03184 -0.056,-0.056 -0.05075,-0.0398 -0.05189,-0.03867 -0.01208,0.01208 0.0418,0.0533 0.06808,0.07026 0.06808,0.04392 z m 5.828082,-0.04392 c 0.0398,-0.05076 0.03867,-0.05188 -0.01208,-0.01208 -0.0533,0.0418 -0.07026,0.06808 -0.04392,0.06808 0.0066,0 0.03185,-0.0252 0.056,-0.056 z M 22.624,42.035918 c 0,-0.0066 -0.0252,-0.03184 -0.056,-0.056 -0.05075,-0.0398 -0.05189,-0.03867 -0.01208,0.01208 0.0418,0.0533 0.06808,0.07026 0.06808,0.04392 z m 6.020082,-0.04392 c 0.0398,-0.05076 0.03867,-0.05188 -0.01208,-0.01208 -0.0533,0.0418 -0.07026,0.06808 -0.04392,0.06808 0.0066,0 0.03185,-0.0252 0.056,-0.056 z M 22.496,41.875918 c 0,-0.0066 -0.0252,-0.03184 -0.056,-0.056 -0.05075,-0.0398 -0.05189,-0.03867 -0.01208,0.01208 0.0418,0.0533 0.06808,0.07026 0.06808,0.04392 z m 6.276082,-0.04392 c 0.0398,-0.05075 0.03867,-0.05188 -0.01208,-0.01208 -0.0533,0.0418 -0.07026,0.06808 -0.04392,0.06808 0.0066,0 0.03185,-0.0252 0.056,-0.056 z M 22.272,41.587918 c 0,-0.0066 -0.0252,-0.03184 -0.056,-0.056 -0.05075,-0.0398 -0.05189,-0.03867 -0.01208,0.01208 0.0418,0.0533 0.06808,0.07026 0.06808,0.04392 z m 6.724082,-0.04392 c 0.0398,-0.05076 0.03867,-0.05188 -0.01208,-0.01208 -0.0308,0.02416 -0.056,0.04936 -0.056,0.056 0,0.02634 0.02628,0.0094 0.06808,-0.04392 z M 22.144,41.427918 c 0,-0.0066 -0.0252,-0.03184 -0.056,-0.056 -0.05075,-0.0398 -0.05189,-0.03867 -0.01208,0.01208 0.0418,0.0533 0.06808,0.07026 0.06808,0.04392 z m 6.980082,-0.04392 c 0.0398,-0.05075 0.03867,-0.05188 -0.01208,-0.01208 -0.0308,0.02416 -0.056,0.04936 -0.056,0.056 0,0.02634 0.02628,0.0094 0.06808,-0.04392 z M 22.048,41.299918 c 0,-0.0066 -0.0252,-0.03184 -0.056,-0.056 -0.05075,-0.0398 -0.05189,-0.03867 -0.01208,0.01208 0.0418,0.0533 0.06808,0.07026 0.06808,0.04392 z m 7.172082,-0.04392 c 0.0398,-0.05075 0.03867,-0.05188 -0.01208,-0.01208 -0.0308,0.02416 -0.056,0.04936 -0.056,0.056 0,0.02634 0.02628,0.0094 0.06808,-0.04392 z M 21.92,41.139918 c 0,-0.0066 -0.0252,-0.03184 -0.056,-0.056 -0.05075,-0.0398 -0.05189,-0.03867 -0.01208,0.01208 0.0418,0.0533 0.06808,0.07026 0.06808,0.04392 z m 7.428082,-0.04392 c 0.0398,-0.05076 0.03867,-0.05188 -0.01208,-0.01208 -0.0533,0.0418 -0.07026,0.06808 -0.04392,0.06808 0.0066,0 0.03185,-0.0252 0.056,-0.056 z M 21.696,40.851918 c 0,-0.0066 -0.0252,-0.03184 -0.056,-0.056 -0.05075,-0.0398 -0.05189,-0.03867 -0.01208,0.01208 0.0418,0.0533 0.06808,0.07026 0.06808,0.04392 z m 7.876082,-0.04392 c 0.0398,-0.05075 0.03867,-0.05188 -0.01208,-0.01208 -0.0533,0.0418 -0.07026,0.06808 -0.04392,0.06808 0.0066,0 0.03185,-0.0252 0.056,-0.056 z M 21.568,40.691918 c 0,-0.0066 -0.0252,-0.03184 -0.056,-0.056 -0.05075,-0.0398 -0.05189,-0.03867 -0.01208,0.01208 0.0418,0.0533 0.06808,0.07026 0.06808,0.04392 z m 8.132083,-0.04392 c 0.0398,-0.05076 0.03867,-0.05188 -0.01208,-0.01208 -0.0533,0.0418 -0.07026,0.06808 -0.04392,0.06808 0.0066,0 0.03185,-0.0252 0.056,-0.056 z M 21.472,40.563918 c 0,-0.0066 -0.0252,-0.03184 -0.056,-0.056 -0.05075,-0.0398 -0.05188,-0.03867 -0.01208,0.01208 0.0418,0.0533 0.06808,0.07026 0.06808,0.04392 z m 8.324083,-0.04392 c 0.0398,-0.05076 0.03867,-0.05188 -0.01208,-0.01208 -0.0533,0.0418 -0.07026,0.06808 -0.04392,0.06808 0.0066,0 0.03184,-0.0252 0.056,-0.056 z M 21.344,40.403918 c 0,-0.0066 -0.0252,-0.03184 -0.056,-0.056 -0.05075,-0.0398 -0.05188,-0.03867 -0.01208,0.01208 0.0418,0.0533 0.06808,0.07026 0.06808,0.04392 z m 8.580083,-0.04392 c 0.0398,-0.05075 0.03867,-0.05188 -0.01208,-0.01208 -0.0533,0.0418 -0.07026,0.06808 -0.04392,0.06808 0.0066,0 0.03184,-0.0252 0.056,-0.056 z M 21.12,40.115918 c 0,-0.0066 -0.0252,-0.03184 -0.056,-0.056 -0.05075,-0.0398 -0.05188,-0.03867 -0.01208,0.01208 0.0418,0.0533 0.06808,0.07026 0.06808,0.04392 z m 9.028083,-0.04392 c 0.0398,-0.05076 0.03867,-0.05188 -0.01208,-0.01208 -0.0533,0.0418 -0.07026,0.06808 -0.04392,0.06808 0.0066,0 0.03184,-0.0252 0.056,-0.056 z M 20.992,39.955918 c 0,-0.0066 -0.0252,-0.03184 -0.056,-0.056 -0.05075,-0.0398 -0.05188,-0.03867 -0.01208,0.01208 0.0418,0.0533 0.06808,0.07026 0.06808,0.04392 z m 9.284083,-0.04392 c 0.0398,-0.05075 0.03867,-0.05188 -0.01208,-0.01208 -0.0308,0.02416 -0.056,0.04936 -0.056,0.056 0,0.02634 0.02628,0.0094 0.06808,-0.04392 z M 20.896,39.827918 c 0,-0.0066 -0.0252,-0.03184 -0.056,-0.056 -0.05075,-0.0398 -0.05188,-0.03867 -0.01208,0.01208 0.0418,0.0533 0.06808,0.07026 0.06808,0.04392 z m 9.476083,-0.04392 c 0.0398,-0.05076 0.03867,-0.05189 -0.01208,-0.01208 -0.0533,0.0418 -0.07026,0.06808 -0.04392,0.06808 0.0066,0 0.03184,-0.0252 0.056,-0.056 z M 20.768,39.667918 c 0,-0.0066 -0.0252,-0.03184 -0.056,-0.056 -0.05075,-0.0398 -0.05188,-0.03867 -0.01208,0.01208 0.0418,0.0533 0.06808,0.07026 0.06808,0.04392 z m 9.732083,-0.04392 c 0.0398,-0.05076 0.03867,-0.05188 -0.01208,-0.01208 -0.0533,0.0418 -0.07026,0.06808 -0.04392,0.06808 0.0066,0 0.03184,-0.0252 0.056,-0.056 z M 20.544,39.379918 c 0,-0.0066 -0.0252,-0.03184 -0.056,-0.056 -0.05075,-0.0398 -0.05188,-0.03867 -0.01208,0.01208 0.0418,0.0533 0.06808,0.07026 0.06808,0.04392 z m 10.180083,-0.04392 c 0.0398,-0.05076 0.03867,-0.05189 -0.01208,-0.01208 -0.0308,0.02416 -0.056,0.04936 -0.056,0.056 0,0.02634 0.02628,0.0094 0.06808,-0.04392 z M 20.416,39.219918 c 0,-0.0066 -0.0252,-0.03184 -0.056,-0.056 -0.05075,-0.0398 -0.05188,-0.03867 -0.01208,0.01208 0.0418,0.0533 0.06808,0.07026 0.06808,0.04392 z m 10.436083,-0.04392 c 0.0398,-0.05076 0.03867,-0.05188 -0.01208,-0.01208 -0.0308,0.02416 -0.056,0.04936 -0.056,0.056 0,0.02634 0.02628,0.0094 0.06808,-0.04392 z M 20.32,39.091918 c 0,-0.0066 -0.0252,-0.03184 -0.056,-0.056 -0.05075,-0.0398 -0.05188,-0.03867 -0.01208,0.01208 0.0418,0.0533 0.06808,0.07026 0.06808,0.04392 z m 10.628083,-0.04392 c 0.0398,-0.05076 0.03867,-0.05188 -0.01208,-0.01208 -0.0533,0.0418 -0.07026,0.06808 -0.04392,0.06808 0.0066,0 0.03184,-0.0252 0.056,-0.056 z M 20.192,38.931918 c 0,-0.0066 -0.0252,-0.03184 -0.056,-0.056 -0.05075,-0.0398 -0.05188,-0.03867 -0.01208,0.01208 0.0418,0.0533 0.06808,0.07026 0.06808,0.04392 z m 10.884083,-0.04392 c 0.0398,-0.05076 0.03867,-0.05189 -0.01208,-0.01208 -0.0533,0.0418 -0.07026,0.06808 -0.04392,0.06808 0.0066,0 0.03184,-0.0252 0.056,-0.056 z M 19.968,38.643918 c 0,-0.0066 -0.0252,-0.03184 -0.056,-0.056 -0.05075,-0.0398 -0.05188,-0.03867 -0.01208,0.01208 0.0418,0.0533 0.06808,0.07026 0.06808,0.04392 z m 11.332083,-0.04392 c 0.0398,-0.05076 0.03867,-0.05188 -0.01208,-0.01208 -0.0533,0.0418 -0.07026,0.06808 -0.04392,0.06808 0.0066,0 0.03184,-0.0252 0.056,-0.056 z M 19.84,38.483918 c 0,-0.0066 -0.0252,-0.03184 -0.056,-0.056 -0.05075,-0.0398 -0.05188,-0.03867 -0.01208,0.01208 0.0418,0.0533 0.06808,0.07026 0.06808,0.04392 z m 11.588083,-0.04392 c 0.0398,-0.05076 0.03867,-0.05189 -0.01208,-0.01208 -0.0533,0.0418 -0.07026,0.06808 -0.04392,0.06808 0.0066,0 0.03184,-0.0252 0.056,-0.056 z M 19.744,38.355918 c 0,-0.0066 -0.0252,-0.03184 -0.056,-0.056 -0.05075,-0.0398 -0.05188,-0.03867 -0.01208,0.01208 0.0418,0.0533 0.06808,0.07026 0.06808,0.04392 z m 11.780083,-0.04392 c 0.0398,-0.05076 0.03867,-0.05189 -0.01208,-0.01208 -0.0533,0.0418 -0.07026,0.06808 -0.04392,0.06808 0.0066,0 0.03184,-0.0252 0.056,-0.056 z M 19.616,38.195918 c 0,-0.0066 -0.0252,-0.03184 -0.056,-0.056 -0.05075,-0.0398 -0.05188,-0.03867 -0.01208,0.01208 0.0418,0.0533 0.06808,0.07026 0.06808,0.04392 z m 12.036083,-0.04392 c 0.0398,-0.05075 0.03867,-0.05188 -0.01208,-0.01208 -0.0533,0.0418 -0.07026,0.06808 -0.04392,0.06808 0.0066,0 0.03184,-0.0252 0.056,-0.056 z M 19.392,37.907918 c 0,-0.0066 -0.0252,-0.03184 -0.056,-0.056 -0.05075,-0.0398 -0.05188,-0.03867 -0.01208,0.01208 0.0418,0.0533 0.06808,0.07026 0.06808,0.04392 z m 12.484083,-0.04392 c 0.0398,-0.05076 0.03867,-0.05188 -0.01208,-0.01208 -0.0533,0.0418 -0.07026,0.06808 -0.04392,0.06808 0.0066,0 0.03184,-0.0252 0.056,-0.056 z M 19.264,37.747918 c 0,-0.0066 -0.0252,-0.03184 -0.056,-0.056 -0.05075,-0.0398 -0.05188,-0.03867 -0.01208,0.01208 0.0418,0.0533 0.06808,0.07026 0.06808,0.04392 z m 12.740084,-0.04392 c 0.0398,-0.05075 0.03867,-0.05188 -0.01208,-0.01208 -0.0533,0.0418 -0.07026,0.06808 -0.04392,0.06808 0.0066,0 0.03184,-0.0252 0.056,-0.056 z M 19.168,37.619918 c 0,-0.0066 -0.0252,-0.03184 -0.056,-0.056 -0.05075,-0.0398 -0.05188,-0.03867 -0.01208,0.01208 0.0418,0.0533 0.06808,0.07026 0.06808,0.04392 z m 12.932084,-0.04392 c 0.0398,-0.05075 0.03867,-0.05188 -0.01208,-0.01208 -0.0308,0.02416 -0.056,0.04936 -0.056,0.056 0,0.02634 0.02628,0.0094 0.06808,-0.04392 z M 19.04,37.459918 c 0,-0.0066 -0.0252,-0.03184 -0.056,-0.056 -0.05075,-0.0398 -0.05189,-0.03867 -0.01208,0.01208 0.0418,0.0533 0.06808,0.07026 0.06808,0.04392 z m 13.188084,-0.04392 c 0.0398,-0.05076 0.03867,-0.05188 -0.01208,-0.01208 -0.0533,0.0418 -0.07026,0.06808 -0.04392,0.06808 0.0066,0 0.03184,-0.0252 0.056,-0.056 z M 18.816,37.171918 c 0,-0.0066 -0.0252,-0.03184 -0.056,-0.056 -0.05075,-0.0398 -0.05189,-0.03867 -0.01208,0.01208 0.0418,0.0533 0.06808,0.07026 0.06808,0.04392 z m 13.636084,-0.04392 c 0.0398,-0.05075 0.03867,-0.05188 -0.01208,-0.01208 -0.0533,0.0418 -0.07026,0.06808 -0.04392,0.06808 0.0066,0 0.03184,-0.0252 0.056,-0.056 z M 18.688,37.011918 c 0,-0.0066 -0.0252,-0.03184 -0.056,-0.056 -0.05075,-0.0398 -0.05189,-0.03867 -0.01208,0.01208 0.0418,0.0533 0.06808,0.07026 0.06808,0.04392 z m 13.892084,-0.04392 c 0.0398,-0.05076 0.03867,-0.05188 -0.01208,-0.01208 -0.0533,0.0418 -0.07026,0.06808 -0.04392,0.06808 0.0066,0 0.03184,-0.0252 0.056,-0.056 z M 18.464,36.723918 c 0,-0.0066 -0.0252,-0.03184 -0.056,-0.056 -0.05075,-0.0398 -0.05189,-0.03867 -0.01208,0.01208 0.0418,0.0533 0.06808,0.07026 0.06808,0.04392 z m 14.340084,-0.04392 c 0.0398,-0.05075 0.03867,-0.05188 -0.01208,-0.01208 -0.0533,0.0418 -0.07026,0.06808 -0.04392,0.06808 0.0066,0 0.03184,-0.0252 0.056,-0.056 z M 18.24,36.435918 c 0,-0.0066 -0.0252,-0.03184 -0.056,-0.056 -0.05075,-0.0398 -0.05189,-0.03867 -0.01208,0.01208 0.0418,0.0533 0.06808,0.07026 0.06808,0.04392 z m 14.788084,-0.04392 c 0.0398,-0.05076 0.03867,-0.05188 -0.01208,-0.01208 -0.0308,0.02416 -0.056,0.04936 -0.056,0.056 0,0.02634 0.02628,0.0094 0.06808,-0.04392 z M 18.112,36.275918 c 0,-0.0066 -0.0252,-0.03184 -0.056,-0.056 -0.05075,-0.0398 -0.05189,-0.03867 -0.01208,0.01208 0.0418,0.0533 0.06808,0.07026 0.06808,0.04392 z m 15.044084,-0.04392 c 0.0398,-0.05075 0.03867,-0.05188 -0.01208,-0.01208 -0.0533,0.0418 -0.07026,0.06808 -0.04392,0.06808 0.0066,0 0.03184,-0.0252 0.056,-0.056 z M 18.016,36.147918 c 0,-0.0066 -0.0252,-0.03184 -0.056,-0.056 -0.05075,-0.0398 -0.05189,-0.03867 -0.01208,0.01208 0.0418,0.0533 0.06808,0.07026 0.06808,0.04392 z m 15.236084,-0.04392 c 0.0398,-0.05075 0.03867,-0.05188 -0.01208,-0.01208 -0.0533,0.0418 -0.07026,0.06808 -0.04392,0.06808 0.0066,0 0.03184,-0.0252 0.056,-0.056 z M 17.888,35.987918 c 0,-0.0066 -0.0252,-0.03184 -0.056,-0.056 -0.05075,-0.0398 -0.05189,-0.03867 -0.01208,0.01208 0.0418,0.0533 0.06808,0.07026 0.06808,0.04392 z m 15.492084,-0.04392 c 0.0398,-0.05076 0.03867,-0.05188 -0.01208,-0.01208 -0.0533,0.0418 -0.07026,0.06808 -0.04392,0.06808 0.0066,0 0.03184,-0.0252 0.056,-0.056 z M 17.664,35.699917 c 0,-0.0066 -0.0252,-0.03184 -0.056,-0.056 -0.05075,-0.0398 -0.05189,-0.03867 -0.01208,0.01208 0.0418,0.0533 0.06808,0.07026 0.06808,0.04392 z m 15.940084,-0.04392 c 0.0398,-0.05076 0.03867,-0.05189 -0.01208,-0.01208 -0.0533,0.0418 -0.07026,0.06808 -0.04392,0.06808 0.0066,0 0.03184,-0.0252 0.056,-0.056 z M 17.536,35.539917 c 0,-0.0066 -0.0252,-0.03184 -0.056,-0.056 -0.05075,-0.0398 -0.05189,-0.03867 -0.01208,0.01208 0.0418,0.0533 0.06808,0.07026 0.06808,0.04392 z m 16.196084,-0.04392 c 0.0398,-0.05076 0.03867,-0.05188 -0.01208,-0.01208 -0.0533,0.04181 -0.07026,0.06808 -0.04392,0.06808 0.0066,0 0.03184,-0.0252 0.056,-0.056 z M 17.44,35.411917 c 0,-0.0066 -0.0252,-0.03184 -0.056,-0.056 -0.05075,-0.0398 -0.05188,-0.03867 -0.01208,0.01208 0.0418,0.0533 0.06808,0.07026 0.06808,0.04392 z m 16.388084,-0.04392 c 0.0398,-0.05076 0.03867,-0.05188 -0.01208,-0.01208 -0.0533,0.04181 -0.07026,0.06808 -0.04392,0.06808 0.0066,0 0.03184,-0.0252 0.056,-0.056 z M 17.312,35.251917 c 0,-0.0066 -0.0252,-0.03184 -0.056,-0.056 -0.05075,-0.0398 -0.05188,-0.03867 -0.01208,0.01208 0.0418,0.0533 0.06808,0.07026 0.06808,0.04392 z m 16.644084,-0.04392 c 0.0398,-0.05076 0.03867,-0.05189 -0.01208,-0.01208 -0.0533,0.0418 -0.07026,0.06808 -0.04392,0.06808 0.0066,0 0.03184,-0.0252 0.056,-0.056 z M 17.088,34.963917 c 0,-0.0066 -0.0252,-0.03184 -0.056,-0.056 -0.05075,-0.0398 -0.05188,-0.03867 -0.01208,0.01208 0.0418,0.0533 0.06808,0.07026 0.06808,0.04392 z m 17.092084,-0.04392 c 0.0398,-0.05076 0.03867,-0.05188 -0.01208,-0.01208 -0.0533,0.04181 -0.07026,0.06808 -0.04392,0.06808 0.0066,0 0.03184,-0.0252 0.056,-0.056 z M 16.96,34.803917 c 0,-0.0066 -0.0252,-0.03184 -0.056,-0.056 -0.05075,-0.0398 -0.05188,-0.03867 -0.01208,0.01208 0.0418,0.0533 0.06808,0.07026 0.06808,0.04392 z m 17.348084,-0.04392 c 0.0398,-0.05076 0.03867,-0.05189 -0.01208,-0.01208 -0.0533,0.0418 -0.07026,0.06808 -0.04392,0.06808 0.0066,0 0.03184,-0.0252 0.056,-0.056 z M 16.864,34.675917 c 0,-0.0066 -0.0252,-0.03184 -0.056,-0.056 -0.05075,-0.0398 -0.05188,-0.03867 -0.01208,0.01208 0.0418,0.0533 0.06808,0.07026 0.06808,0.04392 z m 17.540084,-0.04392 c 0.0398,-0.05076 0.03867,-0.05189 -0.01208,-0.01208 -0.0533,0.0418 -0.07026,0.06808 -0.04392,0.06808 0.0066,0 0.03184,-0.0252 0.056,-0.056 z M 16.736,34.515917 c 0,-0.0066 -0.0252,-0.03184 -0.056,-0.056 -0.05075,-0.0398 -0.05188,-0.03867 -0.01208,0.01208 0.0418,0.0533 0.06808,0.07026 0.06808,0.04392 z m 17.796084,-0.04392 c 0.0398,-0.05076 0.03867,-0.05188 -0.01208,-0.01208 -0.0533,0.04181 -0.07026,0.06808 -0.04392,0.06808 0.0066,0 0.03184,-0.0252 0.056,-0.056 z M 16.512,34.227917 c 0,-0.0066 -0.0252,-0.03184 -0.056,-0.056 -0.05075,-0.0398 -0.05188,-0.03867 -0.01208,0.01208 0.0418,0.0533 0.06808,0.07026 0.06808,0.04392 z m 18.244084,-0.04392 c 0.0398,-0.05076 0.03867,-0.05188 -0.01208,-0.01208 -0.0533,0.0418 -0.07026,0.06808 -0.04392,0.06808 0.0066,0 0.03184,-0.0252 0.056,-0.056 z M 16.384,34.067917 c 0,-0.0066 -0.0252,-0.03184 -0.056,-0.056 -0.05075,-0.0398 -0.05188,-0.03867 -0.01208,0.01208 0.0418,0.0533 0.06808,0.07026 0.06808,0.04392 z m 18.500084,-0.04392 c 0.0398,-0.05076 0.03867,-0.05188 -0.01208,-0.01208 -0.0533,0.04181 -0.07026,0.06808 -0.04392,0.06808 0.0066,0 0.03184,-0.0252 0.056,-0.056 z M 16.288,33.939917 c 0,-0.0066 -0.0252,-0.03184 -0.056,-0.056 -0.05075,-0.0398 -0.05188,-0.03867 -0.01208,0.01208 0.0418,0.0533 0.06808,0.07026 0.06808,0.04392 z m 18.692084,-0.04392 c 0.0398,-0.05076 0.03867,-0.05188 -0.01208,-0.01208 -0.0533,0.04181 -0.07026,0.06808 -0.04392,0.06808 0.0066,0 0.03184,-0.0252 0.056,-0.056 z M 16.16,33.779917 c 0,-0.0066 -0.0252,-0.03184 -0.056,-0.056 -0.05075,-0.0398 -0.05188,-0.03867 -0.01208,0.01208 0.0418,0.0533 0.06808,0.07026 0.06808,0.04392 z m 18.948084,-0.04392 c 0.0398,-0.05076 0.03867,-0.05188 -0.01208,-0.01208 -0.0533,0.0418 -0.07026,0.06808 -0.04392,0.06808 0.0066,0 0.03184,-0.0252 0.056,-0.056 z M 15.936,33.491917 c 0,-0.0066 -0.0252,-0.03184 -0.056,-0.056 -0.05075,-0.0398 -0.05189,-0.03867 -0.01208,0.01208 0.0418,0.0533 0.06808,0.07026 0.06808,0.04392 z m 19.396084,-0.04392 c 0.0398,-0.05076 0.03867,-0.05188 -0.01208,-0.01208 -0.0533,0.0418 -0.07026,0.06808 -0.04392,0.06808 0.0066,0 0.03184,-0.0252 0.056,-0.056 z M 15.808,33.331917 c 0,-0.0066 -0.0252,-0.03184 -0.056,-0.056 -0.05075,-0.0398 -0.05189,-0.03867 -0.01208,0.01208 0.0418,0.0533 0.06808,0.07026 0.06808,0.04392 z m 19.652084,-0.04392 c 0.0398,-0.05076 0.03867,-0.05188 -0.01208,-0.01208 -0.0533,0.04181 -0.07026,0.06808 -0.04392,0.06808 0.0066,0 0.03184,-0.0252 0.056,-0.056 z M 15.712,33.203917 c 0,-0.0066 -0.0252,-0.03184 -0.056,-0.056 -0.05075,-0.0398 -0.05189,-0.03867 -0.01208,0.01208 0.0418,0.0533 0.06808,0.07026 0.06808,0.04392 z m 19.844084,-0.04392 c 0.0398,-0.05076 0.03867,-0.05188 -0.01208,-0.01208 -0.0533,0.04181 -0.07026,0.06808 -0.04392,0.06808 0.0066,0 0.03184,-0.0252 0.056,-0.056 z M 15.584,33.043917 c 0,-0.0066 -0.0252,-0.03184 -0.056,-0.056 -0.05075,-0.0398 -0.05189,-0.03867 -0.01208,0.01208 0.0418,0.0533 0.06808,0.07026 0.06808,0.04392 z m 20.100084,-0.04392 c 0.0398,-0.05076 0.03867,-0.05188 -0.01208,-0.01208 -0.0533,0.0418 -0.07026,0.06808 -0.04392,0.06808 0.0066,0 0.03184,-0.0252 0.056,-0.056 z M 15.36,32.755917 c 0,-0.0066 -0.0252,-0.03184 -0.056,-0.056 -0.05075,-0.0398 -0.05189,-0.03867 -0.01208,0.01208 0.0418,0.0533 0.06808,0.07026 0.06808,0.04392 z m 20.548084,-0.04392 c 0.0398,-0.05076 0.03867,-0.05188 -0.01208,-0.01208 -0.0308,0.02416 -0.056,0.04936 -0.056,0.056 0,0.02634 0.02628,0.0094 0.06808,-0.04392 z M 15.232,32.595917 c 0,-0.0066 -0.0252,-0.03184 -0.056,-0.056 -0.05075,-0.0398 -0.05189,-0.03867 -0.01208,0.01208 0.0418,0.0533 0.06808,0.07026 0.06808,0.04392 z m 20.804084,-0.04392 c 0.0398,-0.05076 0.03867,-0.05188 -0.01208,-0.01208 -0.0308,0.02416 -0.056,0.04936 -0.056,0.056 0,0.02634 0.02628,0.0094 0.06808,-0.04392 z M 15.136,32.467917 c 0,-0.0066 -0.0252,-0.03184 -0.056,-0.056 -0.05075,-0.0398 -0.05189,-0.03867 -0.01208,0.01208 0.0418,0.0533 0.06808,0.07026 0.06808,0.04392 z m 20.996084,-0.04392 c 0.0398,-0.05076 0.03867,-0.05188 -0.01208,-0.01208 -0.0308,0.02416 -0.056,0.04936 -0.056,0.056 0,0.02634 0.02628,0.0094 0.06808,-0.04392 z M 15.008,32.307917 c 0,-0.0066 -0.0252,-0.03184 -0.056,-0.056 -0.05075,-0.0398 -0.05189,-0.03867 -0.01208,0.01208 0.0418,0.0533 0.06808,0.07026 0.06808,0.04392 z m 21.252084,-0.04392 c 0.0398,-0.05076 0.03867,-0.05188 -0.01208,-0.01208 -0.0308,0.02416 -0.056,0.04936 -0.056,0.056 0,0.02634 0.02628,0.0094 0.06808,-0.04392 z M 14.784,32.019917 c 0,-0.0066 -0.0252,-0.03184 -0.056,-0.056 -0.05075,-0.0398 -0.05189,-0.03867 -0.01208,0.01208 0.0418,0.0533 0.06808,0.07026 0.06808,0.04392 z m 21.700084,-0.04392 c 0.0398,-0.05075 0.03867,-0.05189 -0.01208,-0.01208 -0.0308,0.02416 -0.056,0.04936 -0.056,0.056 0,0.02634 0.02628,0.0094 0.06808,-0.04392 z M 14.656,31.859919 c 0,-0.0066 -0.0252,-0.03185 -0.056,-0.056 -0.05075,-0.0398 -0.05189,-0.03867 -0.01208,0.01208 0.0418,0.0533 0.06808,0.07025 0.06808,0.04392 z m 21.956084,-0.04392 c 0.0398,-0.05075 0.03867,-0.05189 -0.01208,-0.01208 -0.0533,0.0418 -0.07026,0.06808 -0.04392,0.06808 0.0066,0 0.03184,-0.0252 0.056,-0.056 z M 14.56,31.731919 c 0,-0.0066 -0.0252,-0.03185 -0.056,-0.056 -0.05075,-0.0398 -0.05189,-0.03867 -0.01208,0.01208 0.0418,0.0533 0.06808,0.07025 0.06808,0.04392 z m 22.148084,-0.04392 c 0.0398,-0.05075 0.03867,-0.05189 -0.01208,-0.01208 -0.0533,0.0418 -0.07026,0.06808 -0.04392,0.06808 0.0066,0 0.03184,-0.0252 0.056,-0.056 z M 14.432,31.571919 c 0,-0.0066 -0.0252,-0.03185 -0.056,-0.056 -0.05075,-0.0398 -0.05188,-0.03867 -0.01208,0.01208 0.0418,0.0533 0.06808,0.07025 0.06808,0.04392 z m 22.404084,-0.04392 c 0.0398,-0.05075 0.03867,-0.05189 -0.01208,-0.01208 -0.0308,0.02416 -0.056,0.04935 -0.056,0.056 0,0.02634 0.02628,0.0094 0.06808,-0.04392 z M 14.208,31.283919 c 0,-0.0066 -0.0252,-0.03185 -0.056,-0.056 -0.05075,-0.0398 -0.05188,-0.03867 -0.01208,0.01208 0.0418,0.0533 0.06808,0.07025 0.06808,0.04392 z m 22.852084,-0.04392 c 0.0398,-0.05075 0.03867,-0.05189 -0.01208,-0.01208 -0.0533,0.0418 -0.07026,0.06808 -0.04392,0.06808 0.0066,0 0.03184,-0.0252 0.056,-0.056 z M 14.08,31.123919 c 0,-0.0066 -0.0252,-0.03185 -0.056,-0.056 -0.05075,-0.0398 -0.05188,-0.03867 -0.01208,0.01208 0.0418,0.0533 0.06808,0.07025 0.06808,0.04392 z m 23.108084,-0.04392 c 0.0398,-0.05075 0.03867,-0.05189 -0.01208,-0.01208 -0.0308,0.02416 -0.056,0.04935 -0.056,0.056 0,0.02634 0.02628,0.0094 0.06808,-0.04392 z M 13.984,30.995919 c 0,-0.0066 -0.0252,-0.03185 -0.056,-0.056 -0.05075,-0.0398 -0.05189,-0.03867 -0.01208,0.01208 0.0418,0.0533 0.06808,0.07025 0.06808,0.04392 z m 23.300084,-0.04392 c 0.0398,-0.05075 0.03867,-0.05189 -0.01208,-0.01208 -0.0308,0.02416 -0.056,0.04936 -0.056,0.056 0,0.02634 0.02628,0.0094 0.06808,-0.04392 z M 13.856,30.835919 c 0,-0.0066 -0.0252,-0.03185 -0.056,-0.056 -0.05075,-0.0398 -0.05189,-0.03867 -0.01208,0.01208 0.0418,0.0533 0.06808,0.07025 0.06808,0.04392 z m 23.556084,-0.04392 c 0.0398,-0.05075 0.03867,-0.05189 -0.01208,-0.01208 -0.0308,0.02416 -0.056,0.04936 -0.056,0.056 0,0.02634 0.02628,0.0094 0.06808,-0.04392 z M 13.632,30.547919 c 0,-0.0066 -0.0252,-0.03185 -0.056,-0.056 -0.05075,-0.0398 -0.05189,-0.03867 -0.01208,0.01208 0.0418,0.0533 0.06808,0.07025 0.06808,0.04392 z m 24.004084,-0.04392 c 0.0398,-0.05075 0.03867,-0.05189 -0.01208,-0.01208 -0.0308,0.02416 -0.056,0.04936 -0.056,0.056 0,0.02634 0.02628,0.0094 0.06808,-0.04392 z M 13.504,30.387919 c 0,-0.0066 -0.0252,-0.03185 -0.056,-0.056 -0.05075,-0.0398 -0.05189,-0.03867 -0.01208,0.01208 0.0418,0.0533 0.06808,0.07026 0.06808,0.04392 z m 24.260084,-0.04392 c 0.0398,-0.05075 0.03867,-0.05189 -0.01208,-0.01208 -0.0308,0.02416 -0.056,0.04936 -0.056,0.056 0,0.02634 0.02628,0.0094 0.06808,-0.04392 z m 0.096,-0.128 c 0.0398,-0.05075 0.03867,-0.05189 -0.01208,-0.01208 -0.0308,0.02416 -0.056,0.04936 -0.056,0.056 0,0.02634 0.02628,0.0094 0.06808,-0.04392 z M 13.28,30.099919 c 0,-0.0066 -0.0252,-0.03185 -0.056,-0.056 -0.05075,-0.0398 -0.05189,-0.03867 -0.01208,0.01208 0.0418,0.0533 0.06808,0.07026 0.06808,0.04392 z m 24.708084,-0.04392 c 0.0398,-0.05075 0.03867,-0.05189 -0.01208,-0.01208 -0.0533,0.0418 -0.07026,0.06808 -0.04392,0.06808 0.0066,0 0.03184,-0.0252 0.056,-0.056 z M 13.152,29.939919 c 0,-0.0066 -0.0252,-0.03185 -0.056,-0.056 -0.05075,-0.0398 -0.05189,-0.03867 -0.01208,0.01208 0.0418,0.0533 0.06808,0.07026 0.06808,0.04392 z m 24.964084,-0.04392 c 0.0398,-0.05075 0.03867,-0.05189 -0.01208,-0.01208 -0.0533,0.0418 -0.07026,0.06808 -0.04392,0.06808 0.0066,0 0.03184,-0.0252 0.056,-0.056 z M 13.056,29.811919 c 0,-0.0066 -0.0252,-0.03185 -0.056,-0.056 -0.05075,-0.0398 -0.05189,-0.03867 -0.01208,0.01208 0.0418,0.0533 0.06808,0.07025 0.06808,0.04392 z m 25.156084,-0.04392 c 0.0398,-0.05075 0.03867,-0.05189 -0.01208,-0.01208 -0.0308,0.02416 -0.056,0.04936 -0.056,0.056 0,0.02634 0.02628,0.0094 0.06808,-0.04392 z M 12.928,29.651919 c 0,-0.0066 -0.0252,-0.03185 -0.056,-0.056 -0.05075,-0.0398 -0.05189,-0.03867 -0.01208,0.01208 0.0418,0.0533 0.06808,0.07025 0.06808,0.04392 z m 25.412084,-0.04392 c 0.0398,-0.05075 0.03867,-0.05189 -0.01208,-0.01208 -0.0308,0.02416 -0.056,0.04936 -0.056,0.056 0,0.02634 0.02628,0.0094 0.06808,-0.04392 z m 0.096,-0.128 c 0.0398,-0.05075 0.03867,-0.05189 -0.01208,-0.01208 -0.0533,0.0418 -0.07026,0.06808 -0.04392,0.06808 0.0066,0 0.03184,-0.0252 0.056,-0.056 z M 12.704,29.363919 c 0,-0.0066 -0.0252,-0.03185 -0.056,-0.056 -0.05075,-0.0398 -0.05189,-0.03867 -0.01208,0.01208 0.0418,0.0533 0.06808,0.07025 0.06808,0.04392 z m 25.860084,-0.04392 c 0.0398,-0.05075 0.03867,-0.05189 -0.01208,-0.01208 -0.0308,0.02416 -0.056,0.04936 -0.056,0.056 0,0.02634 0.02628,0.0094 0.06808,-0.04392 z M 12.48,29.075919 c 0,-0.0066 -0.0252,-0.03185 -0.056,-0.056 -0.05075,-0.0398 -0.05189,-0.03867 -0.01208,0.01208 0.0418,0.0533 0.06808,0.07025 0.06808,0.04392 z m 26.308084,-0.04392 c 0.0398,-0.05075 0.03867,-0.05189 -0.01208,-0.01208 -0.0308,0.02415 -0.056,0.04935 -0.056,0.056 0,0.02634 0.02628,0.0094 0.06808,-0.04392 z M 12.352,28.915919 c 0,-0.0066 -0.0252,-0.03185 -0.056,-0.056 -0.05075,-0.0398 -0.05189,-0.03867 -0.01208,0.01208 0.0418,0.0533 0.06808,0.07025 0.06808,0.04392 z m 26.564084,-0.04392 c 0.0398,-0.05075 0.03867,-0.05189 -0.01208,-0.01208 -0.0308,0.02415 -0.056,0.04935 -0.056,0.056 0,0.02634 0.02628,0.0094 0.06808,-0.04392 z M 12.128,28.627919 c 0,-0.0066 -0.0252,-0.03184 -0.056,-0.056 -0.05075,-0.0398 -0.05189,-0.03867 -0.01208,0.01208 0.0418,0.0533 0.06808,0.07025 0.06808,0.04392 z m 27.012084,-0.04392 c 0.0398,-0.05075 0.03867,-0.05189 -0.01208,-0.01208 -0.0308,0.02416 -0.056,0.04935 -0.056,0.056 0,0.02634 0.02628,0.0094 0.06808,-0.04392 z M 11.904,28.339919 c 0,-0.0066 -0.0252,-0.03184 -0.056,-0.056 -0.05075,-0.0398 -0.05189,-0.03867 -0.01208,0.01208 0.0418,0.0533 0.06808,0.07025 0.06808,0.04392 z m 27.460084,-0.04392 c 0.0398,-0.05075 0.03867,-0.05189 -0.01208,-0.01208 -0.0308,0.02416 -0.056,0.04935 -0.056,0.056 0,0.02634 0.02628,0.0094 0.06808,-0.04392 z M 11.776,28.179919 c 0,-0.0066 -0.0252,-0.03185 -0.056,-0.056 -0.05075,-0.0398 -0.05189,-0.03867 -0.01208,0.01208 0.0418,0.0533 0.06808,0.07025 0.06808,0.04392 z m 27.716084,-0.04392 c 0.0398,-0.05075 0.03867,-0.05189 -0.01208,-0.01208 -0.0308,0.02416 -0.056,0.04935 -0.056,0.056 0,0.02634 0.02628,0.0094 0.06808,-0.04392 z M 11.552,27.891919 c 0,-0.0066 -0.0252,-0.03185 -0.056,-0.056 -0.05075,-0.0398 -0.05189,-0.03867 -0.01208,0.01208 0.0418,0.0533 0.06808,0.07025 0.06808,0.04392 z m 28.164084,-0.04392 c 0.0398,-0.05075 0.03867,-0.05189 -0.01208,-0.01208 -0.0533,0.0418 -0.07026,0.06808 -0.04392,0.06808 0.0066,0 0.03184,-0.0252 0.056,-0.056 z M 11.328,27.603919 c 0,-0.0066 -0.0252,-0.03185 -0.056,-0.056 -0.05075,-0.0398 -0.05189,-0.03867 -0.01208,0.01208 0.0418,0.0533 0.06808,0.07025 0.06808,0.04392 z m 28.612084,-0.04392 c 0.0398,-0.05075 0.03867,-0.05189 -0.01208,-0.01208 -0.0308,0.02416 -0.056,0.04935 -0.056,0.056 0,0.02634 0.02628,0.0094 0.06808,-0.04392 z M 11.2,27.443919 c 0,-0.0066 -0.0252,-0.03185 -0.056,-0.056 -0.05075,-0.0398 -0.05189,-0.03867 -0.01208,0.01208 0.0418,0.0533 0.06808,0.07025 0.06808,0.04392 z m 28.868084,-0.04392 c 0.0398,-0.05075 0.03867,-0.05189 -0.01208,-0.01208 -0.0308,0.02416 -0.056,0.04935 -0.056,0.056 0,0.02634 0.02628,0.0094 0.06808,-0.04392 z M 10.976,27.155919 c 0,-0.0066 -0.0252,-0.03185 -0.056,-0.056 -0.05075,-0.0398 -0.05189,-0.03867 -0.01208,0.01208 0.0418,0.0533 0.06808,0.07025 0.06808,0.04392 z m 29.316084,-0.04392 c 0.0398,-0.05075 0.03867,-0.05189 -0.01208,-0.01208 -0.0308,0.02416 -0.056,0.04935 -0.056,0.056 0,0.02634 0.02628,0.0094 0.06808,-0.04392 z M 10.752,26.867919 c 0,-0.0066 -0.0252,-0.03185 -0.056,-0.056 -0.05075,-0.0398 -0.05189,-0.03867 -0.01208,0.01208 0.0418,0.0533 0.06808,0.07025 0.06808,0.04392 z m 29.764084,-0.04392 c 0.0398,-0.05075 0.03867,-0.05189 -0.01208,-0.01208 -0.0308,0.02416 -0.056,0.04936 -0.056,0.056 0,0.02634 0.02628,0.0094 0.06808,-0.04392 z M 10.624,26.707919 c 0,-0.0066 -0.0252,-0.03185 -0.056,-0.056 -0.05075,-0.0398 -0.05189,-0.03867 -0.01208,0.01208 0.0418,0.0533 0.06808,0.07025 0.06808,0.04392 z m 30.020084,-0.04392 c 0.0398,-0.05075 0.03867,-0.05189 -0.01208,-0.01208 -0.0308,0.02416 -0.056,0.04936 -0.056,0.056 0,0.02634 0.02628,0.0094 0.06808,-0.04392 z M 10.4,26.419919 c 0,-0.0066 -0.0252,-0.03185 -0.056,-0.056 -0.05075,-0.0398 -0.05189,-0.03867 -0.01208,0.01208 0.0418,0.0533 0.06808,0.07026 0.06808,0.04392 z m 30.468084,-0.04392 c 0.0398,-0.05075 0.03867,-0.05189 -0.01208,-0.01208 -0.0308,0.02416 -0.056,0.04936 -0.056,0.056 0,0.02634 0.02628,0.0094 0.06808,-0.04392 z M 10.176,26.131919 c 0,-0.0066 -0.0252,-0.03185 -0.056,-0.056 -0.05075,-0.0398 -0.05189,-0.03867 -0.01208,0.01208 0.0418,0.0533 0.06808,0.07026 0.06808,0.04392 z m 30.916084,-0.04392 c 0.0398,-0.05075 0.03867,-0.05189 -0.01208,-0.01208 -0.0533,0.0418 -0.07026,0.06808 -0.04392,0.06808 0.0066,0 0.03184,-0.0252 0.056,-0.056 z M 10.048,25.971919 c 0,-0.0066 -0.0252,-0.03185 -0.056,-0.056 -0.050754,-0.0398 -0.051886,-0.03867 -0.012082,0.01208 0.041804,0.0533 0.068082,0.07026 0.068082,0.04392 z m 31.172084,-0.04392 c 0.0398,-0.05075 0.03867,-0.05189 -0.01208,-0.01208 -0.0308,0.02416 -0.056,0.04936 -0.056,0.056 0,0.02634 0.02628,0.0094 0.06808,-0.04392 z M 9.8240002,25.683919 c 0,-0.0066 -0.0252,-0.03185 -0.056,-0.056 -0.050754,-0.0398 -0.051886,-0.03867 -0.012082,0.01208 0.041804,0.0533 0.068082,0.07025 0.068082,0.04392 z m 31.6200838,-0.04392 c 0.0398,-0.05075 0.03867,-0.05189 -0.01208,-0.01208 -0.0533,0.0418 -0.07026,0.06808 -0.04392,0.06808 0.0066,0 0.03184,-0.0252 0.056,-0.056 z M 9.6000002,25.395919 c 0,-0.0066 -0.0252,-0.03185 -0.056,-0.056 -0.050754,-0.0398 -0.051886,-0.03867 -0.012082,0.01208 0.041804,0.0533 0.068082,0.07026 0.068082,0.04392 z M 41.668084,25.352 c 0.0398,-0.05075 0.03867,-0.05188 -0.01208,-0.01208 -0.0308,0.02416 -0.056,0.04936 -0.056,0.056 0,0.02634 0.02628,0.0094 0.06808,-0.04392 z M 9.4720002,25.235919 c 0,-0.0066 -0.0252,-0.03185 -0.056,-0.056 -0.050754,-0.0398 -0.051886,-0.03867 -0.012082,0.01208 0.041804,0.0533 0.068082,0.07026 0.068082,0.04392 z M 41.796084,25.192 c 0.0398,-0.05075 0.03867,-0.05188 -0.01208,-0.01208 -0.0308,0.02415 -0.056,0.04935 -0.056,0.056 0,0.02634 0.02628,0.0094 0.06808,-0.04392 z M 9.2480002,24.947919 c 0,-0.0066 -0.0252,-0.03185 -0.056,-0.056 -0.050754,-0.0398 -0.051886,-0.03867 -0.012082,0.01208 0.041804,0.0533 0.068082,0.07026 0.068082,0.04392 z M 42.020084,24.904 c 0.0398,-0.05075 0.03867,-0.05188 -0.01208,-0.01208 -0.0308,0.02415 -0.056,0.04935 -0.056,0.056 0,0.02634 0.02628,0.0094 0.06808,-0.04392 z M 9.0240002,24.659919 c 0,-0.0066 -0.0252,-0.03184 -0.056,-0.056 -0.050754,-0.0398 -0.051886,-0.03867 -0.012082,0.01208 0.041804,0.0533 0.068082,0.07026 0.068082,0.04392 z M 42.244084,24.616 c 0.0398,-0.05075 0.03867,-0.05188 -0.01208,-0.01208 -0.0308,0.02416 -0.056,0.04935 -0.056,0.056 0,0.02634 0.02628,0.0094 0.06808,-0.04392 z M 8.8960002,24.499919 c 0,-0.0066 -0.0252,-0.03184 -0.056,-0.056 -0.050754,-0.0398 -0.051886,-0.03867 -0.012082,0.01208 0.041804,0.0533 0.068082,0.07026 0.068082,0.04392 z M 42.372084,24.456 c 0.0398,-0.05075 0.03867,-0.05188 -0.01208,-0.01208 -0.0308,0.02416 -0.056,0.04935 -0.056,0.056 0,0.02634 0.02628,0.0094 0.06808,-0.04392 z M 8.6720002,24.211919 c 0,-0.0066 -0.0252,-0.03185 -0.056,-0.056 -0.050754,-0.0398 -0.051886,-0.03867 -0.012082,0.01208 0.041804,0.0533 0.068082,0.07026 0.068082,0.04392 z M 42.596084,24.168 c 0.0398,-0.05075 0.03867,-0.05188 -0.01208,-0.01208 -0.0308,0.02416 -0.056,0.04935 -0.056,0.056 0,0.02634 0.02628,0.0094 0.06808,-0.04392 z M 8.5440002,24.051919 c 0,-0.0066 -0.0252,-0.03185 -0.056,-0.056 -0.050754,-0.0398 -0.051886,-0.03867 -0.012082,0.01208 0.041804,0.0533 0.068082,0.07026 0.068082,0.04392 z m -0.096,-0.128 c 0,-0.0066 -0.0252,-0.03185 -0.056,-0.056 -0.050754,-0.0398 -0.051886,-0.03867 -0.012082,0.01208 0.041804,0.0533 0.068082,0.07026 0.068082,0.04392 z M 42.820084,23.88 c 0.0398,-0.05075 0.03867,-0.05188 -0.01208,-0.01208 -0.0533,0.0418 -0.07026,0.06808 -0.04392,0.06808 0.0066,0 0.03184,-0.0252 0.056,-0.056 z M 8.3200002,23.763919 c 0,-0.0066 -0.0252,-0.03185 -0.056,-0.056 -0.050754,-0.0398 -0.051886,-0.03867 -0.012082,0.01208 0.041804,0.0533 0.068082,0.07026 0.068082,0.04392 z M 42.948084,23.72 c 0.0398,-0.05075 0.03867,-0.05188 -0.01208,-0.01208 -0.0308,0.02416 -0.056,0.04935 -0.056,0.056 0,0.02634 0.02628,0.0094 0.06808,-0.04392 z M 8.0960002,23.475919 c 0,-0.0066 -0.0252,-0.03185 -0.056,-0.056 -0.050754,-0.0398 -0.051886,-0.03867 -0.012082,0.01208 0.041804,0.0533 0.068082,0.07026 0.068082,0.04392 z M 43.172084,23.432 c 0.0398,-0.05075 0.03867,-0.05188 -0.01208,-0.01208 -0.0533,0.0418 -0.07026,0.06808 -0.04392,0.06808 0.0066,0 0.03184,-0.0252 0.056,-0.056 z M 7.9680002,23.315919 c 0,-0.0066 -0.0252,-0.03185 -0.056,-0.056 -0.050754,-0.0398 -0.051886,-0.03867 -0.012082,0.01208 0.041804,0.0533 0.068082,0.07026 0.068082,0.04392 z m -0.096,-0.128 c 0,-0.0066 -0.0252,-0.03185 -0.056,-0.056 -0.050754,-0.0398 -0.051886,-0.03867 -0.012082,0.01208 0.041804,0.0533 0.068082,0.07026 0.068082,0.04392 z M 43.396084,23.144 c 0.0398,-0.05075 0.03867,-0.05188 -0.01208,-0.01208 -0.0308,0.02416 -0.056,0.04935 -0.056,0.056 0,0.02634 0.02628,0.0094 0.06808,-0.04392 z M 7.7440002,23.027919 c 0,-0.0066 -0.0252,-0.03185 -0.056,-0.056 -0.050754,-0.0398 -0.051886,-0.03867 -0.012082,0.01208 0.041804,0.0533 0.068082,0.07026 0.068082,0.04392 z M 43.524084,22.984 c 0.0398,-0.05075 0.03867,-0.05189 -0.01208,-0.01208 -0.0308,0.02416 -0.056,0.04935 -0.056,0.056 0,0.02634 0.02628,0.0094 0.06808,-0.04392 z M 7.5200001,22.739919 c 0,-0.0066 -0.0252,-0.03185 -0.056,-0.056 -0.050754,-0.0398 -0.051886,-0.03867 -0.012082,0.01208 0.041804,0.0533 0.068082,0.07026 0.068082,0.04392 z M 43.748084,22.696 c 0.0398,-0.05075 0.03867,-0.05189 -0.01208,-0.01208 -0.0308,0.02416 -0.056,0.04936 -0.056,0.056 0,0.02634 0.02628,0.0094 0.06808,-0.04392 z M 7.3920001,22.579919 c 0,-0.0066 -0.0252,-0.03185 -0.056,-0.056 -0.050754,-0.0398 -0.051886,-0.03867 -0.012082,0.01208 0.041804,0.0533 0.068082,0.07026 0.068082,0.04392 z M 43.876084,22.536 c 0.0398,-0.05075 0.03867,-0.05189 -0.01208,-0.01208 -0.0533,0.0418 -0.07026,0.06808 -0.04392,0.06808 0.0066,0 0.03184,-0.0252 0.056,-0.056 z M 7.2960001,22.451919 c 0,-0.0066 -0.0252,-0.03185 -0.056,-0.056 -0.050754,-0.0398 -0.051886,-0.03867 -0.012082,0.01208 0.041804,0.0533 0.068082,0.07026 0.068082,0.04392 z M 43.972084,22.408 c 0.0398,-0.05075 0.03867,-0.05189 -0.01208,-0.01208 -0.0533,0.0418 -0.07026,0.06808 -0.04392,0.06808 0.0066,0 0.03184,-0.0252 0.056,-0.056 z M 7.1680001,22.291919 c 0,-0.0066 -0.0252,-0.03185 -0.056,-0.056 -0.050754,-0.0398 -0.051886,-0.03867 -0.012082,0.01208 0.041804,0.0533 0.068082,0.07026 0.068082,0.04392 z M 44.100084,22.248 c 0.0398,-0.05075 0.03867,-0.05189 -0.01208,-0.01208 -0.0308,0.02416 -0.056,0.04936 -0.056,0.056 0,0.02634 0.02628,0.0094 0.06808,-0.04392 z M 6.9440001,22.003919 c 0,-0.0066 -0.0252,-0.03185 -0.056,-0.056 -0.050754,-0.0398 -0.051886,-0.03867 -0.012082,0.01208 0.041804,0.0533 0.068082,0.07026 0.068082,0.04392 z M 44.324084,21.96 c 0.0398,-0.05075 0.03867,-0.05189 -0.01208,-0.01208 -0.0308,0.02416 -0.056,0.04936 -0.056,0.056 0,0.02634 0.02628,0.0094 0.06808,-0.04392 z M 6.8160001,21.843919 c 0,-0.0066 -0.0252,-0.03185 -0.056,-0.056 -0.050754,-0.0398 -0.051886,-0.03867 -0.012082,0.01208 0.041804,0.0533 0.068082,0.07026 0.068082,0.04392 z M 44.452084,21.8 c 0.0398,-0.05075 0.03867,-0.05189 -0.01208,-0.01208 -0.0533,0.0418 -0.07026,0.06808 -0.04392,0.06808 0.0066,0 0.03184,-0.0252 0.056,-0.056 z M 6.7200001,21.715919 c 0,-0.0066 -0.0252,-0.03185 -0.056,-0.056 -0.050754,-0.0398 -0.051886,-0.03867 -0.012082,0.01208 0.041804,0.0533 0.068082,0.07026 0.068082,0.04392 z M 44.548084,21.672 c 0.0398,-0.05075 0.03867,-0.05189 -0.01208,-0.01208 -0.0533,0.0418 -0.07026,0.06808 -0.04392,0.06808 0.0066,0 0.03184,-0.0252 0.056,-0.056 z M 6.5920001,21.555919 c 0,-0.0066 -0.0252,-0.03185 -0.056,-0.056 -0.050754,-0.0398 -0.051886,-0.03867 -0.012082,0.01208 0.041804,0.0533 0.068082,0.07026 0.068082,0.04392 z M 44.676084,21.512 c 0.0398,-0.05075 0.03867,-0.05189 -0.01208,-0.01208 -0.0308,0.02416 -0.056,0.04936 -0.056,0.056 0,0.02634 0.02628,0.0094 0.06808,-0.04392 z"
       id="path264"
       inkscape:connector-curvature="0" />
    <path
       style="fill:#ffa726;fill-opacity:1;stroke-width:0.032"
       d="m 25.564211,45.802666 c -0.0021,-0.01467 -0.0031,-0.03438 -0.0023,-0.04381 8.26e-4,-0.0094 -0.02271,-0.01714 -0.0523,-0.01714 -0.05772,0 -22.2755089,-15.85275 -22.276835,-15.894878 -0.00106,-0.03379 3.1402526,-8.416549 3.1649319,-8.445785 0.010654,-0.01262 0.72404,0.877531 1.5853021,1.978115 0.8612621,1.100585 1.5805709,2.010111 1.5984641,2.02117 0.017893,0.01106 -0.034716,-0.06549 -0.1169085,-0.170116 C 9.3823899,25.1256 8.661532,24.205076 7.8626763,23.184613 L 6.4102104,21.329225 9.0557839,13.392613 C 10.510849,9.0274757 11.708558,5.4344001 11.717358,5.4080001 c 0.0088,-0.0264 1.215973,3.5520001 2.682606,7.9519999 l 2.666607,8 H 25.6 34.133431 l 2.666605,-8 c 1.466634,-4.3999998 2.673808,-7.9783999 2.682608,-7.9519999 0.0088,0.0264 1.206528,3.6195393 2.661619,7.9847539 l 2.645623,7.936754 -0.876573,1.119246 c -0.482115,0.615586 -0.943795,1.204846 -1.025952,1.309468 -0.08216,0.104622 -0.134714,0.181156 -0.116787,0.170076 0.01793,-0.01108 0.478025,-0.589418 1.022438,-1.285195 0.544413,-0.695778 0.998643,-1.254712 1.009405,-1.242077 0.03432,0.0403 3.177658,8.453614 3.163328,8.466817 -0.129235,0.119089 -22.237468,15.873873 -22.275347,15.873873 -0.0296,0 -0.05125,0.01311 -0.04811,0.02914 0.0031,0.01603 -0.01228,0.03574 -0.03428,0.04381 -0.022,0.0081 -0.04171,0.0027 -0.04379,-0.012 z M 25.40162,45.592001 c -0.06055,-0.0748 -1.949356,-2.4868 -4.197349,-5.36 -2.247993,-2.8732 -4.095522,-5.224 -4.10562,-5.224 -0.0101,0 0.03118,0.0612 0.09173,0.136 0.06055,0.0748 1.949357,2.4868 4.19735,5.36 2.247993,2.8732 4.095522,5.224 4.10562,5.224 0.0101,0 -0.03118,-0.0612 -0.09173,-0.136 z m 0.681534,-0.328 c 0.106215,-0.1408 0.1485,-0.2056 0.09397,-0.144 -0.05453,0.0616 -0.186057,0.2272 -0.292273,0.368 -0.106215,0.1408 -0.1485,0.2056 -0.09397,0.144 0.05454,-0.0616 0.186057,-0.2272 0.292273,-0.368 z m 0.576,-0.736 c 0.106215,-0.1408 0.1485,-0.2056 0.09397,-0.144 -0.05453,0.0616 -0.186057,0.2272 -0.292273,0.368 -0.106215,0.1408 -0.1485,0.2056 -0.09397,0.144 0.05454,-0.0616 0.186057,-0.2272 0.292273,-0.368 z m 4.305117,-5.496 c 2.247992,-2.8732 4.136802,-5.2852 4.197349,-5.36 0.06055,-0.0748 0.101827,-0.136 0.09173,-0.136 -0.0101,0 -1.857629,2.3508 -4.105621,5.224 -2.247993,2.8732 -4.1368,5.2852 -4.197349,5.36 -0.06055,0.0748 -0.101828,0.136 -0.09173,0.136 0.0101,0 1.857627,-2.3508 4.10562,-5.224 z m -14.065995,-4.304 c -0.105733,-0.1364 -0.237217,-0.2984 -0.292186,-0.36 -0.05497,-0.0616 -0.02357,-0.0112 0.06978,0.112 0.234684,0.309737 0.385364,0.496 0.401247,0.496 0.0074,0 -0.0731,-0.1116 -0.178838,-0.248 z m -0.576,-0.736 c -0.105733,-0.1364 -0.237217,-0.2984 -0.292186,-0.36 -0.05497,-0.0616 -0.02357,-0.0112 0.06978,0.112 0.234684,0.309737 0.385364,0.496 0.401247,0.496 0.0074,0 -0.0731,-0.1116 -0.178838,-0.248 z m -0.488377,-0.624 c -0.0604,-0.0748 -0.315132,-0.3988 -0.56608,-0.72 -0.250948,-0.3212 -0.4647,-0.584 -0.475004,-0.584 -0.0103,0 0.003,0.0252 0.02963,0.056 0.0266,0.0308 0.281699,0.3548 0.566891,0.72 0.285192,0.3652 0.526596,0.664 0.536455,0.664 0.0099,0 -0.03149,-0.0612 -0.09189,-0.136 z m 19.97677,-0.528 c 0.285194,-0.3652 0.540295,-0.6892 0.56689,-0.72 0.0266,-0.0308 0.03993,-0.056 0.02963,-0.056 -0.0103,0 -0.224055,0.2628 -0.475002,0.584 -0.250947,0.3212 -0.505683,0.6452 -0.56608,0.72 -0.0604,0.0748 -0.101747,0.136 -0.09189,0.136 0.0099,0 0.251264,-0.2988 0.536454,-0.664 z m -21.216393,-1.056 c -0.105733,-0.1364 -0.237217,-0.2984 -0.292186,-0.36 -0.05497,-0.0616 -0.02357,-0.0112 0.06978,0.112 0.234684,0.309737 0.385364,0.496 0.401247,0.496 0.0074,0 -0.0731,-0.1116 -0.178838,-0.248 z m 22.208877,-0.216 c 0.106217,-0.1408 0.148502,-0.2056 0.09397,-0.144 -0.05454,0.0616 -0.186058,0.2272 -0.292272,0.368 -0.106218,0.1408 -0.148503,0.2056 -0.09397,0.144 0.05453,-0.0616 0.186057,-0.2272 0.292272,-0.368 z m -22.784877,-0.52 c -0.105733,-0.1364 -0.237217,-0.2984 -0.292186,-0.36 -0.05497,-0.0616 -0.02357,-0.0112 0.06978,0.112 0.234684,0.309737 0.385364,0.496 0.401247,0.496 0.0074,0 -0.0731,-0.1116 -0.178838,-0.248 z m 23.360877,-0.216 c 0.106217,-0.1408 0.148502,-0.2056 0.09397,-0.144 -0.05454,0.0616 -0.186058,0.2272 -0.292272,0.368 -0.106218,0.1408 -0.148503,0.2056 -0.09397,0.144 0.05453,-0.0616 0.186057,-0.2272 0.292272,-0.368 z m -23.936877,-0.52 c -0.105733,-0.1364 -0.237217,-0.2984 -0.292186,-0.36 -0.05497,-0.0616 -0.02357,-0.0112 0.06978,0.112 0.234684,0.309737 0.385364,0.496 0.401247,0.496 0.0074,0 -0.0731,-0.1116 -0.178838,-0.248 z m 24.512877,-0.216 c 0.106217,-0.1408 0.148502,-0.2056 0.09397,-0.144 -0.05454,0.0616 -0.186058,0.2272 -0.292272,0.368 -0.106218,0.1408 -0.148503,0.2056 -0.09397,0.144 0.05453,-0.0616 0.186057,-0.2272 0.292272,-0.368 z m -25.088877,-0.52 c -0.105733,-0.1364 -0.237217,-0.2984 -0.292186,-0.36 -0.05497,-0.0616 -0.02357,-0.0112 0.06978,0.112 0.234684,0.309737 0.385364,0.496 0.401247,0.496 0.0074,0 -0.0731,-0.1116 -0.178838,-0.248 z m 25.664877,-0.216 c 0.106217,-0.1408 0.148502,-0.2056 0.09397,-0.144 -0.05454,0.0616 -0.186058,0.2272 -0.292272,0.368 -0.106218,0.1408 -0.148503,0.2056 -0.09397,0.144 0.05453,-0.0616 0.186057,-0.2272 0.292272,-0.368 z m -26.240877,-0.52 c -0.105733,-0.1364 -0.237217,-0.2984 -0.292186,-0.36 -0.05497,-0.0616 -0.02357,-0.0112 0.06978,0.112 0.234684,0.309737 0.385364,0.496 0.401247,0.496 0.0074,0 -0.0731,-0.1116 -0.178838,-0.248 z m 26.816877,-0.216 c 0.106217,-0.1408 0.148502,-0.2056 0.09397,-0.144 -0.05454,0.0616 -0.186058,0.2272 -0.292272,0.368 -0.106218,0.1408 -0.148503,0.2056 -0.09397,0.144 0.05453,-0.0616 0.186057,-0.2272 0.292272,-0.368 z m -27.392877,-0.52 c -0.105733,-0.1364 -0.237217,-0.2984 -0.292186,-0.36 -0.05497,-0.0616 -0.02357,-0.0112 0.06978,0.112 0.234684,0.309737 0.385364,0.496 0.401247,0.496 0.0074,0 -0.0731,-0.1116 -0.178838,-0.248 z m 27.968877,-0.216 c 0.106217,-0.1408 0.148502,-0.2056 0.09397,-0.144 -0.05454,0.0616 -0.186058,0.2272 -0.292272,0.368 -0.106218,0.1408 -0.148503,0.2056 -0.09397,0.144 0.05453,-0.0616 0.186057,-0.2272 0.292272,-0.368 z m -28.544877,-0.52 c -0.105733,-0.1364 -0.237217,-0.2984 -0.292187,-0.36 -0.05497,-0.0616 -0.02357,-0.0112 0.06978,0.112 0.234684,0.309736 0.385364,0.496 0.401247,0.496 0.0074,0 -0.0731,-0.1116 -0.178838,-0.248 z m 29.120877,-0.216 c 0.106217,-0.1408 0.148502,-0.2056 0.09397,-0.144 -0.05454,0.0616 -0.186058,0.2272 -0.292272,0.368 -0.106218,0.1408 -0.148503,0.2056 -0.09397,0.144 0.05453,-0.0616 0.186057,-0.2272 0.292272,-0.368 z m -29.696877,-0.52 c -0.105733,-0.1364 -0.237217,-0.2984 -0.292187,-0.36 -0.05497,-0.0616 -0.02357,-0.0112 0.06978,0.112 0.234684,0.309736 0.385364,0.496 0.401247,0.496 0.0074,0 -0.0731,-0.1116 -0.178838,-0.248 z m 30.272877,-0.216 c 0.106217,-0.1408 0.148502,-0.2056 0.09397,-0.144 -0.05454,0.0616 -0.186058,0.2272 -0.292272,0.368 -0.106218,0.1408 -0.148503,0.2056 -0.09397,0.144 0.05453,-0.0616 0.186057,-0.2272 0.292272,-0.368 z m -30.8488766,-0.52 C 9.8805432,25.759601 9.7490591,25.5976 9.6940895,25.536 c -0.05497,-0.0616 -0.02357,-0.0112 0.069777,0.112001 0.2346841,0.309736 0.3853645,0.496 0.4012475,0.496 0.0074,0 -0.0731,-0.1116 -0.1788376,-0.248 z m 31.4248766,-0.216 C 41.51737,25.5392 41.559655,25.4744 41.505121,25.536 c -0.05454,0.0616 -0.186058,0.227201 -0.292272,0.368001 -0.106218,0.1408 -0.148503,0.2056 -0.09397,0.144 0.05453,-0.0616 0.186057,-0.2272 0.292272,-0.368 z m 0.576,-0.736001 c 0.106217,-0.1408 0.148502,-0.2056 0.09397,-0.144 -0.05454,0.0616 -0.186058,0.2272 -0.292272,0.368 -0.106218,0.1408 -0.148503,0.2056 -0.09397,0.144 0.05453,-0.0616 0.186057,-0.2272 0.292272,-0.368 z m 0.576,-0.736 c 0.106217,-0.1408 0.148502,-0.2056 0.09397,-0.144 -0.05453,0.0616 -0.186058,0.2272 -0.292272,0.368 -0.106218,0.1408 -0.148503,0.2056 -0.09397,0.144 0.05453,-0.0616 0.186057,-0.2272 0.292272,-0.368 z"
       id="path262"
       inkscape:connector-curvature="0" />
    <path
       style="fill:#ff7043;fill-opacity:1;stroke-width:0.032"
       d="m 25.568,45.742113 c 0,-0.02744 -0.0124,-0.04222 -0.02756,-0.03286 -0.01516,0.0094 -0.283988,-0.310182 -0.597395,-0.710112 C 16.659529,34.428797 6.4320001,21.338195 6.4320001,21.306158 c 0,-0.02324 1.1928074,-3.620633 2.6506826,-7.994206 L 11.733366,5.3600001 14.399968,13.36 l 2.666603,8 H 25.6 34.133431 l 2.666602,-8 2.666601,-7.9999999 2.650685,7.9519519 c 1.457875,4.373573 2.650682,7.97083 2.650682,7.993903 0,0.03455 -5.063773,6.516501 -17.647049,22.589352 -0.788498,1.007162 -1.44608,1.823514 -1.461292,1.814112 -0.01521,-0.0094 -0.02766,0.0054 -0.02766,0.03279 0,0.02744 -0.0144,0.04989 -0.032,0.04989 -0.0176,0 -0.032,-0.02245 -0.032,-0.04989 z m -0.06009,-0.163712 c -0.03772,-0.06487 -0.04683,-0.04411 -0.01595,0.03636 0.01097,0.0286 0.02669,0.04526 0.03493,0.03702 0.0082,-0.0082 -2.88e-4,-0.04126 -0.01898,-0.07338 z m 0.219113,-0.0264 c 0,-0.0176 -0.01396,-0.0104 -0.03102,0.016 -0.01706,0.0264 -0.03102,0.0624 -0.03102,0.08 0,0.0176 0.01396,0.0104 0.03102,-0.016 0.01706,-0.0264 0.03102,-0.0624 0.03102,-0.08 z m -0.475113,-0.7096 c -0.03772,-0.06487 -0.04683,-0.04411 -0.01595,0.03636 0.01097,0.0286 0.02669,0.04526 0.03493,0.03702 0.0082,-0.0082 -2.88e-4,-0.04126 -0.01898,-0.07338 z m 0.731113,-0.0264 c 0,-0.0176 -0.01396,-0.0104 -0.03102,0.016 -0.01706,0.0264 -0.03102,0.0624 -0.03102,0.08 0,0.0176 0.01396,0.0104 0.03102,-0.016 0.01706,-0.0264 0.03102,-0.0624 0.03102,-0.08 z m -0.987113,-0.7096 c -0.03772,-0.06487 -0.04683,-0.04411 -0.01595,0.03636 0.01097,0.0286 0.02669,0.04526 0.03493,0.03702 0.0082,-0.0082 -2.88e-4,-0.04126 -0.01898,-0.07338 z m 1.243113,-0.0264 c 0,-0.0176 -0.01396,-0.0104 -0.03102,0.016 -0.01706,0.0264 -0.03102,0.0624 -0.03102,0.08 0,0.0176 0.01396,0.0104 0.03102,-0.016 0.01706,-0.0264 0.03102,-0.0624 0.03102,-0.08 z m -1.499113,-0.7096 c -0.03772,-0.06487 -0.04683,-0.04411 -0.01595,0.03636 0.01097,0.0286 0.02669,0.04526 0.03493,0.03702 0.0082,-0.0082 -2.88e-4,-0.04126 -0.01898,-0.07338 z m 1.755113,-0.0264 c 0,-0.0176 -0.01396,-0.0104 -0.03102,0.016 -0.01706,0.0264 -0.03102,0.0624 -0.03102,0.08 0,0.0176 0.01396,0.0104 0.03102,-0.016 0.01706,-0.0264 0.03102,-0.0624 0.03102,-0.08 z m -2.011113,-0.7096 c -0.03772,-0.06487 -0.04683,-0.04411 -0.01595,0.03636 0.01097,0.0286 0.02669,0.04526 0.03493,0.03702 0.0082,-0.0082 -2.88e-4,-0.04126 -0.01898,-0.07338 z m 2.267113,-0.0264 c 0,-0.0176 -0.01396,-0.0104 -0.03102,0.016 -0.01706,0.0264 -0.03102,0.0624 -0.03102,0.08 0,0.0176 0.01396,0.0104 0.03102,-0.016 0.01706,-0.0264 0.03102,-0.0624 0.03102,-0.08 z m -2.523113,-0.7096 c -0.03772,-0.06487 -0.04683,-0.04411 -0.01595,0.03636 0.01097,0.0286 0.02669,0.04526 0.03493,0.03702 0.0082,-0.0082 -2.88e-4,-0.04126 -0.01898,-0.07338 z m 2.779113,-0.0264 c 0,-0.0176 -0.01396,-0.0104 -0.03102,0.016 -0.01706,0.0264 -0.03102,0.0624 -0.03102,0.08 0,0.0176 0.01396,0.0104 0.03102,-0.016 0.01706,-0.0264 0.03102,-0.0624 0.03102,-0.08 z m -3.035113,-0.7096 c -0.03772,-0.06487 -0.04683,-0.04411 -0.01595,0.03636 0.01097,0.0286 0.02669,0.04526 0.03493,0.03702 0.0082,-0.0082 -2.88e-4,-0.04126 -0.01898,-0.07338 z m 3.291113,-0.0264 c 0,-0.0176 -0.01396,-0.0104 -0.03102,0.016 -0.01706,0.0264 -0.03102,0.0624 -0.03102,0.08 0,0.0176 0.01396,0.0104 0.03102,-0.016 0.01706,-0.0264 0.03102,-0.0624 0.03102,-0.08 z m -3.547113,-0.7096 c -0.03772,-0.06487 -0.04683,-0.04411 -0.01595,0.03636 0.01097,0.0286 0.02669,0.04526 0.03493,0.03702 0.0082,-0.0082 -2.88e-4,-0.04126 -0.01898,-0.07338 z m 3.803113,-0.0264 c 0,-0.0176 -0.01396,-0.0104 -0.03102,0.016 -0.01706,0.0264 -0.03102,0.0624 -0.03102,0.08 0,0.0176 0.01396,0.0104 0.03102,-0.016 0.01706,-0.0264 0.03102,-0.0624 0.03102,-0.08 z m -4.059113,-0.7096 c -0.03772,-0.06487 -0.04683,-0.04411 -0.01595,0.03636 0.01097,0.0286 0.02669,0.04526 0.03493,0.03702 0.0082,-0.0082 -2.88e-4,-0.04126 -0.01898,-0.07338 z m 4.315113,-0.0264 c 0,-0.0176 -0.01396,-0.0104 -0.03102,0.016 -0.01706,0.0264 -0.03102,0.0624 -0.03102,0.08 0,0.0176 0.01396,0.0104 0.03102,-0.016 0.01706,-0.0264 0.03102,-0.0624 0.03102,-0.08 z m -4.571113,-0.7096 c -0.03772,-0.06487 -0.04683,-0.04411 -0.01595,0.03636 0.01097,0.0286 0.02669,0.04526 0.03493,0.03702 0.0082,-0.0082 -2.88e-4,-0.04126 -0.01898,-0.07338 z m 4.827113,-0.0264 c 0,-0.0176 -0.01396,-0.0104 -0.03102,0.016 -0.01706,0.0264 -0.03102,0.0624 -0.03102,0.08 0,0.0176 0.01396,0.0104 0.03102,-0.016 0.01706,-0.0264 0.03102,-0.0624 0.03102,-0.08 z m -5.083113,-0.7096 c -0.03772,-0.06487 -0.04683,-0.04411 -0.01595,0.03636 0.01097,0.0286 0.02669,0.04526 0.03493,0.03702 0.0082,-0.0082 -2.88e-4,-0.04126 -0.01898,-0.07338 z m 5.339113,-0.0264 c 0,-0.0176 -0.01396,-0.0104 -0.03102,0.016 -0.01706,0.0264 -0.03102,0.0624 -0.03102,0.08 0,0.0176 0.01396,0.0104 0.03102,-0.016 0.01706,-0.0264 0.03102,-0.0624 0.03102,-0.08 z m -5.595113,-0.7096 c -0.03772,-0.06487 -0.04683,-0.04411 -0.01595,0.03636 0.01097,0.0286 0.02669,0.04526 0.03493,0.03702 0.0082,-0.0082 -2.88e-4,-0.04126 -0.01898,-0.07338 z m 5.851113,-0.0264 c 0,-0.0176 -0.01396,-0.0104 -0.03102,0.016 -0.01706,0.0264 -0.03102,0.0624 -0.03102,0.08 0,0.0176 0.01396,0.0104 0.03102,-0.016 0.01706,-0.0264 0.03102,-0.0624 0.03102,-0.08 z m -6.107113,-0.7096 c -0.03772,-0.06487 -0.04683,-0.04411 -0.01595,0.03636 0.01097,0.0286 0.02669,0.04526 0.03493,0.03702 0.0082,-0.0082 -2.88e-4,-0.04126 -0.01898,-0.07338 z m 6.363113,-0.0264 c 0,-0.0176 -0.01396,-0.0104 -0.03102,0.016 -0.01706,0.0264 -0.03102,0.0624 -0.03102,0.08 0,0.0176 0.01396,0.0104 0.03102,-0.016 0.01706,-0.0264 0.03102,-0.0624 0.03102,-0.08 z m -6.619113,-0.7096 c -0.03772,-0.06487 -0.04683,-0.04411 -0.01595,0.03636 0.01097,0.0286 0.02669,0.04526 0.03493,0.03702 0.0082,-0.0082 -2.88e-4,-0.04126 -0.01898,-0.07338 z m 6.875113,-0.0264 c 0,-0.0176 -0.01396,-0.0104 -0.03102,0.016 -0.01706,0.0264 -0.03102,0.0624 -0.03102,0.08 0,0.0176 0.01396,0.0104 0.03102,-0.016 0.01706,-0.0264 0.03102,-0.0624 0.03102,-0.08 z m -7.131113,-0.7096 c -0.03772,-0.06487 -0.04683,-0.04411 -0.01595,0.03636 0.01097,0.0286 0.02669,0.04526 0.03493,0.03702 0.0082,-0.0082 -2.88e-4,-0.04126 -0.01898,-0.07338 z m 7.387113,-0.0264 c 0,-0.0176 -0.01396,-0.0104 -0.03102,0.016 -0.01706,0.0264 -0.03102,0.0624 -0.03102,0.08 0,0.0176 0.01396,0.0104 0.03102,-0.016 0.01706,-0.0264 0.03102,-0.0624 0.03102,-0.08 z m -7.643113,-0.7096 c -0.03772,-0.06487 -0.04683,-0.04411 -0.01595,0.03636 0.01097,0.0286 0.02669,0.04526 0.03493,0.03702 0.0082,-0.0082 -2.88e-4,-0.04126 -0.01898,-0.07338 z m 7.899113,-0.0264 c 0,-0.0176 -0.01396,-0.0104 -0.03102,0.016 -0.01706,0.0264 -0.03102,0.0624 -0.03102,0.08 0,0.0176 0.01396,0.0104 0.03102,-0.016 0.01706,-0.0264 0.03102,-0.0624 0.03102,-0.08 z m -8.155113,-0.7096 c -0.03772,-0.06487 -0.04683,-0.04411 -0.01595,0.03636 0.01097,0.0286 0.02669,0.04526 0.03493,0.03702 0.0082,-0.0082 -2.88e-4,-0.04126 -0.01898,-0.07338 z m 8.411113,-0.0264 c 0,-0.0176 -0.01396,-0.0104 -0.03102,0.016 -0.01706,0.0264 -0.03102,0.0624 -0.03102,0.08 0,0.0176 0.01396,0.0104 0.03102,-0.016 0.01706,-0.0264 0.03102,-0.0624 0.03102,-0.08 z m -8.667113,-0.7096 c -0.03772,-0.06487 -0.04683,-0.04411 -0.01595,0.03636 0.01097,0.0286 0.02669,0.04526 0.03493,0.03702 0.0082,-0.0082 -2.88e-4,-0.04126 -0.01898,-0.07338 z m 8.923113,-0.0264 c 0,-0.0176 -0.01396,-0.0104 -0.03102,0.016 -0.01706,0.0264 -0.03102,0.0624 -0.03102,0.08 0,0.0176 0.01396,0.0104 0.03102,-0.016 0.01706,-0.0264 0.03102,-0.0624 0.03102,-0.08 z m -9.179113,-0.7096 c -0.03772,-0.06487 -0.04683,-0.04411 -0.01595,0.03636 0.01097,0.0286 0.02669,0.04526 0.03493,0.03702 0.0082,-0.0082 -2.88e-4,-0.04126 -0.01898,-0.07338 z m 9.435113,-0.0264 c 0,-0.0176 -0.01396,-0.0104 -0.03102,0.016 -0.01706,0.0264 -0.03102,0.0624 -0.03102,0.08 0,0.0176 0.01396,0.0104 0.03102,-0.016 0.01706,-0.0264 0.03102,-0.0624 0.03102,-0.08 z m -9.691113,-0.7096 c -0.03772,-0.06487 -0.04683,-0.04411 -0.01595,0.03636 0.01097,0.0286 0.02669,0.04526 0.03493,0.03702 0.0082,-0.0082 -2.88e-4,-0.04126 -0.01898,-0.07338 z m 9.947113,-0.0264 c 0,-0.0176 -0.01396,-0.0104 -0.03102,0.016 -0.01706,0.0264 -0.03102,0.0624 -0.03102,0.08 0,0.0176 0.01396,0.0104 0.03102,-0.016 0.01706,-0.0264 0.03102,-0.0624 0.03102,-0.08 z m -10.203113,-0.7096 c -0.03772,-0.06487 -0.04683,-0.04411 -0.01595,0.03636 0.01097,0.0286 0.02669,0.04526 0.03493,0.03702 0.0082,-0.0082 -2.88e-4,-0.04126 -0.01898,-0.07338 z m 10.459113,-0.0264 c 0,-0.0176 -0.01396,-0.0104 -0.03102,0.016 -0.01706,0.0264 -0.03102,0.0624 -0.03102,0.08 0,0.0176 0.01396,0.0104 0.03102,-0.016 0.01706,-0.0264 0.03102,-0.0624 0.03102,-0.08 z m 0.256,-0.736 c 0,-0.0176 -0.01396,-0.0104 -0.03102,0.016 -0.01706,0.0264 -0.03102,0.0624 -0.03102,0.08 0,0.0176 0.01396,0.0104 0.03102,-0.016 0.01706,-0.0264 0.03102,-0.0624 0.03102,-0.08 z m 0.256,-0.736 c 0,-0.0176 -0.01396,-0.0104 -0.03102,0.016 -0.01706,0.0264 -0.03102,0.0624 -0.03102,0.08 0,0.0176 0.01396,0.0104 0.03102,-0.016 0.01706,-0.0264 0.03102,-0.0624 0.03102,-0.08 z m 0.512,-1.472 c 0,-0.0176 -0.01396,-0.0104 -0.03102,0.016 -0.01706,0.0264 -0.03102,0.0624 -0.03102,0.08 0,0.0176 0.01396,0.0104 0.03102,-0.016 0.01706,-0.0264 0.03102,-0.0624 0.03102,-0.08 z m 0.256001,-0.736 c 0,-0.0176 -0.01396,-0.0104 -0.03102,0.016 -0.01706,0.0264 -0.03102,0.0624 -0.03102,0.08 0,0.0176 0.01396,0.0104 0.03102,-0.016 0.01706,-0.0264 0.03102,-0.0624 0.03102,-0.08 z m 0.256,-0.736 c 0,-0.0176 -0.01396,-0.0104 -0.03102,0.016 -0.01706,0.0264 -0.03102,0.0624 -0.03102,0.08 0,0.0176 0.01396,0.0104 0.03102,-0.016 0.01706,-0.0264 0.03102,-0.0624 0.03102,-0.08 z"
       id="path260"
       inkscape:connector-curvature="0" />
    <path
       style="fill:#8c8c8c;fill-opacity:1;stroke-width:0.032"
       d="M 21.346883,33.607841 C 19.016468,26.906729 17.103327,21.406 17.095459,21.384 c -0.01142,-0.03194 1.703167,-0.04 8.504541,-0.04 6.80146,0 8.515933,0.0081 8.504385,0.04 -0.008,0.022 -1.921098,5.522742 -4.251425,12.223869 -2.330328,6.70113 -4.244159,12.18386 -4.25296,12.183844 -0.0088,-1.6e-5 -1.922703,-5.482759 -4.253117,-12.183872 z M 6.4320001,21.287952 c 0,-0.01323 1.1928,-3.602416 2.6506666,-7.975976 L 11.733334,5.3600484 14.392016,13.336024 17.050699,21.312 H 11.74135 c -2.9201428,0 -5.3093499,-0.01082 -5.3093499,-0.02405 z m 30.3759849,-7.951928 2.658681,-7.9759756 2.650669,7.9519276 c 1.457866,4.37356 2.650666,7.96275 2.650666,7.975976 0,0.01323 -2.389207,0.02405 -5.309351,0.02405 h -5.309347 z"
       id="path258"
       inkscape:connector-curvature="0" />
    <path
       style="fill:#838383;fill-opacity:1;stroke-width:0.032"
       d="M 21.347468,33.607482 C 19.017375,26.906568 17.104235,21.406 17.096044,21.384 c -0.01189,-0.03194 1.702118,-0.04 8.503199,-0.04 5.542417,0 8.514364,0.01094 8.507423,0.03133 -0.463808,1.362109 -8.495902,24.415635 -8.506666,24.415638 -0.0088,0 -1.922439,-5.482566 -4.252532,-12.183482 z M 6.4320001,21.287952 c 0,-0.01323 1.1928,-3.602416 2.6506666,-7.975976 L 11.733334,5.3600484 14.392016,13.336024 17.050699,21.312 H 11.74135 c -2.9201428,0 -5.3093499,-0.01082 -5.3093499,-0.02405 z m 30.3759849,-7.951928 2.658681,-7.9759756 2.650669,7.9519276 c 1.457866,4.37356 2.650666,7.96275 2.650666,7.975976 0,0.01323 -2.389207,0.02405 -5.309351,0.02405 h -5.309347 z"
       id="path256"
       inkscape:connector-curvature="0" />
    <path
       style="fill:#7a7a7a;fill-opacity:1;stroke-width:0.032"
       d="M 21.349853,33.603517 C 19.023813,26.91745 17.111794,21.42385 17.100922,21.395517 17.08278,21.348241 17.782429,21.344 25.6,21.344 c 7.922557,0 8.517421,0.0037 8.498474,0.0531 -0.01121,0.0292 -1.923296,5.522803 -4.249086,12.208002 -2.32579,6.685197 -4.238084,12.154903 -4.249541,12.154903 -0.01146,0 -1.923955,-5.470419 -4.249994,-12.156484 z M 6.4320209,21.288 c 1.15e-5,-0.0132 1.1916541,-3.598737 2.6480948,-7.967861 l 2.6480733,-7.9438608 2.647906,7.9439328 c 1.456348,4.369164 2.647905,7.954701 2.647905,7.967861 0,0.01316 -2.3832,0.02393 -5.296,0.02393 -2.9127998,0 -5.2959906,-0.0108 -5.2959791,-0.024 z M 36.786577,13.4 c 1.450441,-4.3515998 2.646099,-7.9335999 2.657017,-7.9599999 0.01359,-0.032874 4.789056,14.1889469 5.310762,15.8159999 0.01705,0.05318 -0.249462,0.056 -5.293494,0.056 h -5.31145 z"
       id="path254"
       inkscape:connector-curvature="0" />
    <path
       style="fill:#e53935;fill-opacity:1;stroke-width:0.032"
       d="M 21.339482,33.560001 17.095249,21.36 21.347625,21.3519 c 2.338807,-0.0045 6.165772,-0.0045 8.504368,0 l 4.251992,0.0081 -4.243718,12.200001 c -2.334045,6.71 -4.251106,12.2 -4.260135,12.2 -0.009,0 -1.926322,-5.49 -4.26065,-12.2 z M 6.4456433,21.256 c 0.00988,-0.0308 1.203648,-3.612794 2.6528273,-7.959988 L 11.733342,5.3920244 14.378671,13.328012 C 15.833602,17.692806 17.024,21.274801 17.024,21.288 c 0,0.0132 -2.38417,0.024 -5.298156,0.024 -5.0313706,0 -5.2972525,-0.0028 -5.2802007,-0.056 z m 27.7303577,0.032 c 0,-0.0132 1.190396,-3.595194 2.645328,-7.959988 l 2.645331,-7.9359876 2.63487,7.9039876 c 1.449178,4.347194 2.642951,7.929188 2.652826,7.959988 0.01705,0.05318 -0.248829,0.056 -5.280198,0.056 -2.913988,0 -5.298157,-0.0108 -5.298157,-0.024 z"
       id="path252"
       inkscape:connector-curvature="0" />
  </g>
</svg>
