<?xml version="1.0" encoding="UTF-8" standalone="no"?>
<!-- Created with Inkscape (http://www.inkscape.org/) -->

<svg
   xmlns:dc="http://purl.org/dc/elements/1.1/"
   xmlns:cc="http://creativecommons.org/ns#"
   xmlns:rdf="http://www.w3.org/1999/02/22-rdf-syntax-ns#"
   xmlns:svg="http://www.w3.org/2000/svg"
   xmlns="http://www.w3.org/2000/svg"
   xmlns:sodipodi="http://sodipodi.sourceforge.net/DTD/sodipodi-0.dtd"
   xmlns:inkscape="http://www.inkscape.org/namespaces/inkscape"
   version="1.1"
   id="svg93"
   width="60"
   height="60"
   viewBox="0 0 60 59.999999"
   sodipodi:docname="logo.svg"
   inkscape:version="0.92.1 unknown">
  <metadata
     id="metadata99">
    <rdf:RDF>
      <cc:Work
         rdf:about="">
        <dc:format>image/svg+xml</dc:format>
        <dc:type
           rdf:resource="http://purl.org/dc/dcmitype/StillImage" />
        <dc:title></dc:title>
      </cc:Work>
    </rdf:RDF>
  </metadata>
  <defs
     id="defs97" />
  <sodipodi:namedview
     pagecolor="#ffffff"
     bordercolor="#666666"
     borderopacity="1"
     objecttolerance="10"
     gridtolerance="10"
     guidetolerance="10"
     inkscape:pageopacity="0"
     inkscape:pageshadow="2"
     inkscape:window-width="1024"
     inkscape:window-height="719"
     id="namedview95"
     showgrid="false"
     inkscape:zoom="5.83"
     inkscape:cx="43.679103"
     inkscape:cy="33.587864"
     inkscape:window-x="0"
     inkscape:window-y="0"
     inkscape:window-maximized="1"
     inkscape:current-layer="svg93" />
  <path
     style="fill:#0d47a1;fill-opacity:1;stroke:#0d47a1;stroke-width:0.66635793;stroke-opacity:1"
     d="M 23.189152,58.247157 C 16.293258,55.98573 11.463128,51.725234 8.4060553,45.207487 6.7586033,41.69508 6.6727833,40.967712 6.6727833,30.517204 c 0,-9.253907 0.205465,-11.548784 1.297584,-14.49279 1.991192,-5.367632 6.1209787,-10.1513317 11.0881037,-12.8437937 4.02548,-2.18203399 4.640315,-2.31630199 10.603657,-2.31562199 5.677994,4.99e-4 6.728058,0.20201099 10.188929,1.95381899 4.699797,2.378923 8.662096,6.542954 11.027635,11.5890857 1.701791,3.630248 1.771184,4.221959 1.732832,14.776583 -0.03558,9.78717 -0.20542,11.415541 -1.546348,14.824241 -1.942755,4.938569 -7.091314,10.583993 -11.715961,12.84662 -4.383469,2.144631 -11.89238,2.791346 -16.160063,1.39181 z M 18.54444,43.079443 c 0.800524,-0.420705 3.50714,-2.575062 6.014698,-4.787462 4.402055,-3.883895 4.630779,-3.995528 6.635765,-3.238734 3.220458,1.215592 3.940379,-0.17338 1.698588,-3.277151 -0.623481,-0.863215 -0.444019,-1.515528 0.91663,-3.331792 2.521562,-3.365905 3.73417,-6.060356 4.102449,-9.115751 0.181591,-1.506552 0.65904,-3.353686 1.060994,-4.104743 0.570265,-1.065556 0.531603,-1.365552 -0.176004,-1.365552 -1.485117,0 -3.631877,2.756663 -6.106385,7.841227 -2.474704,5.084969 -4.225942,6.318757 -6.921323,4.87623 C 25.026816,26.17806 23.59341,25.8527 22.584508,25.8527 h -1.83437 l 1.790565,1.868944 c 2.565396,2.6777 2.354144,5.011308 -0.708282,7.824035 -1.374363,1.2623 -2.739036,2.296526 -3.03261,2.29828 -0.556802,0.0035 -2.464843,4.115853 -2.464843,5.312643 0,0.880472 0.414843,0.865984 2.209472,-0.07716 z"
     id="path1161"
     inkscape:connector-curvature="0" />
  <path
     style="opacity:1;fill:#0d47a1;fill-opacity:0;fill-rule:evenodd;stroke:#0d47a1;stroke-width:0;stroke-miterlimit:4;stroke-dasharray:none;stroke-opacity:0"
     d="M 40.797303,56.099528 C 35.912745,55.079298 34.585498,54.635178 28.687148,52.047268 24.968532,50.415718 18.38827,45.255908 14.468982,40.898318 10.479846,36.463069 6.099167,27.885436 4.5341874,21.445395 1.9828681,10.946472 2.5507205,-16.603421 5.5183238,-26.300909 c 1.401431,-4.579575 4.6887732,-11.515469 6.7995952,-14.346321 0.562753,-0.754717 3.263124,-3.603179 6.000822,-6.329917 3.949159,-3.933348 6.289476,-5.584933 11.326725,-7.99338 8.331914,-3.983717 8.898144,-4.101435 19.728166,-4.101435 8.797814,0 11.616903,0.305473 14.751287,1.598431 8.44671,3.484334 12.489296,6.013244 17.465283,10.925708 11.503128,11.3563 15.594792,26.842271 13.768151,52.1091892 -0.959801,13.2764268 -2.136385,18.4574688 -5.944295,26.1756238 -2.622436,5.315334 -4.188055,7.467488 -8.485023,11.663808 -2.898079,2.83019 -6.166463,5.60843 -7.263087,6.17387 -1.096625,0.56543 -2.148233,1.18342 -2.336913,1.3733 -0.577118,0.5808 -4.892024,2.48834 -8.576329,3.79144 -3.046729,1.0776 -11.183737,2.37704 -14.408233,2.30092 -1.886793,-0.0445 -5.283019,-0.46789 -7.54717,-0.9408 z M 24.913941,34.296736 c 3.164895,-3.284638 5.108571,-5.884473 7.441215,-9.953276 1.141422,-1.990964 3.474591,-4.769695 5.184821,-6.174957 1.710231,-1.405256 4.797255,-4.175939 6.860053,-6.157071 2.062799,-1.981132 4.361193,-3.6020578 5.107543,-3.6020578 0.746349,0 2.683305,0.95248 4.304344,2.1166238 3.957556,2.8421 6.12009,2.567829 6.403117,-0.8121028 0.172171,-2.056085 -0.200792,-2.876604 -2.229846,-4.905658 -2.892415,-2.892416 -2.991628,-3.773327 -0.722171,-6.412215 0.942936,-1.09643 1.714805,-2.379444 1.715266,-2.851142 4.61e-4,-0.471698 0.309586,-0.857633 0.686944,-0.857633 0.377359,0 0.686107,-0.330306 0.686107,-0.734014 0,-0.403707 0.905421,-2.049998 2.012048,-3.658425 1.106627,-1.6084272 2.692471,-5.0305502 3.524099,-7.6047182 1.266719,-3.920922 2.306874,-5.525935 6.410789,-9.892175 5.727746,-6.093868 6.9553,-8.238237 6.659225,-11.632732 -0.122244,-1.40157 -2.817983,-0.496597 -8.452075,2.837405 -6.587988,3.898472 -13.543372,10.925965 -13.572132,13.712837 -0.0069,0.665498 -0.286682,1.746115 -0.621809,2.401372 -0.335128,0.655257 -1.44765,2.88949 -2.472271,4.964961 -3.260862,6.6051982 -7.295793,9.0183082 -11.403509,6.8199242 -1.813907,-0.970773 -8.63811,-2.0525502 -9.898089,-1.56905 -1.573292,0.603729 -1.179162,2.151749 0.88405,3.47227 1.037736,0.664184 2.19554,1.520358 2.572898,1.902609 0.942315,0.954533 2.401373,5.26833405 2.401373,7.09982 0,1.715921 -2.635182,6.080726 -3.992332,6.612726 -2.967338,1.1631968 -8.567096,6.5184148 -10.063439,9.6239648 -1.931127,4.007918 -4.031507,13.667733 -3.463725,15.929949 0.534482,2.129551 1.48698,1.969784 4.037506,-0.677235 z"
     id="path103"
     inkscape:connector-curvature="0" />
  <path
     style="opacity:0;fill:#1565c0;fill-opacity:0;fill-rule:evenodd;stroke:none;stroke-width:0;stroke-miterlimit:4;stroke-dasharray:none;stroke-opacity:1"
     d="M 43.235018,56.359458 C 22.863546,53.391798 7.1022215,37.572248 4.0111364,16.990698 2.3915711,6.2070512 2.9839331,-14.166367 5.208204,-24.180677 c 0.419074,-1.886793 2.1049942,-6.302408 3.7464892,-9.812478 2.5366228,-5.424156 3.8431998,-7.230998 8.7059888,-12.039352 4.47432,-4.424235 6.985171,-6.274564 11.518999,-8.488726 8.28151,-4.0444 10.698878,-4.496807 22.491165,-4.209192 l 10.223909,0.249363 7.39691,3.676889 c 5.851937,2.908908 8.356774,4.636757 11.9925,8.272477 11.931376,11.931379 16.097804,28.503633 13.726477,54.5980172 -0.9981,10.9832248 -2.457942,16.7852068 -6.009729,23.8849328 -5.255966,10.506254 -15.35869,19.116744 -26.579431,22.653464 -2.998271,0.94505 -13.341495,2.6663 -14.629406,2.43454 -0.255713,-0.046 -2.30639,-0.35192 -4.557058,-0.6798 z M 25.874108,33.23465 c 1.700334,-1.817791 4.357632,-5.309832 5.905105,-7.760082 2.612757,-4.137009 11.617182,-13.109256 16.039244,-15.9819348 1.830216,-1.188949 1.929825,-1.172657 5.572368,0.9113958 4.489764,2.568782 5.776798,2.648926 6.627019,0.412673 0.799375,-2.1025098 0.333829,-3.4693258 -2.171809,-6.3763128 -1.06841,-1.239546 -1.942563,-2.596955 -1.942563,-3.016463 0,-0.419509 1.044913,-2.33843995 2.322029,-4.264291 3.167542,-4.776555 6.880758,-11.7607322 8.299954,-15.6113592 0.683365,-1.854138 3.428972,-5.828422 6.555211,-9.488707 5.353297,-6.267794 7.03296,-9.699318 5.497297,-11.230872 -1.396316,-1.392579 -10.65402,4.03754 -16.199389,9.501775 -3.904802,3.84767 -5.114017,5.55316 -6.080734,8.576329 -1.8245,5.705672 -5.638732,11.5694202 -8.374135,12.8738442 -2.149174,1.024869 -2.586844,1.025024 -5.580949,0.002 -8.281887,-2.8298242 -13.25582,-1.8580512 -9.293784,1.815756 1.052829,0.976238 2.115427,1.774978 2.361328,1.774978 0.699015,0 2.654407,5.32429205 2.654407,7.227624 0,2.12028 -2.656314,6.347845 -4.332227,6.894805 -0.684611,0.223438 -3.045405,2.1681848 -5.246209,4.3216738 -3.376228,3.303637 -4.234748,4.661091 -5.494492,8.687637 -2.328913,7.443952 -2.715366,14.034641 -0.82294,14.034641 0.337564,0 2.004935,-1.487286 3.705269,-3.305084 z"
     id="path107"
     inkscape:connector-curvature="0" />
  <path
     style="opacity:0;fill:#1565c0;fill-opacity:0;fill-rule:evenodd;stroke:none;stroke-width:0;stroke-miterlimit:4;stroke-dasharray:none;stroke-opacity:1"
     d="M 43.235018,56.359458 C 22.863546,53.391798 7.1022215,37.572248 4.0111364,16.990698 2.3915711,6.2070512 2.9839331,-14.166367 5.208204,-24.180677 c 0.419074,-1.886793 2.1049942,-6.302408 3.7464892,-9.812478 2.5366228,-5.424156 3.8431998,-7.230998 8.7059888,-12.039352 4.47432,-4.424235 6.985171,-6.274564 11.518999,-8.488726 8.28151,-4.0444 10.698878,-4.496807 22.491165,-4.209192 l 10.223909,0.249363 7.39691,3.676889 c 5.851937,2.908908 8.356774,4.636757 11.9925,8.272477 11.931376,11.931379 16.097804,28.503633 13.726477,54.5980172 -0.9981,10.9832248 -2.457942,16.7852068 -6.009729,23.8849328 -5.255966,10.506254 -15.35869,19.116744 -26.579431,22.653464 -2.998271,0.94505 -13.341495,2.6663 -14.629406,2.43454 -0.255713,-0.046 -2.30639,-0.35192 -4.557058,-0.6798 z M 25.874108,33.23465 c 1.700334,-1.817791 4.357632,-5.309832 5.905105,-7.760082 2.612757,-4.137009 11.617182,-13.109256 16.039244,-15.9819348 1.830216,-1.188949 1.929825,-1.172657 5.572368,0.9113958 4.489764,2.568782 5.776798,2.648926 6.627019,0.412673 0.799375,-2.1025098 0.333829,-3.4693258 -2.171809,-6.3763128 -1.06841,-1.239546 -1.942563,-2.596955 -1.942563,-3.016463 0,-0.419509 1.044913,-2.33843995 2.322029,-4.264291 3.167542,-4.776555 6.880758,-11.7607322 8.299954,-15.6113592 0.683365,-1.854138 3.428972,-5.828422 6.555211,-9.488707 5.353297,-6.267794 7.03296,-9.699318 5.497297,-11.230872 -1.396316,-1.392579 -10.65402,4.03754 -16.199389,9.501775 -3.904802,3.84767 -5.114017,5.55316 -6.080734,8.576329 -1.8245,5.705672 -5.638732,11.5694202 -8.374135,12.8738442 -2.149174,1.024869 -2.586844,1.025024 -5.580949,0.002 -8.281887,-2.8298242 -13.25582,-1.8580512 -9.293784,1.815756 1.052829,0.976238 2.115427,1.774978 2.361328,1.774978 0.699015,0 2.654407,5.32429205 2.654407,7.227624 0,2.12028 -2.656314,6.347845 -4.332227,6.894805 -0.684611,0.223438 -3.045405,2.1681848 -5.246209,4.3216738 -3.376228,3.303637 -4.234748,4.661091 -5.494492,8.687637 -2.328913,7.443952 -2.715366,14.034641 -0.82294,14.034641 0.337564,0 2.004935,-1.487286 3.705269,-3.305084 z"
     id="path914"
     inkscape:connector-curvature="0" />
  <path
     style="opacity:0;fill:#1565c0;fill-opacity:0;fill-rule:evenodd;stroke:none;stroke-width:0;stroke-miterlimit:4;stroke-dasharray:none;stroke-opacity:1"
     d="M 43.235018,56.359458 C 22.863546,53.391798 7.1022215,37.572248 4.0111364,16.990698 2.3915711,6.2070512 2.9839331,-14.166367 5.208204,-24.180677 c 0.419074,-1.886793 2.1049942,-6.302408 3.7464892,-9.812478 2.5366228,-5.424156 3.8431998,-7.230998 8.7059888,-12.039352 4.47432,-4.424235 6.985171,-6.274564 11.518999,-8.488726 8.28151,-4.0444 10.698878,-4.496807 22.491165,-4.209192 l 10.223909,0.249363 7.39691,3.676889 c 5.851937,2.908908 8.356774,4.636757 11.9925,8.272477 11.931376,11.931379 16.097804,28.503633 13.726477,54.5980172 -0.9981,10.9832248 -2.457942,16.7852068 -6.009729,23.8849328 -5.255966,10.506254 -15.35869,19.116744 -26.579431,22.653464 -2.998271,0.94505 -13.341495,2.6663 -14.629406,2.43454 -0.255713,-0.046 -2.30639,-0.35192 -4.557058,-0.6798 z M 25.874108,33.23465 c 1.700334,-1.817791 4.357632,-5.309832 5.905105,-7.760082 2.612757,-4.137009 11.617182,-13.109256 16.039244,-15.9819348 1.830216,-1.188949 1.929825,-1.172657 5.572368,0.9113958 4.489764,2.568782 5.776798,2.648926 6.627019,0.412673 0.799375,-2.1025098 0.333829,-3.4693258 -2.171809,-6.3763128 -1.06841,-1.239546 -1.942563,-2.596955 -1.942563,-3.016463 0,-0.419509 1.044913,-2.33843995 2.322029,-4.264291 3.167542,-4.776555 6.880758,-11.7607322 8.299954,-15.6113592 0.683365,-1.854138 3.428972,-5.828422 6.555211,-9.488707 5.353297,-6.267794 7.03296,-9.699318 5.497297,-11.230872 -1.396316,-1.392579 -10.65402,4.03754 -16.199389,9.501775 -3.904802,3.84767 -5.114017,5.55316 -6.080734,8.576329 -1.8245,5.705672 -5.638732,11.5694202 -8.374135,12.8738442 -2.149174,1.024869 -2.586844,1.025024 -5.580949,0.002 -8.281887,-2.8298242 -13.25582,-1.8580512 -9.293784,1.815756 1.052829,0.976238 2.115427,1.774978 2.361328,1.774978 0.699015,0 2.654407,5.32429205 2.654407,7.227624 0,2.12028 -2.656314,6.347845 -4.332227,6.894805 -0.684611,0.223438 -3.045405,2.1681848 -5.246209,4.3216738 -3.376228,3.303637 -4.234748,4.661091 -5.494492,8.687637 -2.328913,7.443952 -2.715366,14.034641 -0.82294,14.034641 0.337564,0 2.004935,-1.487286 3.705269,-3.305084 z"
     id="path916"
     inkscape:connector-curvature="0" />
  <path
     style="opacity:0;fill:#1565c0;fill-opacity:0;fill-rule:evenodd;stroke:none;stroke-width:0;stroke-miterlimit:4;stroke-dasharray:none;stroke-opacity:1"
     d="M 43.235018,56.359458 C 22.863546,53.391798 7.1022215,37.572248 4.0111364,16.990698 2.3915711,6.2070512 2.9839331,-14.166367 5.208204,-24.180677 c 0.419074,-1.886793 2.1049942,-6.302408 3.7464892,-9.812478 2.5366228,-5.424156 3.8431998,-7.230998 8.7059888,-12.039352 4.47432,-4.424235 6.985171,-6.274564 11.518999,-8.488726 8.28151,-4.0444 10.698878,-4.496807 22.491165,-4.209192 l 10.223909,0.249363 7.39691,3.676889 c 5.851937,2.908908 8.356774,4.636757 11.9925,8.272477 11.931376,11.931379 16.097804,28.503633 13.726477,54.5980172 -0.9981,10.9832248 -2.457942,16.7852068 -6.009729,23.8849328 -5.255966,10.506254 -15.35869,19.116744 -26.579431,22.653464 -2.998271,0.94505 -13.341495,2.6663 -14.629406,2.43454 -0.255713,-0.046 -2.30639,-0.35192 -4.557058,-0.6798 z M 25.874108,33.23465 c 1.700334,-1.817791 4.357632,-5.309832 5.905105,-7.760082 2.612757,-4.137009 11.617182,-13.109256 16.039244,-15.9819348 1.830216,-1.188949 1.929825,-1.172657 5.572368,0.9113958 4.489764,2.568782 5.776798,2.648926 6.627019,0.412673 0.799375,-2.1025098 0.333829,-3.4693258 -2.171809,-6.3763128 -1.06841,-1.239546 -1.942563,-2.596955 -1.942563,-3.016463 0,-0.419509 1.044913,-2.33843995 2.322029,-4.264291 3.167542,-4.776555 6.880758,-11.7607322 8.299954,-15.6113592 0.683365,-1.854138 3.428972,-5.828422 6.555211,-9.488707 5.353297,-6.267794 7.03296,-9.699318 5.497297,-11.230872 -1.396316,-1.392579 -10.65402,4.03754 -16.199389,9.501775 -3.904802,3.84767 -5.114017,5.55316 -6.080734,8.576329 -1.8245,5.705672 -5.638732,11.5694202 -8.374135,12.8738442 -2.149174,1.024869 -2.586844,1.025024 -5.580949,0.002 -8.281887,-2.8298242 -13.25582,-1.8580512 -9.293784,1.815756 1.052829,0.976238 2.115427,1.774978 2.361328,1.774978 0.699015,0 2.654407,5.32429205 2.654407,7.227624 0,2.12028 -2.656314,6.347845 -4.332227,6.894805 -0.684611,0.223438 -3.045405,2.1681848 -5.246209,4.3216738 -3.376228,3.303637 -4.234748,4.661091 -5.494492,8.687637 -2.328913,7.443952 -2.715366,14.034641 -0.82294,14.034641 0.337564,0 2.004935,-1.487286 3.705269,-3.305084 z"
     id="path918"
     inkscape:connector-curvature="0" />
  <path
     style="opacity:0;fill:#1565c0;fill-opacity:0;fill-rule:evenodd;stroke:none;stroke-width:0;stroke-miterlimit:4;stroke-dasharray:none;stroke-opacity:1"
     d="M 43.235018,56.359458 C 22.863546,53.391798 7.1022215,37.572248 4.0111364,16.990698 2.3915711,6.2070512 2.9839331,-14.166367 5.208204,-24.180677 c 0.419074,-1.886793 2.1049942,-6.302408 3.7464892,-9.812478 2.5366228,-5.424156 3.8431998,-7.230998 8.7059888,-12.039352 4.47432,-4.424235 6.985171,-6.274564 11.518999,-8.488726 8.28151,-4.0444 10.698878,-4.496807 22.491165,-4.209192 l 10.223909,0.249363 7.39691,3.676889 c 5.851937,2.908908 8.356774,4.636757 11.9925,8.272477 11.931376,11.931379 16.097804,28.503633 13.726477,54.5980172 -0.9981,10.9832248 -2.457942,16.7852068 -6.009729,23.8849328 -5.255966,10.506254 -15.35869,19.116744 -26.579431,22.653464 -2.998271,0.94505 -13.341495,2.6663 -14.629406,2.43454 -0.255713,-0.046 -2.30639,-0.35192 -4.557058,-0.6798 z M 25.874108,33.23465 c 1.700334,-1.817791 4.357632,-5.309832 5.905105,-7.760082 2.612757,-4.137009 11.617182,-13.109256 16.039244,-15.9819348 1.830216,-1.188949 1.929825,-1.172657 5.572368,0.9113958 4.489764,2.568782 5.776798,2.648926 6.627019,0.412673 0.799375,-2.1025098 0.333829,-3.4693258 -2.171809,-6.3763128 -1.06841,-1.239546 -1.942563,-2.596955 -1.942563,-3.016463 0,-0.419509 1.044913,-2.33843995 2.322029,-4.264291 3.167542,-4.776555 6.880758,-11.7607322 8.299954,-15.6113592 0.683365,-1.854138 3.428972,-5.828422 6.555211,-9.488707 5.353297,-6.267794 7.03296,-9.699318 5.497297,-11.230872 -1.396316,-1.392579 -10.65402,4.03754 -16.199389,9.501775 -3.904802,3.84767 -5.114017,5.55316 -6.080734,8.576329 -1.8245,5.705672 -5.638732,11.5694202 -8.374135,12.8738442 -2.149174,1.024869 -2.586844,1.025024 -5.580949,0.002 -8.281887,-2.8298242 -13.25582,-1.8580512 -9.293784,1.815756 1.052829,0.976238 2.115427,1.774978 2.361328,1.774978 0.699015,0 2.654407,5.32429205 2.654407,7.227624 0,2.12028 -2.656314,6.347845 -4.332227,6.894805 -0.684611,0.223438 -3.045405,2.1681848 -5.246209,4.3216738 -3.376228,3.303637 -4.234748,4.661091 -5.494492,8.687637 -2.328913,7.443952 -2.715366,14.034641 -0.82294,14.034641 0.337564,0 2.004935,-1.487286 3.705269,-3.305084 z"
     id="path920"
     inkscape:connector-curvature="0" />
  <path
     style="opacity:0;fill:#1565c0;fill-opacity:0;fill-rule:evenodd;stroke:none;stroke-width:0;stroke-miterlimit:4;stroke-dasharray:none;stroke-opacity:1"
     d="M 43.235018,56.359458 C 22.863546,53.391798 7.1022215,37.572248 4.0111364,16.990698 2.3915711,6.2070512 2.9839331,-14.166367 5.208204,-24.180677 c 0.419074,-1.886793 2.1049942,-6.302408 3.7464892,-9.812478 2.5366228,-5.424156 3.8431998,-7.230998 8.7059888,-12.039352 4.47432,-4.424235 6.985171,-6.274564 11.518999,-8.488726 8.28151,-4.0444 10.698878,-4.496807 22.491165,-4.209192 l 10.223909,0.249363 7.39691,3.676889 c 5.851937,2.908908 8.356774,4.636757 11.9925,8.272477 11.931376,11.931379 16.097804,28.503633 13.726477,54.5980172 -0.9981,10.9832248 -2.457942,16.7852068 -6.009729,23.8849328 -5.255966,10.506254 -15.35869,19.116744 -26.579431,22.653464 -2.998271,0.94505 -13.341495,2.6663 -14.629406,2.43454 -0.255713,-0.046 -2.30639,-0.35192 -4.557058,-0.6798 z M 25.874108,33.23465 c 1.700334,-1.817791 4.357632,-5.309832 5.905105,-7.760082 2.612757,-4.137009 11.617182,-13.109256 16.039244,-15.9819348 1.830216,-1.188949 1.929825,-1.172657 5.572368,0.9113958 4.489764,2.568782 5.776798,2.648926 6.627019,0.412673 0.799375,-2.1025098 0.333829,-3.4693258 -2.171809,-6.3763128 -1.06841,-1.239546 -1.942563,-2.596955 -1.942563,-3.016463 0,-0.419509 1.044913,-2.33843995 2.322029,-4.264291 3.167542,-4.776555 6.880758,-11.7607322 8.299954,-15.6113592 0.683365,-1.854138 3.428972,-5.828422 6.555211,-9.488707 5.353297,-6.267794 7.03296,-9.699318 5.497297,-11.230872 -1.396316,-1.392579 -10.65402,4.03754 -16.199389,9.501775 -3.904802,3.84767 -5.114017,5.55316 -6.080734,8.576329 -1.8245,5.705672 -5.638732,11.5694202 -8.374135,12.8738442 -2.149174,1.024869 -2.586844,1.025024 -5.580949,0.002 -8.281887,-2.8298242 -13.25582,-1.8580512 -9.293784,1.815756 1.052829,0.976238 2.115427,1.774978 2.361328,1.774978 0.699015,0 2.654407,5.32429205 2.654407,7.227624 0,2.12028 -2.656314,6.347845 -4.332227,6.894805 -0.684611,0.223438 -3.045405,2.1681848 -5.246209,4.3216738 -3.376228,3.303637 -4.234748,4.661091 -5.494492,8.687637 -2.328913,7.443952 -2.715366,14.034641 -0.82294,14.034641 0.337564,0 2.004935,-1.487286 3.705269,-3.305084 z"
     id="path922"
     inkscape:connector-curvature="0" />
  <path
     style="opacity:0;fill:#0d47a1;fill-opacity:0;fill-rule:evenodd;stroke:none;stroke-width:0;stroke-miterlimit:4;stroke-dasharray:none;stroke-opacity:1"
     d="M 43.235018,56.359458 C 22.863546,53.391798 7.1022215,37.572248 4.0111364,16.990698 2.3915711,6.2070512 2.9839331,-14.166367 5.208204,-24.180677 c 0.419074,-1.886793 2.1049942,-6.302408 3.7464892,-9.812478 2.5366228,-5.424156 3.8431998,-7.230998 8.7059888,-12.039352 4.47432,-4.424235 6.985171,-6.274564 11.518999,-8.488726 8.28151,-4.0444 10.698878,-4.496807 22.491165,-4.209192 l 10.223909,0.249363 7.39691,3.676889 c 5.851937,2.908908 8.356774,4.636757 11.9925,8.272477 11.931376,11.931379 16.097804,28.503633 13.726477,54.5980172 -0.9981,10.9832248 -2.457942,16.7852068 -6.009729,23.8849328 -5.255966,10.506254 -15.35869,19.116744 -26.579431,22.653464 -2.998271,0.94505 -13.341495,2.6663 -14.629406,2.43454 -0.255713,-0.046 -2.30639,-0.35192 -4.557058,-0.6798 z M 25.874108,33.23465 c 1.700334,-1.817791 4.357632,-5.309832 5.905105,-7.760082 2.612757,-4.137009 11.617182,-13.109256 16.039244,-15.9819348 1.830216,-1.188949 1.929825,-1.172657 5.572368,0.9113958 4.489764,2.568782 5.776798,2.648926 6.627019,0.412673 0.799375,-2.1025098 0.333829,-3.4693258 -2.171809,-6.3763128 -1.06841,-1.239546 -1.942563,-2.596955 -1.942563,-3.016463 0,-0.419509 1.044913,-2.33843995 2.322029,-4.264291 3.167542,-4.776555 6.880758,-11.7607322 8.299954,-15.6113592 0.683365,-1.854138 3.428972,-5.828422 6.555211,-9.488707 5.353297,-6.267794 7.03296,-9.699318 5.497297,-11.230872 -1.396316,-1.392579 -10.65402,4.03754 -16.199389,9.501775 -3.904802,3.84767 -5.114017,5.55316 -6.080734,8.576329 -1.8245,5.705672 -5.638732,11.5694202 -8.374135,12.8738442 -2.149174,1.024869 -2.586844,1.025024 -5.580949,0.002 -8.281887,-2.8298242 -13.25582,-1.8580512 -9.293784,1.815756 1.052829,0.976238 2.115427,1.774978 2.361328,1.774978 0.699015,0 2.654407,5.32429205 2.654407,7.227624 0,2.12028 -2.656314,6.347845 -4.332227,6.894805 -0.684611,0.223438 -3.045405,2.1681848 -5.246209,4.3216738 -3.376228,3.303637 -4.234748,4.661091 -5.494492,8.687637 -2.328913,7.443952 -2.715366,14.034641 -0.82294,14.034641 0.337564,0 2.004935,-1.487286 3.705269,-3.305084 z"
     id="path924"
     inkscape:connector-curvature="0" />
  <path
     style="opacity:0;fill:#0d47a1;fill-opacity:0;fill-rule:evenodd;stroke:none;stroke-width:0;stroke-miterlimit:4;stroke-dasharray:none;stroke-opacity:1"
     d="M 43.235018,56.359458 C 22.863546,53.391798 7.1022215,37.572248 4.0111364,16.990698 2.3915711,6.2070512 2.9839331,-14.166367 5.208204,-24.180677 c 0.419074,-1.886793 2.1049942,-6.302408 3.7464892,-9.812478 2.5366228,-5.424156 3.8431998,-7.230998 8.7059888,-12.039352 4.47432,-4.424235 6.985171,-6.274564 11.518999,-8.488726 8.28151,-4.0444 10.698878,-4.496807 22.491165,-4.209192 l 10.223909,0.249363 7.39691,3.676889 c 5.851937,2.908908 8.356774,4.636757 11.9925,8.272477 11.931376,11.931379 16.097804,28.503633 13.726477,54.5980172 -0.9981,10.9832248 -2.457942,16.7852068 -6.009729,23.8849328 -5.255966,10.506254 -15.35869,19.116744 -26.579431,22.653464 -2.998271,0.94505 -13.341495,2.6663 -14.629406,2.43454 -0.255713,-0.046 -2.30639,-0.35192 -4.557058,-0.6798 z M 25.874108,33.23465 c 1.700334,-1.817791 4.357632,-5.309832 5.905105,-7.760082 2.612757,-4.137009 11.617182,-13.109256 16.039244,-15.9819348 1.830216,-1.188949 1.929825,-1.172657 5.572368,0.9113958 4.489764,2.568782 5.776798,2.648926 6.627019,0.412673 0.799375,-2.1025098 0.333829,-3.4693258 -2.171809,-6.3763128 -1.06841,-1.239546 -1.942563,-2.596955 -1.942563,-3.016463 0,-0.419509 1.044913,-2.33843995 2.322029,-4.264291 3.167542,-4.776555 6.880758,-11.7607322 8.299954,-15.6113592 0.683365,-1.854138 3.428972,-5.828422 6.555211,-9.488707 5.353297,-6.267794 7.03296,-9.699318 5.497297,-11.230872 -1.396316,-1.392579 -10.65402,4.03754 -16.199389,9.501775 -3.904802,3.84767 -5.114017,5.55316 -6.080734,8.576329 -1.8245,5.705672 -5.638732,11.5694202 -8.374135,12.8738442 -2.149174,1.024869 -2.586844,1.025024 -5.580949,0.002 -8.281887,-2.8298242 -13.25582,-1.8580512 -9.293784,1.815756 1.052829,0.976238 2.115427,1.774978 2.361328,1.774978 0.699015,0 2.654407,5.32429205 2.654407,7.227624 0,2.12028 -2.656314,6.347845 -4.332227,6.894805 -0.684611,0.223438 -3.045405,2.1681848 -5.246209,4.3216738 -3.376228,3.303637 -4.234748,4.661091 -5.494492,8.687637 -2.328913,7.443952 -2.715366,14.034641 -0.82294,14.034641 0.337564,0 2.004935,-1.487286 3.705269,-3.305084 z"
     id="path926"
     inkscape:connector-curvature="0" />
  <path
     style="opacity:0;fill:#0d47a1;fill-opacity:0;fill-rule:evenodd;stroke:none;stroke-width:0;stroke-miterlimit:4;stroke-dasharray:none;stroke-opacity:1"
     d="M 43.235018,56.359458 C 22.863546,53.391798 7.1022215,37.572248 4.0111364,16.990698 2.3915711,6.2070512 2.9839331,-14.166367 5.208204,-24.180677 c 0.419074,-1.886793 2.1049942,-6.302408 3.7464892,-9.812478 2.5366228,-5.424156 3.8431998,-7.230998 8.7059888,-12.039352 4.47432,-4.424235 6.985171,-6.274564 11.518999,-8.488726 8.28151,-4.0444 10.698878,-4.496807 22.491165,-4.209192 l 10.223909,0.249363 7.39691,3.676889 c 5.851937,2.908908 8.356774,4.636757 11.9925,8.272477 11.931376,11.931379 16.097804,28.503633 13.726477,54.5980172 -0.9981,10.9832248 -2.457942,16.7852068 -6.009729,23.8849328 -5.255966,10.506254 -15.35869,19.116744 -26.579431,22.653464 -2.998271,0.94505 -13.341495,2.6663 -14.629406,2.43454 -0.255713,-0.046 -2.30639,-0.35192 -4.557058,-0.6798 z M 25.874108,33.23465 c 1.700334,-1.817791 4.357632,-5.309832 5.905105,-7.760082 2.612757,-4.137009 11.617182,-13.109256 16.039244,-15.9819348 1.830216,-1.188949 1.929825,-1.172657 5.572368,0.9113958 4.489764,2.568782 5.776798,2.648926 6.627019,0.412673 0.799375,-2.1025098 0.333829,-3.4693258 -2.171809,-6.3763128 -1.06841,-1.239546 -1.942563,-2.596955 -1.942563,-3.016463 0,-0.419509 1.044913,-2.33843995 2.322029,-4.264291 3.167542,-4.776555 6.880758,-11.7607322 8.299954,-15.6113592 0.683365,-1.854138 3.428972,-5.828422 6.555211,-9.488707 5.353297,-6.267794 7.03296,-9.699318 5.497297,-11.230872 -1.396316,-1.392579 -10.65402,4.03754 -16.199389,9.501775 -3.904802,3.84767 -5.114017,5.55316 -6.080734,8.576329 -1.8245,5.705672 -5.638732,11.5694202 -8.374135,12.8738442 -2.149174,1.024869 -2.586844,1.025024 -5.580949,0.002 -8.281887,-2.8298242 -13.25582,-1.8580512 -9.293784,1.815756 1.052829,0.976238 2.115427,1.774978 2.361328,1.774978 0.699015,0 2.654407,5.32429205 2.654407,7.227624 0,2.12028 -2.656314,6.347845 -4.332227,6.894805 -0.684611,0.223438 -3.045405,2.1681848 -5.246209,4.3216738 -3.376228,3.303637 -4.234748,4.661091 -5.494492,8.687637 -2.328913,7.443952 -2.715366,14.034641 -0.82294,14.034641 0.337564,0 2.004935,-1.487286 3.705269,-3.305084 z"
     id="path928"
     inkscape:connector-curvature="0" />
  <path
     style="opacity:0;fill:#0d47a1;fill-opacity:0;fill-rule:evenodd;stroke:none;stroke-width:0;stroke-miterlimit:4;stroke-dasharray:none;stroke-opacity:1"
     d="M 43.235018,56.359458 C 22.863546,53.391798 7.1022215,37.572248 4.0111364,16.990698 2.3915711,6.2070512 2.9839331,-14.166367 5.208204,-24.180677 c 0.419074,-1.886793 2.1049942,-6.302408 3.7464892,-9.812478 2.5366228,-5.424156 3.8431998,-7.230998 8.7059888,-12.039352 4.47432,-4.424235 6.985171,-6.274564 11.518999,-8.488726 8.28151,-4.0444 10.698878,-4.496807 22.491165,-4.209192 l 10.223909,0.249363 7.39691,3.676889 c 5.851937,2.908908 8.356774,4.636757 11.9925,8.272477 11.931376,11.931379 16.097804,28.503633 13.726477,54.5980172 -0.9981,10.9832248 -2.457942,16.7852068 -6.009729,23.8849328 -5.255966,10.506254 -15.35869,19.116744 -26.579431,22.653464 -2.998271,0.94505 -13.341495,2.6663 -14.629406,2.43454 -0.255713,-0.046 -2.30639,-0.35192 -4.557058,-0.6798 z M 25.874108,33.23465 c 1.700334,-1.817791 4.357632,-5.309832 5.905105,-7.760082 2.612757,-4.137009 11.617182,-13.109256 16.039244,-15.9819348 1.830216,-1.188949 1.929825,-1.172657 5.572368,0.9113958 4.489764,2.568782 5.776798,2.648926 6.627019,0.412673 0.799375,-2.1025098 0.333829,-3.4693258 -2.171809,-6.3763128 -1.06841,-1.239546 -1.942563,-2.596955 -1.942563,-3.016463 0,-0.419509 1.044913,-2.33843995 2.322029,-4.264291 3.167542,-4.776555 6.880758,-11.7607322 8.299954,-15.6113592 0.683365,-1.854138 3.428972,-5.828422 6.555211,-9.488707 5.353297,-6.267794 7.03296,-9.699318 5.497297,-11.230872 -1.396316,-1.392579 -10.65402,4.03754 -16.199389,9.501775 -3.904802,3.84767 -5.114017,5.55316 -6.080734,8.576329 -1.8245,5.705672 -5.638732,11.5694202 -8.374135,12.8738442 -2.149174,1.024869 -2.586844,1.025024 -5.580949,0.002 -8.281887,-2.8298242 -13.25582,-1.8580512 -9.293784,1.815756 1.052829,0.976238 2.115427,1.774978 2.361328,1.774978 0.699015,0 2.654407,5.32429205 2.654407,7.227624 0,2.12028 -2.656314,6.347845 -4.332227,6.894805 -0.684611,0.223438 -3.045405,2.1681848 -5.246209,4.3216738 -3.376228,3.303637 -4.234748,4.661091 -5.494492,8.687637 -2.328913,7.443952 -2.715366,14.034641 -0.82294,14.034641 0.337564,0 2.004935,-1.487286 3.705269,-3.305084 z"
     id="path930"
     inkscape:connector-curvature="0" />
  <path
     style="opacity:0;fill:#0d47a1;fill-opacity:0;fill-rule:evenodd;stroke:none;stroke-width:0;stroke-miterlimit:4;stroke-dasharray:none;stroke-opacity:1"
     d="M 43.235018,56.359458 C 22.863546,53.391798 7.1022215,37.572248 4.0111364,16.990698 2.3915711,6.2070512 2.9839331,-14.166367 5.208204,-24.180677 c 0.419074,-1.886793 2.1049942,-6.302408 3.7464892,-9.812478 2.5366228,-5.424156 3.8431998,-7.230998 8.7059888,-12.039352 4.47432,-4.424235 6.985171,-6.274564 11.518999,-8.488726 8.28151,-4.0444 10.698878,-4.496807 22.491165,-4.209192 l 10.223909,0.249363 7.39691,3.676889 c 5.851937,2.908908 8.356774,4.636757 11.9925,8.272477 11.931376,11.931379 16.097804,28.503633 13.726477,54.5980172 -0.9981,10.9832248 -2.457942,16.7852068 -6.009729,23.8849328 -5.255966,10.506254 -15.35869,19.116744 -26.579431,22.653464 -2.998271,0.94505 -13.341495,2.6663 -14.629406,2.43454 -0.255713,-0.046 -2.30639,-0.35192 -4.557058,-0.6798 z M 25.874108,33.23465 c 1.700334,-1.817791 4.357632,-5.309832 5.905105,-7.760082 2.612757,-4.137009 11.617182,-13.109256 16.039244,-15.9819348 1.830216,-1.188949 1.929825,-1.172657 5.572368,0.9113958 4.489764,2.568782 5.776798,2.648926 6.627019,0.412673 0.799375,-2.1025098 0.333829,-3.4693258 -2.171809,-6.3763128 -1.06841,-1.239546 -1.942563,-2.596955 -1.942563,-3.016463 0,-0.419509 1.044913,-2.33843995 2.322029,-4.264291 3.167542,-4.776555 6.880758,-11.7607322 8.299954,-15.6113592 0.683365,-1.854138 3.428972,-5.828422 6.555211,-9.488707 5.353297,-6.267794 7.03296,-9.699318 5.497297,-11.230872 -1.396316,-1.392579 -10.65402,4.03754 -16.199389,9.501775 -3.904802,3.84767 -5.114017,5.55316 -6.080734,8.576329 -1.8245,5.705672 -5.638732,11.5694202 -8.374135,12.8738442 -2.149174,1.024869 -2.586844,1.025024 -5.580949,0.002 -8.281887,-2.8298242 -13.25582,-1.8580512 -9.293784,1.815756 1.052829,0.976238 2.115427,1.774978 2.361328,1.774978 0.699015,0 2.654407,5.32429205 2.654407,7.227624 0,2.12028 -2.656314,6.347845 -4.332227,6.894805 -0.684611,0.223438 -3.045405,2.1681848 -5.246209,4.3216738 -3.376228,3.303637 -4.234748,4.661091 -5.494492,8.687637 -2.328913,7.443952 -2.715366,14.034641 -0.82294,14.034641 0.337564,0 2.004935,-1.487286 3.705269,-3.305084 z"
     id="path932"
     inkscape:connector-curvature="0" />
  <path
     style="opacity:0;fill:#0d47a1;fill-opacity:0;fill-rule:evenodd;stroke:none;stroke-width:0;stroke-miterlimit:4;stroke-dasharray:none;stroke-opacity:1"
     d="M 43.235018,56.359458 C 22.863546,53.391798 7.1022215,37.572248 4.0111364,16.990698 2.3915711,6.2070512 2.9839331,-14.166367 5.208204,-24.180677 c 0.419074,-1.886793 2.1049942,-6.302408 3.7464892,-9.812478 2.5366228,-5.424156 3.8431998,-7.230998 8.7059888,-12.039352 4.47432,-4.424235 6.985171,-6.274564 11.518999,-8.488726 8.28151,-4.0444 10.698878,-4.496807 22.491165,-4.209192 l 10.223909,0.249363 7.39691,3.676889 c 5.851937,2.908908 8.356774,4.636757 11.9925,8.272477 11.931376,11.931379 16.097804,28.503633 13.726477,54.5980172 -0.9981,10.9832248 -2.457942,16.7852068 -6.009729,23.8849328 -5.255966,10.506254 -15.35869,19.116744 -26.579431,22.653464 -2.998271,0.94505 -13.341495,2.6663 -14.629406,2.43454 -0.255713,-0.046 -2.30639,-0.35192 -4.557058,-0.6798 z M 25.874108,33.23465 c 1.700334,-1.817791 4.357632,-5.309832 5.905105,-7.760082 2.612757,-4.137009 11.617182,-13.109256 16.039244,-15.9819348 1.830216,-1.188949 1.929825,-1.172657 5.572368,0.9113958 4.489764,2.568782 5.776798,2.648926 6.627019,0.412673 0.799375,-2.1025098 0.333829,-3.4693258 -2.171809,-6.3763128 -1.06841,-1.239546 -1.942563,-2.596955 -1.942563,-3.016463 0,-0.419509 1.044913,-2.33843995 2.322029,-4.264291 3.167542,-4.776555 6.880758,-11.7607322 8.299954,-15.6113592 0.683365,-1.854138 3.428972,-5.828422 6.555211,-9.488707 5.353297,-6.267794 7.03296,-9.699318 5.497297,-11.230872 -1.396316,-1.392579 -10.65402,4.03754 -16.199389,9.501775 -3.904802,3.84767 -5.114017,5.55316 -6.080734,8.576329 -1.8245,5.705672 -5.638732,11.5694202 -8.374135,12.8738442 -2.149174,1.024869 -2.586844,1.025024 -5.580949,0.002 -8.281887,-2.8298242 -13.25582,-1.8580512 -9.293784,1.815756 1.052829,0.976238 2.115427,1.774978 2.361328,1.774978 0.699015,0 2.654407,5.32429205 2.654407,7.227624 0,2.12028 -2.656314,6.347845 -4.332227,6.894805 -0.684611,0.223438 -3.045405,2.1681848 -5.246209,4.3216738 -3.376228,3.303637 -4.234748,4.661091 -5.494492,8.687637 -2.328913,7.443952 -2.715366,14.034641 -0.82294,14.034641 0.337564,0 2.004935,-1.487286 3.705269,-3.305084 z"
     id="path934"
     inkscape:connector-curvature="0" />
  <path
     style="opacity:0;fill:#0d47a1;fill-opacity:0;fill-rule:evenodd;stroke:none;stroke-width:0;stroke-miterlimit:4;stroke-dasharray:none;stroke-opacity:1"
     d="M 43.235018,56.359458 C 22.863546,53.391798 7.1022215,37.572248 4.0111364,16.990698 2.3915711,6.2070512 2.9839331,-14.166367 5.208204,-24.180677 c 0.419074,-1.886793 2.1049942,-6.302408 3.7464892,-9.812478 2.5366228,-5.424156 3.8431998,-7.230998 8.7059888,-12.039352 4.47432,-4.424235 6.985171,-6.274564 11.518999,-8.488726 8.28151,-4.0444 10.698878,-4.496807 22.491165,-4.209192 l 10.223909,0.249363 7.39691,3.676889 c 5.851937,2.908908 8.356774,4.636757 11.9925,8.272477 11.931376,11.931379 16.097804,28.503633 13.726477,54.5980172 -0.9981,10.9832248 -2.457942,16.7852068 -6.009729,23.8849328 -5.255966,10.506254 -15.35869,19.116744 -26.579431,22.653464 -2.998271,0.94505 -13.341495,2.6663 -14.629406,2.43454 -0.255713,-0.046 -2.30639,-0.35192 -4.557058,-0.6798 z M 25.874108,33.23465 c 1.700334,-1.817791 4.357632,-5.309832 5.905105,-7.760082 2.612757,-4.137009 11.617182,-13.109256 16.039244,-15.9819348 1.830216,-1.188949 1.929825,-1.172657 5.572368,0.9113958 4.489764,2.568782 5.776798,2.648926 6.627019,0.412673 0.799375,-2.1025098 0.333829,-3.4693258 -2.171809,-6.3763128 -1.06841,-1.239546 -1.942563,-2.596955 -1.942563,-3.016463 0,-0.419509 1.044913,-2.33843995 2.322029,-4.264291 3.167542,-4.776555 6.880758,-11.7607322 8.299954,-15.6113592 0.683365,-1.854138 3.428972,-5.828422 6.555211,-9.488707 5.353297,-6.267794 7.03296,-9.699318 5.497297,-11.230872 -1.396316,-1.392579 -10.65402,4.03754 -16.199389,9.501775 -3.904802,3.84767 -5.114017,5.55316 -6.080734,8.576329 -1.8245,5.705672 -5.638732,11.5694202 -8.374135,12.8738442 -2.149174,1.024869 -2.586844,1.025024 -5.580949,0.002 -8.281887,-2.8298242 -13.25582,-1.8580512 -9.293784,1.815756 1.052829,0.976238 2.115427,1.774978 2.361328,1.774978 0.699015,0 2.654407,5.32429205 2.654407,7.227624 0,2.12028 -2.656314,6.347845 -4.332227,6.894805 -0.684611,0.223438 -3.045405,2.1681848 -5.246209,4.3216738 -3.376228,3.303637 -4.234748,4.661091 -5.494492,8.687637 -2.328913,7.443952 -2.715366,14.034641 -0.82294,14.034641 0.337564,0 2.004935,-1.487286 3.705269,-3.305084 z"
     id="path936"
     inkscape:connector-curvature="0" />
  <path
     style="opacity:0;fill:#0d47a1;fill-opacity:0;fill-rule:evenodd;stroke:none;stroke-width:0;stroke-miterlimit:4;stroke-dasharray:none;stroke-opacity:1"
     d="M 43.235018,56.359458 C 22.863546,53.391798 7.1022215,37.572248 4.0111364,16.990698 2.3915711,6.2070512 2.9839331,-14.166367 5.208204,-24.180677 c 0.419074,-1.886793 2.1049942,-6.302408 3.7464892,-9.812478 2.5366228,-5.424156 3.8431998,-7.230998 8.7059888,-12.039352 4.47432,-4.424235 6.985171,-6.274564 11.518999,-8.488726 8.28151,-4.0444 10.698878,-4.496807 22.491165,-4.209192 l 10.223909,0.249363 7.39691,3.676889 c 5.851937,2.908908 8.356774,4.636757 11.9925,8.272477 11.931376,11.931379 16.097804,28.503633 13.726477,54.5980172 -0.9981,10.9832248 -2.457942,16.7852068 -6.009729,23.8849328 -5.255966,10.506254 -15.35869,19.116744 -26.579431,22.653464 -2.998271,0.94505 -13.341495,2.6663 -14.629406,2.43454 -0.255713,-0.046 -2.30639,-0.35192 -4.557058,-0.6798 z M 25.874108,33.23465 c 1.700334,-1.817791 4.357632,-5.309832 5.905105,-7.760082 2.612757,-4.137009 11.617182,-13.109256 16.039244,-15.9819348 1.830216,-1.188949 1.929825,-1.172657 5.572368,0.9113958 4.489764,2.568782 5.776798,2.648926 6.627019,0.412673 0.799375,-2.1025098 0.333829,-3.4693258 -2.171809,-6.3763128 -1.06841,-1.239546 -1.942563,-2.596955 -1.942563,-3.016463 0,-0.419509 1.044913,-2.33843995 2.322029,-4.264291 3.167542,-4.776555 6.880758,-11.7607322 8.299954,-15.6113592 0.683365,-1.854138 3.428972,-5.828422 6.555211,-9.488707 5.353297,-6.267794 7.03296,-9.699318 5.497297,-11.230872 -1.396316,-1.392579 -10.65402,4.03754 -16.199389,9.501775 -3.904802,3.84767 -5.114017,5.55316 -6.080734,8.576329 -1.8245,5.705672 -5.638732,11.5694202 -8.374135,12.8738442 -2.149174,1.024869 -2.586844,1.025024 -5.580949,0.002 -8.281887,-2.8298242 -13.25582,-1.8580512 -9.293784,1.815756 1.052829,0.976238 2.115427,1.774978 2.361328,1.774978 0.699015,0 2.654407,5.32429205 2.654407,7.227624 0,2.12028 -2.656314,6.347845 -4.332227,6.894805 -0.684611,0.223438 -3.045405,2.1681848 -5.246209,4.3216738 -3.376228,3.303637 -4.234748,4.661091 -5.494492,8.687637 -2.328913,7.443952 -2.715366,14.034641 -0.82294,14.034641 0.337564,0 2.004935,-1.487286 3.705269,-3.305084 z"
     id="path938"
     inkscape:connector-curvature="0" />
  <path
     style="opacity:0;fill:#0d47a1;fill-opacity:0;fill-rule:evenodd;stroke:none;stroke-width:0;stroke-miterlimit:4;stroke-dasharray:none;stroke-opacity:1"
     d="M 43.235018,56.359458 C 22.863546,53.391798 7.1022215,37.572248 4.0111364,16.990698 2.3915711,6.2070512 2.9839331,-14.166367 5.208204,-24.180677 c 0.419074,-1.886793 2.1049942,-6.302408 3.7464892,-9.812478 2.5366228,-5.424156 3.8431998,-7.230998 8.7059888,-12.039352 4.47432,-4.424235 6.985171,-6.274564 11.518999,-8.488726 8.28151,-4.0444 10.698878,-4.496807 22.491165,-4.209192 l 10.223909,0.249363 7.39691,3.676889 c 5.851937,2.908908 8.356774,4.636757 11.9925,8.272477 11.931376,11.931379 16.097804,28.503633 13.726477,54.5980172 -0.9981,10.9832248 -2.457942,16.7852068 -6.009729,23.8849328 -5.255966,10.506254 -15.35869,19.116744 -26.579431,22.653464 -2.998271,0.94505 -13.341495,2.6663 -14.629406,2.43454 -0.255713,-0.046 -2.30639,-0.35192 -4.557058,-0.6798 z M 25.874108,33.23465 c 1.700334,-1.817791 4.357632,-5.309832 5.905105,-7.760082 2.612757,-4.137009 11.617182,-13.109256 16.039244,-15.9819348 1.830216,-1.188949 1.929825,-1.172657 5.572368,0.9113958 4.489764,2.568782 5.776798,2.648926 6.627019,0.412673 0.799375,-2.1025098 0.333829,-3.4693258 -2.171809,-6.3763128 -1.06841,-1.239546 -1.942563,-2.596955 -1.942563,-3.016463 0,-0.419509 1.044913,-2.33843995 2.322029,-4.264291 3.167542,-4.776555 6.880758,-11.7607322 8.299954,-15.6113592 0.683365,-1.854138 3.428972,-5.828422 6.555211,-9.488707 5.353297,-6.267794 7.03296,-9.699318 5.497297,-11.230872 -1.396316,-1.392579 -10.65402,4.03754 -16.199389,9.501775 -3.904802,3.84767 -5.114017,5.55316 -6.080734,8.576329 -1.8245,5.705672 -5.638732,11.5694202 -8.374135,12.8738442 -2.149174,1.024869 -2.586844,1.025024 -5.580949,0.002 -8.281887,-2.8298242 -13.25582,-1.8580512 -9.293784,1.815756 1.052829,0.976238 2.115427,1.774978 2.361328,1.774978 0.699015,0 2.654407,5.32429205 2.654407,7.227624 0,2.12028 -2.656314,6.347845 -4.332227,6.894805 -0.684611,0.223438 -3.045405,2.1681848 -5.246209,4.3216738 -3.376228,3.303637 -4.234748,4.661091 -5.494492,8.687637 -2.328913,7.443952 -2.715366,14.034641 -0.82294,14.034641 0.337564,0 2.004935,-1.487286 3.705269,-3.305084 z"
     id="path940"
     inkscape:connector-curvature="0" />
  <path
     style="opacity:0;fill:#0d47a1;fill-opacity:0;fill-rule:evenodd;stroke:none;stroke-width:0;stroke-miterlimit:4;stroke-dasharray:none;stroke-opacity:1"
     d="M 43.235018,56.359458 C 22.863546,53.391798 7.1022215,37.572248 4.0111364,16.990698 2.3915711,6.2070512 2.9839331,-14.166367 5.208204,-24.180677 c 0.419074,-1.886793 2.1049942,-6.302408 3.7464892,-9.812478 2.5366228,-5.424156 3.8431998,-7.230998 8.7059888,-12.039352 4.47432,-4.424235 6.985171,-6.274564 11.518999,-8.488726 8.28151,-4.0444 10.698878,-4.496807 22.491165,-4.209192 l 10.223909,0.249363 7.39691,3.676889 c 5.851937,2.908908 8.356774,4.636757 11.9925,8.272477 11.931376,11.931379 16.097804,28.503633 13.726477,54.5980172 -0.9981,10.9832248 -2.457942,16.7852068 -6.009729,23.8849328 -5.255966,10.506254 -15.35869,19.116744 -26.579431,22.653464 -2.998271,0.94505 -13.341495,2.6663 -14.629406,2.43454 -0.255713,-0.046 -2.30639,-0.35192 -4.557058,-0.6798 z M 25.874108,33.23465 c 1.700334,-1.817791 4.357632,-5.309832 5.905105,-7.760082 2.612757,-4.137009 11.617182,-13.109256 16.039244,-15.9819348 1.830216,-1.188949 1.929825,-1.172657 5.572368,0.9113958 4.489764,2.568782 5.776798,2.648926 6.627019,0.412673 0.799375,-2.1025098 0.333829,-3.4693258 -2.171809,-6.3763128 -1.06841,-1.239546 -1.942563,-2.596955 -1.942563,-3.016463 0,-0.419509 1.044913,-2.33843995 2.322029,-4.264291 3.167542,-4.776555 6.880758,-11.7607322 8.299954,-15.6113592 0.683365,-1.854138 3.428972,-5.828422 6.555211,-9.488707 5.353297,-6.267794 7.03296,-9.699318 5.497297,-11.230872 -1.396316,-1.392579 -10.65402,4.03754 -16.199389,9.501775 -3.904802,3.84767 -5.114017,5.55316 -6.080734,8.576329 -1.8245,5.705672 -5.638732,11.5694202 -8.374135,12.8738442 -2.149174,1.024869 -2.586844,1.025024 -5.580949,0.002 -8.281887,-2.8298242 -13.25582,-1.8580512 -9.293784,1.815756 1.052829,0.976238 2.115427,1.774978 2.361328,1.774978 0.699015,0 2.654407,5.32429205 2.654407,7.227624 0,2.12028 -2.656314,6.347845 -4.332227,6.894805 -0.684611,0.223438 -3.045405,2.1681848 -5.246209,4.3216738 -3.376228,3.303637 -4.234748,4.661091 -5.494492,8.687637 -2.328913,7.443952 -2.715366,14.034641 -0.82294,14.034641 0.337564,0 2.004935,-1.487286 3.705269,-3.305084 z"
     id="path942"
     inkscape:connector-curvature="0" />
  <path
     style="opacity:0;fill:#0d47a1;fill-opacity:0;fill-rule:evenodd;stroke:none;stroke-width:0;stroke-miterlimit:4;stroke-dasharray:none;stroke-opacity:1"
     d="M 43.235018,56.359458 C 22.863546,53.391798 7.1022215,37.572248 4.0111364,16.990698 2.3915711,6.2070512 2.9839331,-14.166367 5.208204,-24.180677 c 0.419074,-1.886793 2.1049942,-6.302408 3.7464892,-9.812478 2.5366228,-5.424156 3.8431998,-7.230998 8.7059888,-12.039352 4.47432,-4.424235 6.985171,-6.274564 11.518999,-8.488726 8.28151,-4.0444 10.698878,-4.496807 22.491165,-4.209192 l 10.223909,0.249363 7.39691,3.676889 c 5.851937,2.908908 8.356774,4.636757 11.9925,8.272477 11.931376,11.931379 16.097804,28.503633 13.726477,54.5980172 -0.9981,10.9832248 -2.457942,16.7852068 -6.009729,23.8849328 -5.255966,10.506254 -15.35869,19.116744 -26.579431,22.653464 -2.998271,0.94505 -13.341495,2.6663 -14.629406,2.43454 -0.255713,-0.046 -2.30639,-0.35192 -4.557058,-0.6798 z M 25.874108,33.23465 c 1.700334,-1.817791 4.357632,-5.309832 5.905105,-7.760082 2.612757,-4.137009 11.617182,-13.109256 16.039244,-15.9819348 1.830216,-1.188949 1.929825,-1.172657 5.572368,0.9113958 4.489764,2.568782 5.776798,2.648926 6.627019,0.412673 0.799375,-2.1025098 0.333829,-3.4693258 -2.171809,-6.3763128 -1.06841,-1.239546 -1.942563,-2.596955 -1.942563,-3.016463 0,-0.419509 1.044913,-2.33843995 2.322029,-4.264291 3.167542,-4.776555 6.880758,-11.7607322 8.299954,-15.6113592 0.683365,-1.854138 3.428972,-5.828422 6.555211,-9.488707 5.353297,-6.267794 7.03296,-9.699318 5.497297,-11.230872 -1.396316,-1.392579 -10.65402,4.03754 -16.199389,9.501775 -3.904802,3.84767 -5.114017,5.55316 -6.080734,8.576329 -1.8245,5.705672 -5.638732,11.5694202 -8.374135,12.8738442 -2.149174,1.024869 -2.586844,1.025024 -5.580949,0.002 -8.281887,-2.8298242 -13.25582,-1.8580512 -9.293784,1.815756 1.052829,0.976238 2.115427,1.774978 2.361328,1.774978 0.699015,0 2.654407,5.32429205 2.654407,7.227624 0,2.12028 -2.656314,6.347845 -4.332227,6.894805 -0.684611,0.223438 -3.045405,2.1681848 -5.246209,4.3216738 -3.376228,3.303637 -4.234748,4.661091 -5.494492,8.687637 -2.328913,7.443952 -2.715366,14.034641 -0.82294,14.034641 0.337564,0 2.004935,-1.487286 3.705269,-3.305084 z"
     id="path944"
     inkscape:connector-curvature="0" />
  <path
     style="opacity:0;fill:#0d47a1;fill-opacity:0;fill-rule:evenodd;stroke:none;stroke-width:0;stroke-miterlimit:4;stroke-dasharray:none;stroke-opacity:1"
     d="M 43.235018,56.359458 C 22.863546,53.391798 7.1022215,37.572248 4.0111364,16.990698 2.3915711,6.2070512 2.9839331,-14.166367 5.208204,-24.180677 c 0.419074,-1.886793 2.1049942,-6.302408 3.7464892,-9.812478 2.5366228,-5.424156 3.8431998,-7.230998 8.7059888,-12.039352 4.47432,-4.424235 6.985171,-6.274564 11.518999,-8.488726 8.28151,-4.0444 10.698878,-4.496807 22.491165,-4.209192 l 10.223909,0.249363 7.39691,3.676889 c 5.851937,2.908908 8.356774,4.636757 11.9925,8.272477 11.931376,11.931379 16.097804,28.503633 13.726477,54.5980172 -0.9981,10.9832248 -2.457942,16.7852068 -6.009729,23.8849328 -5.255966,10.506254 -15.35869,19.116744 -26.579431,22.653464 -2.998271,0.94505 -13.341495,2.6663 -14.629406,2.43454 -0.255713,-0.046 -2.30639,-0.35192 -4.557058,-0.6798 z M 25.874108,33.23465 c 1.700334,-1.817791 4.357632,-5.309832 5.905105,-7.760082 2.612757,-4.137009 11.617182,-13.109256 16.039244,-15.9819348 1.830216,-1.188949 1.929825,-1.172657 5.572368,0.9113958 4.489764,2.568782 5.776798,2.648926 6.627019,0.412673 0.799375,-2.1025098 0.333829,-3.4693258 -2.171809,-6.3763128 -1.06841,-1.239546 -1.942563,-2.596955 -1.942563,-3.016463 0,-0.419509 1.044913,-2.33843995 2.322029,-4.264291 3.167542,-4.776555 6.880758,-11.7607322 8.299954,-15.6113592 0.683365,-1.854138 3.428972,-5.828422 6.555211,-9.488707 5.353297,-6.267794 7.03296,-9.699318 5.497297,-11.230872 -1.396316,-1.392579 -10.65402,4.03754 -16.199389,9.501775 -3.904802,3.84767 -5.114017,5.55316 -6.080734,8.576329 -1.8245,5.705672 -5.638732,11.5694202 -8.374135,12.8738442 -2.149174,1.024869 -2.586844,1.025024 -5.580949,0.002 -8.281887,-2.8298242 -13.25582,-1.8580512 -9.293784,1.815756 1.052829,0.976238 2.115427,1.774978 2.361328,1.774978 0.699015,0 2.654407,5.32429205 2.654407,7.227624 0,2.12028 -2.656314,6.347845 -4.332227,6.894805 -0.684611,0.223438 -3.045405,2.1681848 -5.246209,4.3216738 -3.376228,3.303637 -4.234748,4.661091 -5.494492,8.687637 -2.328913,7.443952 -2.715366,14.034641 -0.82294,14.034641 0.337564,0 2.004935,-1.487286 3.705269,-3.305084 z"
     id="path946"
     inkscape:connector-curvature="0" />
  <path
     style="opacity:0;fill:#0d47a1;fill-opacity:0;fill-rule:evenodd;stroke:none;stroke-width:0;stroke-miterlimit:4;stroke-dasharray:none;stroke-opacity:1"
     d="M 43.235018,56.359458 C 22.863546,53.391798 7.1022215,37.572248 4.0111364,16.990698 2.3915711,6.2070512 2.9839331,-14.166367 5.208204,-24.180677 c 0.419074,-1.886793 2.1049942,-6.302408 3.7464892,-9.812478 2.5366228,-5.424156 3.8431998,-7.230998 8.7059888,-12.039352 4.47432,-4.424235 6.985171,-6.274564 11.518999,-8.488726 8.28151,-4.0444 10.698878,-4.496807 22.491165,-4.209192 l 10.223909,0.249363 7.39691,3.676889 c 5.851937,2.908908 8.356774,4.636757 11.9925,8.272477 11.931376,11.931379 16.097804,28.503633 13.726477,54.5980172 -0.9981,10.9832248 -2.457942,16.7852068 -6.009729,23.8849328 -5.255966,10.506254 -15.35869,19.116744 -26.579431,22.653464 -2.998271,0.94505 -13.341495,2.6663 -14.629406,2.43454 -0.255713,-0.046 -2.30639,-0.35192 -4.557058,-0.6798 z M 25.874108,33.23465 c 1.700334,-1.817791 4.357632,-5.309832 5.905105,-7.760082 2.612757,-4.137009 11.617182,-13.109256 16.039244,-15.9819348 1.830216,-1.188949 1.929825,-1.172657 5.572368,0.9113958 4.489764,2.568782 5.776798,2.648926 6.627019,0.412673 0.799375,-2.1025098 0.333829,-3.4693258 -2.171809,-6.3763128 -1.06841,-1.239546 -1.942563,-2.596955 -1.942563,-3.016463 0,-0.419509 1.044913,-2.33843995 2.322029,-4.264291 3.167542,-4.776555 6.880758,-11.7607322 8.299954,-15.6113592 0.683365,-1.854138 3.428972,-5.828422 6.555211,-9.488707 5.353297,-6.267794 7.03296,-9.699318 5.497297,-11.230872 -1.396316,-1.392579 -10.65402,4.03754 -16.199389,9.501775 -3.904802,3.84767 -5.114017,5.55316 -6.080734,8.576329 -1.8245,5.705672 -5.638732,11.5694202 -8.374135,12.8738442 -2.149174,1.024869 -2.586844,1.025024 -5.580949,0.002 -8.281887,-2.8298242 -13.25582,-1.8580512 -9.293784,1.815756 1.052829,0.976238 2.115427,1.774978 2.361328,1.774978 0.699015,0 2.654407,5.32429205 2.654407,7.227624 0,2.12028 -2.656314,6.347845 -4.332227,6.894805 -0.684611,0.223438 -3.045405,2.1681848 -5.246209,4.3216738 -3.376228,3.303637 -4.234748,4.661091 -5.494492,8.687637 -2.328913,7.443952 -2.715366,14.034641 -0.82294,14.034641 0.337564,0 2.004935,-1.487286 3.705269,-3.305084 z"
     id="path948"
     inkscape:connector-curvature="0" />
  <path
     style="opacity:0;fill:#0d47a1;fill-opacity:0;fill-rule:evenodd;stroke:none;stroke-width:0;stroke-miterlimit:4;stroke-dasharray:none;stroke-opacity:1"
     d="M 43.235018,56.359458 C 22.863546,53.391798 7.1022215,37.572248 4.0111364,16.990698 2.3915711,6.2070512 2.9839331,-14.166367 5.208204,-24.180677 c 0.419074,-1.886793 2.1049942,-6.302408 3.7464892,-9.812478 2.5366228,-5.424156 3.8431998,-7.230998 8.7059888,-12.039352 4.47432,-4.424235 6.985171,-6.274564 11.518999,-8.488726 8.28151,-4.0444 10.698878,-4.496807 22.491165,-4.209192 l 10.223909,0.249363 7.39691,3.676889 c 5.851937,2.908908 8.356774,4.636757 11.9925,8.272477 11.931376,11.931379 16.097804,28.503633 13.726477,54.5980172 -0.9981,10.9832248 -2.457942,16.7852068 -6.009729,23.8849328 -5.255966,10.506254 -15.35869,19.116744 -26.579431,22.653464 -2.998271,0.94505 -13.341495,2.6663 -14.629406,2.43454 -0.255713,-0.046 -2.30639,-0.35192 -4.557058,-0.6798 z M 25.874108,33.23465 c 1.700334,-1.817791 4.357632,-5.309832 5.905105,-7.760082 2.612757,-4.137009 11.617182,-13.109256 16.039244,-15.9819348 1.830216,-1.188949 1.929825,-1.172657 5.572368,0.9113958 4.489764,2.568782 5.776798,2.648926 6.627019,0.412673 0.799375,-2.1025098 0.333829,-3.4693258 -2.171809,-6.3763128 -1.06841,-1.239546 -1.942563,-2.596955 -1.942563,-3.016463 0,-0.419509 1.044913,-2.33843995 2.322029,-4.264291 3.167542,-4.776555 6.880758,-11.7607322 8.299954,-15.6113592 0.683365,-1.854138 3.428972,-5.828422 6.555211,-9.488707 5.353297,-6.267794 7.03296,-9.699318 5.497297,-11.230872 -1.396316,-1.392579 -10.65402,4.03754 -16.199389,9.501775 -3.904802,3.84767 -5.114017,5.55316 -6.080734,8.576329 -1.8245,5.705672 -5.638732,11.5694202 -8.374135,12.8738442 -2.149174,1.024869 -2.586844,1.025024 -5.580949,0.002 -8.281887,-2.8298242 -13.25582,-1.8580512 -9.293784,1.815756 1.052829,0.976238 2.115427,1.774978 2.361328,1.774978 0.699015,0 2.654407,5.32429205 2.654407,7.227624 0,2.12028 -2.656314,6.347845 -4.332227,6.894805 -0.684611,0.223438 -3.045405,2.1681848 -5.246209,4.3216738 -3.376228,3.303637 -4.234748,4.661091 -5.494492,8.687637 -2.328913,7.443952 -2.715366,14.034641 -0.82294,14.034641 0.337564,0 2.004935,-1.487286 3.705269,-3.305084 z"
     id="path950"
     inkscape:connector-curvature="0" />
  <path
     style="opacity:0;fill:#0d47a1;fill-opacity:0;fill-rule:evenodd;stroke:none;stroke-width:0;stroke-miterlimit:4;stroke-dasharray:none;stroke-opacity:1"
     d="M 43.235018,56.359458 C 22.863546,53.391798 7.1022215,37.572248 4.0111364,16.990698 2.3915711,6.2070512 2.9839331,-14.166367 5.208204,-24.180677 c 0.419074,-1.886793 2.1049942,-6.302408 3.7464892,-9.812478 2.5366228,-5.424156 3.8431998,-7.230998 8.7059888,-12.039352 4.47432,-4.424235 6.985171,-6.274564 11.518999,-8.488726 8.28151,-4.0444 10.698878,-4.496807 22.491165,-4.209192 l 10.223909,0.249363 7.39691,3.676889 c 5.851937,2.908908 8.356774,4.636757 11.9925,8.272477 11.931376,11.931379 16.097804,28.503633 13.726477,54.5980172 -0.9981,10.9832248 -2.457942,16.7852068 -6.009729,23.8849328 -5.255966,10.506254 -15.35869,19.116744 -26.579431,22.653464 -2.998271,0.94505 -13.341495,2.6663 -14.629406,2.43454 -0.255713,-0.046 -2.30639,-0.35192 -4.557058,-0.6798 z M 25.874108,33.23465 c 1.700334,-1.817791 4.357632,-5.309832 5.905105,-7.760082 2.612757,-4.137009 11.617182,-13.109256 16.039244,-15.9819348 1.830216,-1.188949 1.929825,-1.172657 5.572368,0.9113958 4.489764,2.568782 5.776798,2.648926 6.627019,0.412673 0.799375,-2.1025098 0.333829,-3.4693258 -2.171809,-6.3763128 -1.06841,-1.239546 -1.942563,-2.596955 -1.942563,-3.016463 0,-0.419509 1.044913,-2.33843995 2.322029,-4.264291 3.167542,-4.776555 6.880758,-11.7607322 8.299954,-15.6113592 0.683365,-1.854138 3.428972,-5.828422 6.555211,-9.488707 5.353297,-6.267794 7.03296,-9.699318 5.497297,-11.230872 -1.396316,-1.392579 -10.65402,4.03754 -16.199389,9.501775 -3.904802,3.84767 -5.114017,5.55316 -6.080734,8.576329 -1.8245,5.705672 -5.638732,11.5694202 -8.374135,12.8738442 -2.149174,1.024869 -2.586844,1.025024 -5.580949,0.002 -8.281887,-2.8298242 -13.25582,-1.8580512 -9.293784,1.815756 1.052829,0.976238 2.115427,1.774978 2.361328,1.774978 0.699015,0 2.654407,5.32429205 2.654407,7.227624 0,2.12028 -2.656314,6.347845 -4.332227,6.894805 -0.684611,0.223438 -3.045405,2.1681848 -5.246209,4.3216738 -3.376228,3.303637 -4.234748,4.661091 -5.494492,8.687637 -2.328913,7.443952 -2.715366,14.034641 -0.82294,14.034641 0.337564,0 2.004935,-1.487286 3.705269,-3.305084 z"
     id="path952"
     inkscape:connector-curvature="0" />
  <path
     style="opacity:0;fill:#0d47a1;fill-opacity:0;fill-rule:evenodd;stroke:none;stroke-width:0;stroke-miterlimit:4;stroke-dasharray:none;stroke-opacity:1"
     d="M 43.235018,56.359458 C 22.863546,53.391798 7.1022215,37.572248 4.0111364,16.990698 2.3915711,6.2070512 2.9839331,-14.166367 5.208204,-24.180677 c 0.419074,-1.886793 2.1049942,-6.302408 3.7464892,-9.812478 2.5366228,-5.424156 3.8431998,-7.230998 8.7059888,-12.039352 4.47432,-4.424235 6.985171,-6.274564 11.518999,-8.488726 8.28151,-4.0444 10.698878,-4.496807 22.491165,-4.209192 l 10.223909,0.249363 7.39691,3.676889 c 5.851937,2.908908 8.356774,4.636757 11.9925,8.272477 11.931376,11.931379 16.097804,28.503633 13.726477,54.5980172 -0.9981,10.9832248 -2.457942,16.7852068 -6.009729,23.8849328 -5.255966,10.506254 -15.35869,19.116744 -26.579431,22.653464 -2.998271,0.94505 -13.341495,2.6663 -14.629406,2.43454 -0.255713,-0.046 -2.30639,-0.35192 -4.557058,-0.6798 z M 25.874108,33.23465 c 1.700334,-1.817791 4.357632,-5.309832 5.905105,-7.760082 2.612757,-4.137009 11.617182,-13.109256 16.039244,-15.9819348 1.830216,-1.188949 1.929825,-1.172657 5.572368,0.9113958 4.489764,2.568782 5.776798,2.648926 6.627019,0.412673 0.799375,-2.1025098 0.333829,-3.4693258 -2.171809,-6.3763128 -1.06841,-1.239546 -1.942563,-2.596955 -1.942563,-3.016463 0,-0.419509 1.044913,-2.33843995 2.322029,-4.264291 3.167542,-4.776555 6.880758,-11.7607322 8.299954,-15.6113592 0.683365,-1.854138 3.428972,-5.828422 6.555211,-9.488707 5.353297,-6.267794 7.03296,-9.699318 5.497297,-11.230872 -1.396316,-1.392579 -10.65402,4.03754 -16.199389,9.501775 -3.904802,3.84767 -5.114017,5.55316 -6.080734,8.576329 -1.8245,5.705672 -5.638732,11.5694202 -8.374135,12.8738442 -2.149174,1.024869 -2.586844,1.025024 -5.580949,0.002 -8.281887,-2.8298242 -13.25582,-1.8580512 -9.293784,1.815756 1.052829,0.976238 2.115427,1.774978 2.361328,1.774978 0.699015,0 2.654407,5.32429205 2.654407,7.227624 0,2.12028 -2.656314,6.347845 -4.332227,6.894805 -0.684611,0.223438 -3.045405,2.1681848 -5.246209,4.3216738 -3.376228,3.303637 -4.234748,4.661091 -5.494492,8.687637 -2.328913,7.443952 -2.715366,14.034641 -0.82294,14.034641 0.337564,0 2.004935,-1.487286 3.705269,-3.305084 z"
     id="path954"
     inkscape:connector-curvature="0" />
  <path
     style="opacity:0;fill:#0d47a1;fill-opacity:0;fill-rule:evenodd;stroke:none;stroke-width:0;stroke-miterlimit:4;stroke-dasharray:none;stroke-opacity:1"
     d="M 43.235018,56.359458 C 22.863546,53.391798 7.1022215,37.572248 4.0111364,16.990698 2.3915711,6.2070512 2.9839331,-14.166367 5.208204,-24.180677 c 0.419074,-1.886793 2.1049942,-6.302408 3.7464892,-9.812478 2.5366228,-5.424156 3.8431998,-7.230998 8.7059888,-12.039352 4.47432,-4.424235 6.985171,-6.274564 11.518999,-8.488726 8.28151,-4.0444 10.698878,-4.496807 22.491165,-4.209192 l 10.223909,0.249363 7.39691,3.676889 c 5.851937,2.908908 8.356774,4.636757 11.9925,8.272477 11.931376,11.931379 16.097804,28.503633 13.726477,54.5980172 -0.9981,10.9832248 -2.457942,16.7852068 -6.009729,23.8849328 -5.255966,10.506254 -15.35869,19.116744 -26.579431,22.653464 -2.998271,0.94505 -13.341495,2.6663 -14.629406,2.43454 -0.255713,-0.046 -2.30639,-0.35192 -4.557058,-0.6798 z M 25.874108,33.23465 c 1.700334,-1.817791 4.357632,-5.309832 5.905105,-7.760082 2.612757,-4.137009 11.617182,-13.109256 16.039244,-15.9819348 1.830216,-1.188949 1.929825,-1.172657 5.572368,0.9113958 4.489764,2.568782 5.776798,2.648926 6.627019,0.412673 0.799375,-2.1025098 0.333829,-3.4693258 -2.171809,-6.3763128 -1.06841,-1.239546 -1.942563,-2.596955 -1.942563,-3.016463 0,-0.419509 1.044913,-2.33843995 2.322029,-4.264291 3.167542,-4.776555 6.880758,-11.7607322 8.299954,-15.6113592 0.683365,-1.854138 3.428972,-5.828422 6.555211,-9.488707 5.353297,-6.267794 7.03296,-9.699318 5.497297,-11.230872 -1.396316,-1.392579 -10.65402,4.03754 -16.199389,9.501775 -3.904802,3.84767 -5.114017,5.55316 -6.080734,8.576329 -1.8245,5.705672 -5.638732,11.5694202 -8.374135,12.8738442 -2.149174,1.024869 -2.586844,1.025024 -5.580949,0.002 -8.281887,-2.8298242 -13.25582,-1.8580512 -9.293784,1.815756 1.052829,0.976238 2.115427,1.774978 2.361328,1.774978 0.699015,0 2.654407,5.32429205 2.654407,7.227624 0,2.12028 -2.656314,6.347845 -4.332227,6.894805 -0.684611,0.223438 -3.045405,2.1681848 -5.246209,4.3216738 -3.376228,3.303637 -4.234748,4.661091 -5.494492,8.687637 -2.328913,7.443952 -2.715366,14.034641 -0.82294,14.034641 0.337564,0 2.004935,-1.487286 3.705269,-3.305084 z"
     id="path956"
     inkscape:connector-curvature="0" />
  <path
     style="opacity:0;fill:#0d47a1;fill-opacity:0;fill-rule:evenodd;stroke:none;stroke-width:0;stroke-miterlimit:4;stroke-dasharray:none;stroke-opacity:1"
     d="M 43.235018,56.359458 C 22.863546,53.391798 7.1022215,37.572248 4.0111364,16.990698 2.3915711,6.2070512 2.9839331,-14.166367 5.208204,-24.180677 c 0.419074,-1.886793 2.1049942,-6.302408 3.7464892,-9.812478 2.5366228,-5.424156 3.8431998,-7.230998 8.7059888,-12.039352 4.47432,-4.424235 6.985171,-6.274564 11.518999,-8.488726 8.28151,-4.0444 10.698878,-4.496807 22.491165,-4.209192 l 10.223909,0.249363 7.39691,3.676889 c 5.851937,2.908908 8.356774,4.636757 11.9925,8.272477 11.931376,11.931379 16.097804,28.503633 13.726477,54.5980172 -0.9981,10.9832248 -2.457942,16.7852068 -6.009729,23.8849328 -5.255966,10.506254 -15.35869,19.116744 -26.579431,22.653464 -2.998271,0.94505 -13.341495,2.6663 -14.629406,2.43454 -0.255713,-0.046 -2.30639,-0.35192 -4.557058,-0.6798 z M 25.874108,33.23465 c 1.700334,-1.817791 4.357632,-5.309832 5.905105,-7.760082 2.612757,-4.137009 11.617182,-13.109256 16.039244,-15.9819348 1.830216,-1.188949 1.929825,-1.172657 5.572368,0.9113958 4.489764,2.568782 5.776798,2.648926 6.627019,0.412673 0.799375,-2.1025098 0.333829,-3.4693258 -2.171809,-6.3763128 -1.06841,-1.239546 -1.942563,-2.596955 -1.942563,-3.016463 0,-0.419509 1.044913,-2.33843995 2.322029,-4.264291 3.167542,-4.776555 6.880758,-11.7607322 8.299954,-15.6113592 0.683365,-1.854138 3.428972,-5.828422 6.555211,-9.488707 5.353297,-6.267794 7.03296,-9.699318 5.497297,-11.230872 -1.396316,-1.392579 -10.65402,4.03754 -16.199389,9.501775 -3.904802,3.84767 -5.114017,5.55316 -6.080734,8.576329 -1.8245,5.705672 -5.638732,11.5694202 -8.374135,12.8738442 -2.149174,1.024869 -2.586844,1.025024 -5.580949,0.002 -8.281887,-2.8298242 -13.25582,-1.8580512 -9.293784,1.815756 1.052829,0.976238 2.115427,1.774978 2.361328,1.774978 0.699015,0 2.654407,5.32429205 2.654407,7.227624 0,2.12028 -2.656314,6.347845 -4.332227,6.894805 -0.684611,0.223438 -3.045405,2.1681848 -5.246209,4.3216738 -3.376228,3.303637 -4.234748,4.661091 -5.494492,8.687637 -2.328913,7.443952 -2.715366,14.034641 -0.82294,14.034641 0.337564,0 2.004935,-1.487286 3.705269,-3.305084 z"
     id="path958"
     inkscape:connector-curvature="0" />
  <path
     style="opacity:0;fill:#0d47a1;fill-opacity:0;fill-rule:evenodd;stroke:none;stroke-width:0;stroke-miterlimit:4;stroke-dasharray:none;stroke-opacity:1"
     d="M 43.235018,56.359458 C 22.863546,53.391798 7.1022215,37.572248 4.0111364,16.990698 2.3915711,6.2070512 2.9839331,-14.166367 5.208204,-24.180677 c 0.419074,-1.886793 2.1049942,-6.302408 3.7464892,-9.812478 2.5366228,-5.424156 3.8431998,-7.230998 8.7059888,-12.039352 4.47432,-4.424235 6.985171,-6.274564 11.518999,-8.488726 8.28151,-4.0444 10.698878,-4.496807 22.491165,-4.209192 l 10.223909,0.249363 7.39691,3.676889 c 5.851937,2.908908 8.356774,4.636757 11.9925,8.272477 11.931376,11.931379 16.097804,28.503633 13.726477,54.5980172 -0.9981,10.9832248 -2.457942,16.7852068 -6.009729,23.8849328 -5.255966,10.506254 -15.35869,19.116744 -26.579431,22.653464 -2.998271,0.94505 -13.341495,2.6663 -14.629406,2.43454 -0.255713,-0.046 -2.30639,-0.35192 -4.557058,-0.6798 z M 25.874108,33.23465 c 1.700334,-1.817791 4.357632,-5.309832 5.905105,-7.760082 2.612757,-4.137009 11.617182,-13.109256 16.039244,-15.9819348 1.830216,-1.188949 1.929825,-1.172657 5.572368,0.9113958 4.489764,2.568782 5.776798,2.648926 6.627019,0.412673 0.799375,-2.1025098 0.333829,-3.4693258 -2.171809,-6.3763128 -1.06841,-1.239546 -1.942563,-2.596955 -1.942563,-3.016463 0,-0.419509 1.044913,-2.33843995 2.322029,-4.264291 3.167542,-4.776555 6.880758,-11.7607322 8.299954,-15.6113592 0.683365,-1.854138 3.428972,-5.828422 6.555211,-9.488707 5.353297,-6.267794 7.03296,-9.699318 5.497297,-11.230872 -1.396316,-1.392579 -10.65402,4.03754 -16.199389,9.501775 -3.904802,3.84767 -5.114017,5.55316 -6.080734,8.576329 -1.8245,5.705672 -5.638732,11.5694202 -8.374135,12.8738442 -2.149174,1.024869 -2.586844,1.025024 -5.580949,0.002 -8.281887,-2.8298242 -13.25582,-1.8580512 -9.293784,1.815756 1.052829,0.976238 2.115427,1.774978 2.361328,1.774978 0.699015,0 2.654407,5.32429205 2.654407,7.227624 0,2.12028 -2.656314,6.347845 -4.332227,6.894805 -0.684611,0.223438 -3.045405,2.1681848 -5.246209,4.3216738 -3.376228,3.303637 -4.234748,4.661091 -5.494492,8.687637 -2.328913,7.443952 -2.715366,14.034641 -0.82294,14.034641 0.337564,0 2.004935,-1.487286 3.705269,-3.305084 z"
     id="path960"
     inkscape:connector-curvature="0" />
  <path
     style="opacity:0;fill:#0d47a1;fill-opacity:0;fill-rule:evenodd;stroke:none;stroke-width:0;stroke-miterlimit:4;stroke-dasharray:none;stroke-opacity:1"
     d="M 43.235018,56.359458 C 22.863546,53.391798 7.1022215,37.572248 4.0111364,16.990698 2.3915711,6.2070512 2.9839331,-14.166367 5.208204,-24.180677 c 0.419074,-1.886793 2.1049942,-6.302408 3.7464892,-9.812478 2.5366228,-5.424156 3.8431998,-7.230998 8.7059888,-12.039352 4.47432,-4.424235 6.985171,-6.274564 11.518999,-8.488726 8.28151,-4.0444 10.698878,-4.496807 22.491165,-4.209192 l 10.223909,0.249363 7.39691,3.676889 c 5.851937,2.908908 8.356774,4.636757 11.9925,8.272477 11.931376,11.931379 16.097804,28.503633 13.726477,54.5980172 -0.9981,10.9832248 -2.457942,16.7852068 -6.009729,23.8849328 -5.255966,10.506254 -15.35869,19.116744 -26.579431,22.653464 -2.998271,0.94505 -13.341495,2.6663 -14.629406,2.43454 -0.255713,-0.046 -2.30639,-0.35192 -4.557058,-0.6798 z M 25.874108,33.23465 c 1.700334,-1.817791 4.357632,-5.309832 5.905105,-7.760082 2.612757,-4.137009 11.617182,-13.109256 16.039244,-15.9819348 1.830216,-1.188949 1.929825,-1.172657 5.572368,0.9113958 4.489764,2.568782 5.776798,2.648926 6.627019,0.412673 0.799375,-2.1025098 0.333829,-3.4693258 -2.171809,-6.3763128 -1.06841,-1.239546 -1.942563,-2.596955 -1.942563,-3.016463 0,-0.419509 1.044913,-2.33843995 2.322029,-4.264291 3.167542,-4.776555 6.880758,-11.7607322 8.299954,-15.6113592 0.683365,-1.854138 3.428972,-5.828422 6.555211,-9.488707 5.353297,-6.267794 7.03296,-9.699318 5.497297,-11.230872 -1.396316,-1.392579 -10.65402,4.03754 -16.199389,9.501775 -3.904802,3.84767 -5.114017,5.55316 -6.080734,8.576329 -1.8245,5.705672 -5.638732,11.5694202 -8.374135,12.8738442 -2.149174,1.024869 -2.586844,1.025024 -5.580949,0.002 -8.281887,-2.8298242 -13.25582,-1.8580512 -9.293784,1.815756 1.052829,0.976238 2.115427,1.774978 2.361328,1.774978 0.699015,0 2.654407,5.32429205 2.654407,7.227624 0,2.12028 -2.656314,6.347845 -4.332227,6.894805 -0.684611,0.223438 -3.045405,2.1681848 -5.246209,4.3216738 -3.376228,3.303637 -4.234748,4.661091 -5.494492,8.687637 -2.328913,7.443952 -2.715366,14.034641 -0.82294,14.034641 0.337564,0 2.004935,-1.487286 3.705269,-3.305084 z"
     id="path962"
     inkscape:connector-curvature="0" />
  <path
     style="opacity:0;fill:#0d47a1;fill-opacity:0;fill-rule:evenodd;stroke:none;stroke-width:0;stroke-miterlimit:4;stroke-dasharray:none;stroke-opacity:1"
     d="M 43.235018,56.359458 C 22.863546,53.391798 7.1022215,37.572248 4.0111364,16.990698 2.3915711,6.2070512 2.9839331,-14.166367 5.208204,-24.180677 c 0.419074,-1.886793 2.1049942,-6.302408 3.7464892,-9.812478 2.5366228,-5.424156 3.8431998,-7.230998 8.7059888,-12.039352 4.47432,-4.424235 6.985171,-6.274564 11.518999,-8.488726 8.28151,-4.0444 10.698878,-4.496807 22.491165,-4.209192 l 10.223909,0.249363 7.39691,3.676889 c 5.851937,2.908908 8.356774,4.636757 11.9925,8.272477 11.931376,11.931379 16.097804,28.503633 13.726477,54.5980172 -0.9981,10.9832248 -2.457942,16.7852068 -6.009729,23.8849328 -5.255966,10.506254 -15.35869,19.116744 -26.579431,22.653464 -2.998271,0.94505 -13.341495,2.6663 -14.629406,2.43454 -0.255713,-0.046 -2.30639,-0.35192 -4.557058,-0.6798 z M 25.874108,33.23465 c 1.700334,-1.817791 4.357632,-5.309832 5.905105,-7.760082 2.612757,-4.137009 11.617182,-13.109256 16.039244,-15.9819348 1.830216,-1.188949 1.929825,-1.172657 5.572368,0.9113958 4.489764,2.568782 5.776798,2.648926 6.627019,0.412673 0.799375,-2.1025098 0.333829,-3.4693258 -2.171809,-6.3763128 -1.06841,-1.239546 -1.942563,-2.596955 -1.942563,-3.016463 0,-0.419509 1.044913,-2.33843995 2.322029,-4.264291 3.167542,-4.776555 6.880758,-11.7607322 8.299954,-15.6113592 0.683365,-1.854138 3.428972,-5.828422 6.555211,-9.488707 5.353297,-6.267794 7.03296,-9.699318 5.497297,-11.230872 -1.396316,-1.392579 -10.65402,4.03754 -16.199389,9.501775 -3.904802,3.84767 -5.114017,5.55316 -6.080734,8.576329 -1.8245,5.705672 -5.638732,11.5694202 -8.374135,12.8738442 -2.149174,1.024869 -2.586844,1.025024 -5.580949,0.002 -8.281887,-2.8298242 -13.25582,-1.8580512 -9.293784,1.815756 1.052829,0.976238 2.115427,1.774978 2.361328,1.774978 0.699015,0 2.654407,5.32429205 2.654407,7.227624 0,2.12028 -2.656314,6.347845 -4.332227,6.894805 -0.684611,0.223438 -3.045405,2.1681848 -5.246209,4.3216738 -3.376228,3.303637 -4.234748,4.661091 -5.494492,8.687637 -2.328913,7.443952 -2.715366,14.034641 -0.82294,14.034641 0.337564,0 2.004935,-1.487286 3.705269,-3.305084 z"
     id="path964"
     inkscape:connector-curvature="0" />
  <path
     style="opacity:0;fill:#0d47a1;fill-opacity:0;fill-rule:evenodd;stroke:none;stroke-width:0;stroke-miterlimit:4;stroke-dasharray:none;stroke-opacity:1"
     d="M 41.289407,56.158648 C 23.925415,52.820568 10.228064,40.171718 4.8131515,22.474554 3.7223556,18.909587 3.5576431,15.921374 3.5840438,0.17609825 3.6194951,-20.966931 4.1840084,-24.593693 8.9712483,-34.434433 c 2.5867487,-5.31737 3.9358307,-7.11287 8.9906427,-11.965691 4.839157,-4.645784 7.182828,-6.303567 12.579046,-8.897717 l 6.631832,-3.188154 h 12.349914 12.349914 l 5.077218,2.243082 C 88.929125,-46.532597 97.722127,-27.400625 95.25034,5.3338752 94.232179,18.817628 92.777222,25.019364 88.848933,32.619817 80.136707,49.476228 59.544483,59.668018 41.289407,56.158648 Z M 27.330054,31.538424 c 1.561678,-1.966264 3.759296,-5.061626 4.883595,-6.878587 1.98054,-3.20072 15.685018,-16.2504628 17.065783,-16.2504628 0.375877,0 2.477881,0.994065 4.67112,2.2090358 3.414774,1.89165 4.14712,2.076734 5.097244,1.288199 1.714897,-1.423238 1.331454,-4.3186008 -0.9209,-6.9536838 -1.116739,-1.3065 -2.042983,-2.897619 -2.058319,-3.53582 -0.01533,-0.63820095 1.793777,-4.034427 4.02025,-7.54717 2.226474,-3.512742 4.731344,-8.2987012 5.566378,-10.6354632 0.985199,-2.756983 2.876126,-5.853277 5.385831,-8.81901 6.631547,-7.836553 6.98833,-8.326684 7.591108,-10.428459 0.958608,-3.342466 0.02292,-3.960775 -3.581228,-2.366491 -7.981649,3.530662 -16.964012,11.619181 -18.315159,16.492598 -1.287545,4.644008 -5.79211,12.0090602 -8.207788,13.4198922 -2.055861,1.200688 -2.588228,1.243699 -5.444718,0.439891 -6.19543,-1.743375 -9.937146,-2.1293582 -10.938159,-1.128344 -0.780969,0.780968 -0.679898,1.160648 0.635083,2.385739 0.860124,0.801328 1.829487,1.456959 2.154139,1.456959 0.891517,0 3.235391,5.56923805 3.252546,7.728318 0.01781,2.241391 -2.498866,6.347008 -4.444623,7.250804 -2.781151,1.2918348 -7.818364,6.3945998 -9.267489,9.3880888 -2.570875,5.310724 -4.383679,15.612268 -2.992214,17.003732 0.788807,0.78881 2.970717,-0.897674 5.84752,-4.519766 z"
     id="path1031"
     inkscape:connector-curvature="0" />
  <path
     style="opacity:0;fill:#0d47a1;fill-opacity:0;fill-rule:evenodd;stroke:#000000;stroke-width:0;stroke-miterlimit:4;stroke-dasharray:none;stroke-opacity:1"
     d="M 43.149271,56.348398 C 29.066319,54.286548 15.633183,44.919488 9.2591186,32.716468 4.6479518,23.888482 3.7782234,19.866479 3.3850896,5.5524102 2.6083014,-22.730592 6.2410118,-35.297517 18.551452,-46.913795 c 4.088644,-3.858093 6.99163,-5.872163 12.006861,-8.330269 l 6.614456,-3.241931 h 12.349914 12.349914 l 6.51801,3.144887 c 14.132364,6.818749 22.345572,17.404122 25.774491,33.21875 2.372844,10.943883 1.356775,35.626312 -1.90647,46.312178 -3.576906,11.712961 -12.342738,22.253048 -22.801182,27.416258 -8.504161,4.19841 -18.14869,5.93694 -26.308175,4.74232 z M 25.777788,33.453312 c 1.56473,-1.69753 4.196513,-5.175705 5.848405,-7.729269 2.87316,-4.441448 13.274211,-14.72883 16.76359,-16.5803838 1.418286,-0.752583 2.026873,-0.596927 5.075322,1.2980918 4.498514,2.796433 6.278506,2.588755 6.558151,-0.7651658 0.165956,-1.990392 -0.222469,-2.997758 -1.886793,-4.893317 -1.152673,-1.312823 -2.09577,-2.889666 -2.09577,-3.504097 0,-0.61442995 1.020756,-2.580532 2.268347,-4.369115 3.149008,-4.51451 6.160309,-10.0708032 8.031652,-14.8195772 1.015987,-2.578198 3.382958,-6.119818 6.598252,-9.872741 5.260247,-6.139823 7.205008,-9.962394 5.788892,-11.37851 -2.200762,-2.20076 -19.353175,10.272842 -21.278081,15.473874 -2.373387,6.412816 -5.414466,11.87277 -7.826719,14.0520962 -2.878592,2.600635 -2.371237,2.573206 -10.735001,0.580378 -4.430858,-1.0557382 -7.54717,-0.935058 -7.54717,0.292267 0,0.352599 1.364367,1.986157 3.031928,3.630127 5.18539,5.11203405 4.906645,10.48958 -0.758468,14.632313 -4.384637,3.2063528 -7.813596,6.6734818 -9.140093,9.2418388 -2.127867,4.119966 -3.876975,12.356075 -3.5247,16.596926 0.16698,2.01018 1.839104,1.357112 4.828256,-1.885736 z"
     id="path1033"
     inkscape:connector-curvature="0" />
  <path
     style="opacity:0;fill:#0d47a1;fill-opacity:0;fill-rule:evenodd;stroke:#000000;stroke-width:0;stroke-miterlimit:4;stroke-dasharray:none;stroke-opacity:1"
     d="M 43.149271,56.348398 C 29.066319,54.286548 15.633183,44.919488 9.2591186,32.716468 4.6479518,23.888482 3.7782234,19.866479 3.3850896,5.5524102 2.6083014,-22.730592 6.2410118,-35.297517 18.551452,-46.913795 c 4.088644,-3.858093 6.99163,-5.872163 12.006861,-8.330269 l 6.614456,-3.241931 h 12.349914 12.349914 l 6.51801,3.144887 c 14.132364,6.818749 22.345572,17.404122 25.774491,33.21875 2.372844,10.943883 1.356775,35.626312 -1.90647,46.312178 -3.576906,11.712961 -12.342738,22.253048 -22.801182,27.416258 -8.504161,4.19841 -18.14869,5.93694 -26.308175,4.74232 z M 25.777788,33.453312 c 1.56473,-1.69753 4.196513,-5.175705 5.848405,-7.729269 2.87316,-4.441448 13.274211,-14.72883 16.76359,-16.5803838 1.418286,-0.752583 2.026873,-0.596927 5.075322,1.2980918 4.498514,2.796433 6.278506,2.588755 6.558151,-0.7651658 0.165956,-1.990392 -0.222469,-2.997758 -1.886793,-4.893317 -1.152673,-1.312823 -2.09577,-2.889666 -2.09577,-3.504097 0,-0.61442995 1.020756,-2.580532 2.268347,-4.369115 3.149008,-4.51451 6.160309,-10.0708032 8.031652,-14.8195772 1.015987,-2.578198 3.382958,-6.119818 6.598252,-9.872741 5.260247,-6.139823 7.205008,-9.962394 5.788892,-11.37851 -2.200762,-2.20076 -19.353175,10.272842 -21.278081,15.473874 -2.373387,6.412816 -5.414466,11.87277 -7.826719,14.0520962 -2.878592,2.600635 -2.371237,2.573206 -10.735001,0.580378 -4.430858,-1.0557382 -7.54717,-0.935058 -7.54717,0.292267 0,0.352599 1.364367,1.986157 3.031928,3.630127 5.18539,5.11203405 4.906645,10.48958 -0.758468,14.632313 -4.384637,3.2063528 -7.813596,6.6734818 -9.140093,9.2418388 -2.127867,4.119966 -3.876975,12.356075 -3.5247,16.596926 0.16698,2.01018 1.839104,1.357112 4.828256,-1.885736 z"
     id="path1043"
     inkscape:connector-curvature="0" />
  <path
     style="opacity:0;fill:#0d47a1;fill-opacity:0;fill-rule:evenodd;stroke:#000000;stroke-width:0;stroke-miterlimit:4;stroke-dasharray:none;stroke-opacity:1"
     d="M 43.149271,56.348398 C 29.066319,54.286548 15.633183,44.919488 9.2591186,32.716468 4.6479518,23.888482 3.7782234,19.866479 3.3850896,5.5524102 2.6083014,-22.730592 6.2410118,-35.297517 18.551452,-46.913795 c 4.088644,-3.858093 6.99163,-5.872163 12.006861,-8.330269 l 6.614456,-3.241931 h 12.349914 12.349914 l 6.51801,3.144887 c 14.132364,6.818749 22.345572,17.404122 25.774491,33.21875 2.372844,10.943883 1.356775,35.626312 -1.90647,46.312178 -3.576906,11.712961 -12.342738,22.253048 -22.801182,27.416258 -8.504161,4.19841 -18.14869,5.93694 -26.308175,4.74232 z M 25.777788,33.453312 c 1.56473,-1.69753 4.196513,-5.175705 5.848405,-7.729269 2.87316,-4.441448 13.274211,-14.72883 16.76359,-16.5803838 1.418286,-0.752583 2.026873,-0.596927 5.075322,1.2980918 4.498514,2.796433 6.278506,2.588755 6.558151,-0.7651658 0.165956,-1.990392 -0.222469,-2.997758 -1.886793,-4.893317 -1.152673,-1.312823 -2.09577,-2.889666 -2.09577,-3.504097 0,-0.61442995 1.020756,-2.580532 2.268347,-4.369115 3.149008,-4.51451 6.160309,-10.0708032 8.031652,-14.8195772 1.015987,-2.578198 3.382958,-6.119818 6.598252,-9.872741 5.260247,-6.139823 7.205008,-9.962394 5.788892,-11.37851 -2.200762,-2.20076 -19.353175,10.272842 -21.278081,15.473874 -2.373387,6.412816 -5.414466,11.87277 -7.826719,14.0520962 -2.878592,2.600635 -2.371237,2.573206 -10.735001,0.580378 -4.430858,-1.0557382 -7.54717,-0.935058 -7.54717,0.292267 0,0.352599 1.364367,1.986157 3.031928,3.630127 5.18539,5.11203405 4.906645,10.48958 -0.758468,14.632313 -4.384637,3.2063528 -7.813596,6.6734818 -9.140093,9.2418388 -2.127867,4.119966 -3.876975,12.356075 -3.5247,16.596926 0.16698,2.01018 1.839104,1.357112 4.828256,-1.885736 z"
     id="path1045"
     inkscape:connector-curvature="0" />
  <path
     style="opacity:0;fill:#0d47a1;fill-opacity:0;fill-rule:evenodd;stroke:#000000;stroke-width:0;stroke-miterlimit:4;stroke-dasharray:none;stroke-opacity:1"
     d="M 43.149271,56.348398 C 29.066319,54.286548 15.633183,44.919488 9.2591186,32.716468 4.6479518,23.888482 3.7782234,19.866479 3.3850896,5.5524102 2.6083014,-22.730592 6.2410118,-35.297517 18.551452,-46.913795 c 4.088644,-3.858093 6.99163,-5.872163 12.006861,-8.330269 l 6.614456,-3.241931 h 12.349914 12.349914 l 6.51801,3.144887 c 14.132364,6.818749 22.345572,17.404122 25.774491,33.21875 2.372844,10.943883 1.356775,35.626312 -1.90647,46.312178 -3.576906,11.712961 -12.342738,22.253048 -22.801182,27.416258 -8.504161,4.19841 -18.14869,5.93694 -26.308175,4.74232 z M 25.777788,33.453312 c 1.56473,-1.69753 4.196513,-5.175705 5.848405,-7.729269 2.87316,-4.441448 13.274211,-14.72883 16.76359,-16.5803838 1.418286,-0.752583 2.026873,-0.596927 5.075322,1.2980918 4.498514,2.796433 6.278506,2.588755 6.558151,-0.7651658 0.165956,-1.990392 -0.222469,-2.997758 -1.886793,-4.893317 -1.152673,-1.312823 -2.09577,-2.889666 -2.09577,-3.504097 0,-0.61442995 1.020756,-2.580532 2.268347,-4.369115 3.149008,-4.51451 6.160309,-10.0708032 8.031652,-14.8195772 1.015987,-2.578198 3.382958,-6.119818 6.598252,-9.872741 5.260247,-6.139823 7.205008,-9.962394 5.788892,-11.37851 -2.200762,-2.20076 -19.353175,10.272842 -21.278081,15.473874 -2.373387,6.412816 -5.414466,11.87277 -7.826719,14.0520962 -2.878592,2.600635 -2.371237,2.573206 -10.735001,0.580378 -4.430858,-1.0557382 -7.54717,-0.935058 -7.54717,0.292267 0,0.352599 1.364367,1.986157 3.031928,3.630127 5.18539,5.11203405 4.906645,10.48958 -0.758468,14.632313 -4.384637,3.2063528 -7.813596,6.6734818 -9.140093,9.2418388 -2.127867,4.119966 -3.876975,12.356075 -3.5247,16.596926 0.16698,2.01018 1.839104,1.357112 4.828256,-1.885736 z"
     id="path1047"
     inkscape:connector-curvature="0" />
  <path
     style="opacity:0;fill:#0d47a1;fill-opacity:0;fill-rule:evenodd;stroke:#000000;stroke-width:0;stroke-miterlimit:4;stroke-dasharray:none;stroke-opacity:1"
     d="M 43.149271,56.348398 C 29.066319,54.286548 15.633183,44.919488 9.2591186,32.716468 4.6479518,23.888482 3.7782234,19.866479 3.3850896,5.5524102 2.6083014,-22.730592 6.2410118,-35.297517 18.551452,-46.913795 c 4.088644,-3.858093 6.99163,-5.872163 12.006861,-8.330269 l 6.614456,-3.241931 h 12.349914 12.349914 l 6.51801,3.144887 c 14.132364,6.818749 22.345572,17.404122 25.774491,33.21875 2.372844,10.943883 1.356775,35.626312 -1.90647,46.312178 -3.576906,11.712961 -12.342738,22.253048 -22.801182,27.416258 -8.504161,4.19841 -18.14869,5.93694 -26.308175,4.74232 z M 25.777788,33.453312 c 1.56473,-1.69753 4.196513,-5.175705 5.848405,-7.729269 2.87316,-4.441448 13.274211,-14.72883 16.76359,-16.5803838 1.418286,-0.752583 2.026873,-0.596927 5.075322,1.2980918 4.498514,2.796433 6.278506,2.588755 6.558151,-0.7651658 0.165956,-1.990392 -0.222469,-2.997758 -1.886793,-4.893317 -1.152673,-1.312823 -2.09577,-2.889666 -2.09577,-3.504097 0,-0.61442995 1.020756,-2.580532 2.268347,-4.369115 3.149008,-4.51451 6.160309,-10.0708032 8.031652,-14.8195772 1.015987,-2.578198 3.382958,-6.119818 6.598252,-9.872741 5.260247,-6.139823 7.205008,-9.962394 5.788892,-11.37851 -2.200762,-2.20076 -19.353175,10.272842 -21.278081,15.473874 -2.373387,6.412816 -5.414466,11.87277 -7.826719,14.0520962 -2.878592,2.600635 -2.371237,2.573206 -10.735001,0.580378 -4.430858,-1.0557382 -7.54717,-0.935058 -7.54717,0.292267 0,0.352599 1.364367,1.986157 3.031928,3.630127 5.18539,5.11203405 4.906645,10.48958 -0.758468,14.632313 -4.384637,3.2063528 -7.813596,6.6734818 -9.140093,9.2418388 -2.127867,4.119966 -3.876975,12.356075 -3.5247,16.596926 0.16698,2.01018 1.839104,1.357112 4.828256,-1.885736 z"
     id="path1049"
     inkscape:connector-curvature="0" />
  <path
     style="opacity:0;fill:#ffffff;fill-opacity:1;fill-rule:evenodd;stroke:#0d47a1;stroke-width:0;stroke-miterlimit:4;stroke-dasharray:none;stroke-opacity:1"
     d="m 16.158849,44.063269 c 0.08196,-0.366895 0.512058,-1.451677 0.955783,-2.410627 0.615549,-1.330285 1.028863,-1.883745 1.743774,-2.335047 1.584957,-1.00054 3.71199,-3.097948 4.454473,-4.392434 1.172006,-2.04334 0.88978,-3.720781 -1.007223,-5.986544 l -0.995095,-1.188532 h 0.979011 c 0.538456,0 1.748475,0.285214 2.68893,0.633808 1.260104,0.467076 1.937592,0.591095 2.575391,0.471443 1.681934,-0.315533 3.209003,-2.249808 5.756027,-7.290919 1.212076,-2.398961 3.205099,-5.139325 4.058833,-5.580808 0.398571,-0.206109 0.724675,-0.33445 0.724675,-0.285202 0,0.04925 -0.212579,0.707411 -0.472396,1.462585 -0.259818,0.755174 -0.641511,2.353011 -0.848207,3.550749 -0.514206,2.979665 -1.343253,4.912415 -3.442796,8.026155 -2.052899,3.044563 -2.139621,3.487272 -1.058407,5.403078 1.262334,2.236732 0.92824,2.648017 -1.533405,1.887692 -2.035166,-0.628598 -2.734992,-0.441412 -4.784026,1.279613 -0.861445,0.723545 -2.82159,2.373182 -4.355879,3.665858 -2.47626,2.086314 -4.866574,3.747406 -5.40192,3.753939 -0.102604,0.0013 -0.119498,-0.297912 -0.03754,-0.664807 z"
     id="path1230"
     inkscape:connector-curvature="0" />
  <path
     style="opacity:0;fill:#ffffff;fill-opacity:1;fill-rule:evenodd;stroke:#0d47a1;stroke-width:0;stroke-miterlimit:4;stroke-dasharray:none;stroke-opacity:1"
     d="m 16.158849,44.063269 c 0.08196,-0.366895 0.512058,-1.451677 0.955783,-2.410627 0.615549,-1.330285 1.028863,-1.883745 1.743774,-2.335047 1.584957,-1.00054 3.71199,-3.097948 4.454473,-4.392434 1.172006,-2.04334 0.88978,-3.720781 -1.007223,-5.986544 l -0.995095,-1.188532 h 0.979011 c 0.538456,0 1.748475,0.285214 2.68893,0.633808 1.260104,0.467076 1.937592,0.591095 2.575391,0.471443 1.681934,-0.315533 3.209003,-2.249808 5.756027,-7.290919 1.212076,-2.398961 3.205099,-5.139325 4.058833,-5.580808 0.398571,-0.206109 0.724675,-0.33445 0.724675,-0.285202 0,0.04925 -0.212579,0.707411 -0.472396,1.462585 -0.259818,0.755174 -0.641511,2.353011 -0.848207,3.550749 -0.514206,2.979665 -1.343253,4.912415 -3.442796,8.026155 -2.052899,3.044563 -2.139621,3.487272 -1.058407,5.403078 1.262334,2.236732 0.92824,2.648017 -1.533405,1.887692 -2.035166,-0.628598 -2.734992,-0.441412 -4.784026,1.279613 -0.861445,0.723545 -2.82159,2.373182 -4.355879,3.665858 -2.47626,2.086314 -4.866574,3.747406 -5.40192,3.753939 -0.102604,0.0013 -0.119498,-0.297912 -0.03754,-0.664807 z"
     id="path1232"
     inkscape:connector-curvature="0" />
  <path
     style="opacity:0;fill:#ffffff;fill-opacity:1;fill-rule:evenodd;stroke:#0d47a1;stroke-width:0;stroke-miterlimit:4;stroke-dasharray:none;stroke-opacity:1"
     d="m 16.158849,44.063269 c 0.08196,-0.366895 0.512058,-1.451677 0.955783,-2.410627 0.615549,-1.330285 1.028863,-1.883745 1.743774,-2.335047 1.584957,-1.00054 3.71199,-3.097948 4.454473,-4.392434 1.172006,-2.04334 0.88978,-3.720781 -1.007223,-5.986544 l -0.995095,-1.188532 h 0.979011 c 0.538456,0 1.748475,0.285214 2.68893,0.633808 1.260104,0.467076 1.937592,0.591095 2.575391,0.471443 1.681934,-0.315533 3.209003,-2.249808 5.756027,-7.290919 1.212076,-2.398961 3.205099,-5.139325 4.058833,-5.580808 0.398571,-0.206109 0.724675,-0.33445 0.724675,-0.285202 0,0.04925 -0.212579,0.707411 -0.472396,1.462585 -0.259818,0.755174 -0.641511,2.353011 -0.848207,3.550749 -0.514206,2.979665 -1.343253,4.912415 -3.442796,8.026155 -2.052899,3.044563 -2.139621,3.487272 -1.058407,5.403078 1.262334,2.236732 0.92824,2.648017 -1.533405,1.887692 -2.035166,-0.628598 -2.734992,-0.441412 -4.784026,1.279613 -0.861445,0.723545 -2.82159,2.373182 -4.355879,3.665858 -2.47626,2.086314 -4.866574,3.747406 -5.40192,3.753939 -0.102604,0.0013 -0.119498,-0.297912 -0.03754,-0.664807 z"
     id="path1234"
     inkscape:connector-curvature="0" />
  <path
     style="opacity:0;fill:#ffffff;fill-opacity:1;fill-rule:evenodd;stroke:#0d47a1;stroke-width:0;stroke-miterlimit:4;stroke-dasharray:none;stroke-opacity:1"
     d="m 16.158849,44.063269 c 0.08196,-0.366895 0.512058,-1.451677 0.955783,-2.410627 0.615549,-1.330285 1.028863,-1.883745 1.743774,-2.335047 1.584957,-1.00054 3.71199,-3.097948 4.454473,-4.392434 1.172006,-2.04334 0.88978,-3.720781 -1.007223,-5.986544 l -0.995095,-1.188532 h 0.979011 c 0.538456,0 1.748475,0.285214 2.68893,0.633808 1.260104,0.467076 1.937592,0.591095 2.575391,0.471443 1.681934,-0.315533 3.209003,-2.249808 5.756027,-7.290919 1.212076,-2.398961 3.205099,-5.139325 4.058833,-5.580808 0.398571,-0.206109 0.724675,-0.33445 0.724675,-0.285202 0,0.04925 -0.212579,0.707411 -0.472396,1.462585 -0.259818,0.755174 -0.641511,2.353011 -0.848207,3.550749 -0.514206,2.979665 -1.343253,4.912415 -3.442796,8.026155 -2.052899,3.044563 -2.139621,3.487272 -1.058407,5.403078 1.262334,2.236732 0.92824,2.648017 -1.533405,1.887692 -2.035166,-0.628598 -2.734992,-0.441412 -4.784026,1.279613 -0.861445,0.723545 -2.82159,2.373182 -4.355879,3.665858 -2.47626,2.086314 -4.866574,3.747406 -5.40192,3.753939 -0.102604,0.0013 -0.119498,-0.297912 -0.03754,-0.664807 z"
     id="path1236"
     inkscape:connector-curvature="0" />
  <path
     style="opacity:0;fill:#ffffff;fill-opacity:1;fill-rule:evenodd;stroke:#0d47a1;stroke-width:0;stroke-miterlimit:4;stroke-dasharray:none;stroke-opacity:1"
     d="m 16.158849,44.063269 c 0.08196,-0.366895 0.512058,-1.451677 0.955783,-2.410627 0.615549,-1.330285 1.028863,-1.883745 1.743774,-2.335047 1.584957,-1.00054 3.71199,-3.097948 4.454473,-4.392434 1.172006,-2.04334 0.88978,-3.720781 -1.007223,-5.986544 l -0.995095,-1.188532 h 0.979011 c 0.538456,0 1.748475,0.285214 2.68893,0.633808 1.260104,0.467076 1.937592,0.591095 2.575391,0.471443 1.681934,-0.315533 3.209003,-2.249808 5.756027,-7.290919 1.212076,-2.398961 3.205099,-5.139325 4.058833,-5.580808 0.398571,-0.206109 0.724675,-0.33445 0.724675,-0.285202 0,0.04925 -0.212579,0.707411 -0.472396,1.462585 -0.259818,0.755174 -0.641511,2.353011 -0.848207,3.550749 -0.514206,2.979665 -1.343253,4.912415 -3.442796,8.026155 -2.052899,3.044563 -2.139621,3.487272 -1.058407,5.403078 1.262334,2.236732 0.92824,2.648017 -1.533405,1.887692 -2.035166,-0.628598 -2.734992,-0.441412 -4.784026,1.279613 -0.861445,0.723545 -2.82159,2.373182 -4.355879,3.665858 -2.47626,2.086314 -4.866574,3.747406 -5.40192,3.753939 -0.102604,0.0013 -0.119498,-0.297912 -0.03754,-0.664807 z"
     id="path1238"
     inkscape:connector-curvature="0" />
  <path
     style="opacity:0;fill:#ffffff;fill-opacity:1;fill-rule:evenodd;stroke:#0d47a1;stroke-width:0;stroke-miterlimit:4;stroke-dasharray:none;stroke-opacity:1"
     d="m 16.158849,44.063269 c 0.08196,-0.366895 0.512058,-1.451677 0.955783,-2.410627 0.615549,-1.330285 1.028863,-1.883745 1.743774,-2.335047 1.584957,-1.00054 3.71199,-3.097948 4.454473,-4.392434 1.172006,-2.04334 0.88978,-3.720781 -1.007223,-5.986544 l -0.995095,-1.188532 h 0.979011 c 0.538456,0 1.748475,0.285214 2.68893,0.633808 1.260104,0.467076 1.937592,0.591095 2.575391,0.471443 1.681934,-0.315533 3.209003,-2.249808 5.756027,-7.290919 1.212076,-2.398961 3.205099,-5.139325 4.058833,-5.580808 0.398571,-0.206109 0.724675,-0.33445 0.724675,-0.285202 0,0.04925 -0.212579,0.707411 -0.472396,1.462585 -0.259818,0.755174 -0.641511,2.353011 -0.848207,3.550749 -0.514206,2.979665 -1.343253,4.912415 -3.442796,8.026155 -2.052899,3.044563 -2.139621,3.487272 -1.058407,5.403078 1.262334,2.236732 0.92824,2.648017 -1.533405,1.887692 -2.035166,-0.628598 -2.734992,-0.441412 -4.784026,1.279613 -0.861445,0.723545 -2.82159,2.373182 -4.355879,3.665858 -2.47626,2.086314 -4.866574,3.747406 -5.40192,3.753939 -0.102604,0.0013 -0.119498,-0.297912 -0.03754,-0.664807 z"
     id="path1240"
     inkscape:connector-curvature="0" />
  <path
     style="opacity:0;fill:#ffffff;fill-opacity:1;fill-rule:evenodd;stroke:#0d47a1;stroke-width:0;stroke-miterlimit:4;stroke-dasharray:none;stroke-opacity:1"
     d="m 16.158849,44.063269 c 0.08196,-0.366895 0.512058,-1.451677 0.955783,-2.410627 0.615549,-1.330285 1.028863,-1.883745 1.743774,-2.335047 1.584957,-1.00054 3.71199,-3.097948 4.454473,-4.392434 1.172006,-2.04334 0.88978,-3.720781 -1.007223,-5.986544 l -0.995095,-1.188532 h 0.979011 c 0.538456,0 1.748475,0.285214 2.68893,0.633808 1.260104,0.467076 1.937592,0.591095 2.575391,0.471443 1.681934,-0.315533 3.209003,-2.249808 5.756027,-7.290919 1.212076,-2.398961 3.205099,-5.139325 4.058833,-5.580808 0.398571,-0.206109 0.724675,-0.33445 0.724675,-0.285202 0,0.04925 -0.212579,0.707411 -0.472396,1.462585 -0.259818,0.755174 -0.641511,2.353011 -0.848207,3.550749 -0.514206,2.979665 -1.343253,4.912415 -3.442796,8.026155 -2.052899,3.044563 -2.139621,3.487272 -1.058407,5.403078 1.262334,2.236732 0.92824,2.648017 -1.533405,1.887692 -2.035166,-0.628598 -2.734992,-0.441412 -4.784026,1.279613 -0.861445,0.723545 -2.82159,2.373182 -4.355879,3.665858 -2.47626,2.086314 -4.866574,3.747406 -5.40192,3.753939 -0.102604,0.0013 -0.119498,-0.297912 -0.03754,-0.664807 z"
     id="path1242"
     inkscape:connector-curvature="0" />
  <rect
     style="opacity:0;fill:#ffffff;fill-opacity:1;fill-rule:evenodd;stroke:#0d47a1;stroke-width:0;stroke-miterlimit:4;stroke-dasharray:none;stroke-opacity:1"
     id="rect1244"
     width="30.703259"
     height="37.735847"
     x="9.9485416"
     y="13.344769" />
</svg>
